%TF.GenerationSoftware,KiCad,Pcbnew,9.0.2*%
%TF.CreationDate,2025-12-29T08:51:12-08:00*%
%TF.ProjectId,motor_temperature,6d6f746f-725f-4746-956d-706572617475,A*%
%TF.SameCoordinates,Original*%
%TF.FileFunction,Legend,Top*%
%TF.FilePolarity,Positive*%
%FSLAX46Y46*%
G04 Gerber Fmt 4.6, Leading zero omitted, Abs format (unit mm)*
G04 Created by KiCad (PCBNEW 9.0.2) date 2025-12-29 08:51:12*
%MOMM*%
%LPD*%
G01*
G04 APERTURE LIST*
%ADD10C,0.100000*%
%ADD11C,0.150000*%
%ADD12C,0.120000*%
%ADD13C,0.127000*%
%ADD14C,0.200000*%
%ADD15C,0.152400*%
G04 APERTURE END LIST*
D10*
X133638027Y-81295419D02*
X134209455Y-81295419D01*
X133923741Y-82295419D02*
X133923741Y-81295419D01*
X134495170Y-82009704D02*
X134971360Y-82009704D01*
X134399932Y-82295419D02*
X134733265Y-81295419D01*
X134733265Y-81295419D02*
X135066598Y-82295419D01*
X135971360Y-82200180D02*
X135923741Y-82247800D01*
X135923741Y-82247800D02*
X135780884Y-82295419D01*
X135780884Y-82295419D02*
X135685646Y-82295419D01*
X135685646Y-82295419D02*
X135542789Y-82247800D01*
X135542789Y-82247800D02*
X135447551Y-82152561D01*
X135447551Y-82152561D02*
X135399932Y-82057323D01*
X135399932Y-82057323D02*
X135352313Y-81866847D01*
X135352313Y-81866847D02*
X135352313Y-81723990D01*
X135352313Y-81723990D02*
X135399932Y-81533514D01*
X135399932Y-81533514D02*
X135447551Y-81438276D01*
X135447551Y-81438276D02*
X135542789Y-81343038D01*
X135542789Y-81343038D02*
X135685646Y-81295419D01*
X135685646Y-81295419D02*
X135780884Y-81295419D01*
X135780884Y-81295419D02*
X135923741Y-81343038D01*
X135923741Y-81343038D02*
X135971360Y-81390657D01*
X136399932Y-82295419D02*
X136399932Y-81295419D01*
X136399932Y-81771609D02*
X136971360Y-81771609D01*
X136971360Y-82295419D02*
X136971360Y-81295419D01*
X137971360Y-82295419D02*
X137399932Y-82295419D01*
X137685646Y-82295419D02*
X137685646Y-81295419D01*
X137685646Y-81295419D02*
X137590408Y-81438276D01*
X137590408Y-81438276D02*
X137495170Y-81533514D01*
X137495170Y-81533514D02*
X137399932Y-81581133D01*
X110301693Y-82168419D02*
X109730265Y-82168419D01*
X110015979Y-82168419D02*
X110015979Y-81168419D01*
X110015979Y-81168419D02*
X109920741Y-81311276D01*
X109920741Y-81311276D02*
X109825503Y-81406514D01*
X109825503Y-81406514D02*
X109730265Y-81454133D01*
X110682646Y-81263657D02*
X110730265Y-81216038D01*
X110730265Y-81216038D02*
X110825503Y-81168419D01*
X110825503Y-81168419D02*
X111063598Y-81168419D01*
X111063598Y-81168419D02*
X111158836Y-81216038D01*
X111158836Y-81216038D02*
X111206455Y-81263657D01*
X111206455Y-81263657D02*
X111254074Y-81358895D01*
X111254074Y-81358895D02*
X111254074Y-81454133D01*
X111254074Y-81454133D02*
X111206455Y-81596990D01*
X111206455Y-81596990D02*
X110635027Y-82168419D01*
X110635027Y-82168419D02*
X111254074Y-82168419D01*
X112301694Y-81168419D02*
X112635027Y-82168419D01*
X112635027Y-82168419D02*
X112968360Y-81168419D01*
X122795360Y-81295419D02*
X122985836Y-81295419D01*
X122985836Y-81295419D02*
X123081074Y-81343038D01*
X123081074Y-81343038D02*
X123176312Y-81438276D01*
X123176312Y-81438276D02*
X123223931Y-81628752D01*
X123223931Y-81628752D02*
X123223931Y-81962085D01*
X123223931Y-81962085D02*
X123176312Y-82152561D01*
X123176312Y-82152561D02*
X123081074Y-82247800D01*
X123081074Y-82247800D02*
X122985836Y-82295419D01*
X122985836Y-82295419D02*
X122795360Y-82295419D01*
X122795360Y-82295419D02*
X122700122Y-82247800D01*
X122700122Y-82247800D02*
X122604884Y-82152561D01*
X122604884Y-82152561D02*
X122557265Y-81962085D01*
X122557265Y-81962085D02*
X122557265Y-81628752D01*
X122557265Y-81628752D02*
X122604884Y-81438276D01*
X122604884Y-81438276D02*
X122700122Y-81343038D01*
X122700122Y-81343038D02*
X122795360Y-81295419D01*
X123652503Y-81295419D02*
X123652503Y-82104942D01*
X123652503Y-82104942D02*
X123700122Y-82200180D01*
X123700122Y-82200180D02*
X123747741Y-82247800D01*
X123747741Y-82247800D02*
X123842979Y-82295419D01*
X123842979Y-82295419D02*
X124033455Y-82295419D01*
X124033455Y-82295419D02*
X124128693Y-82247800D01*
X124128693Y-82247800D02*
X124176312Y-82200180D01*
X124176312Y-82200180D02*
X124223931Y-82104942D01*
X124223931Y-82104942D02*
X124223931Y-81295419D01*
X124557265Y-81295419D02*
X125128693Y-81295419D01*
X124842979Y-82295419D02*
X124842979Y-81295419D01*
X125223932Y-82390657D02*
X125985836Y-82390657D01*
X126747741Y-82295419D02*
X126176313Y-82295419D01*
X126462027Y-82295419D02*
X126462027Y-81295419D01*
X126462027Y-81295419D02*
X126366789Y-81438276D01*
X126366789Y-81438276D02*
X126271551Y-81533514D01*
X126271551Y-81533514D02*
X126176313Y-81581133D01*
X119064693Y-81343038D02*
X118969455Y-81295419D01*
X118969455Y-81295419D02*
X118826598Y-81295419D01*
X118826598Y-81295419D02*
X118683741Y-81343038D01*
X118683741Y-81343038D02*
X118588503Y-81438276D01*
X118588503Y-81438276D02*
X118540884Y-81533514D01*
X118540884Y-81533514D02*
X118493265Y-81723990D01*
X118493265Y-81723990D02*
X118493265Y-81866847D01*
X118493265Y-81866847D02*
X118540884Y-82057323D01*
X118540884Y-82057323D02*
X118588503Y-82152561D01*
X118588503Y-82152561D02*
X118683741Y-82247800D01*
X118683741Y-82247800D02*
X118826598Y-82295419D01*
X118826598Y-82295419D02*
X118921836Y-82295419D01*
X118921836Y-82295419D02*
X119064693Y-82247800D01*
X119064693Y-82247800D02*
X119112312Y-82200180D01*
X119112312Y-82200180D02*
X119112312Y-81866847D01*
X119112312Y-81866847D02*
X118921836Y-81866847D01*
X119540884Y-82295419D02*
X119540884Y-81295419D01*
X119540884Y-81295419D02*
X120112312Y-82295419D01*
X120112312Y-82295419D02*
X120112312Y-81295419D01*
X120588503Y-82295419D02*
X120588503Y-81295419D01*
X120588503Y-81295419D02*
X120826598Y-81295419D01*
X120826598Y-81295419D02*
X120969455Y-81343038D01*
X120969455Y-81343038D02*
X121064693Y-81438276D01*
X121064693Y-81438276D02*
X121112312Y-81533514D01*
X121112312Y-81533514D02*
X121159931Y-81723990D01*
X121159931Y-81723990D02*
X121159931Y-81866847D01*
X121159931Y-81866847D02*
X121112312Y-82057323D01*
X121112312Y-82057323D02*
X121064693Y-82152561D01*
X121064693Y-82152561D02*
X120969455Y-82247800D01*
X120969455Y-82247800D02*
X120826598Y-82295419D01*
X120826598Y-82295419D02*
X120588503Y-82295419D01*
X128383360Y-81295419D02*
X128573836Y-81295419D01*
X128573836Y-81295419D02*
X128669074Y-81343038D01*
X128669074Y-81343038D02*
X128764312Y-81438276D01*
X128764312Y-81438276D02*
X128811931Y-81628752D01*
X128811931Y-81628752D02*
X128811931Y-81962085D01*
X128811931Y-81962085D02*
X128764312Y-82152561D01*
X128764312Y-82152561D02*
X128669074Y-82247800D01*
X128669074Y-82247800D02*
X128573836Y-82295419D01*
X128573836Y-82295419D02*
X128383360Y-82295419D01*
X128383360Y-82295419D02*
X128288122Y-82247800D01*
X128288122Y-82247800D02*
X128192884Y-82152561D01*
X128192884Y-82152561D02*
X128145265Y-81962085D01*
X128145265Y-81962085D02*
X128145265Y-81628752D01*
X128145265Y-81628752D02*
X128192884Y-81438276D01*
X128192884Y-81438276D02*
X128288122Y-81343038D01*
X128288122Y-81343038D02*
X128383360Y-81295419D01*
X129240503Y-81295419D02*
X129240503Y-82104942D01*
X129240503Y-82104942D02*
X129288122Y-82200180D01*
X129288122Y-82200180D02*
X129335741Y-82247800D01*
X129335741Y-82247800D02*
X129430979Y-82295419D01*
X129430979Y-82295419D02*
X129621455Y-82295419D01*
X129621455Y-82295419D02*
X129716693Y-82247800D01*
X129716693Y-82247800D02*
X129764312Y-82200180D01*
X129764312Y-82200180D02*
X129811931Y-82104942D01*
X129811931Y-82104942D02*
X129811931Y-81295419D01*
X130145265Y-81295419D02*
X130716693Y-81295419D01*
X130430979Y-82295419D02*
X130430979Y-81295419D01*
X130811932Y-82390657D02*
X131573836Y-82390657D01*
X131764313Y-81390657D02*
X131811932Y-81343038D01*
X131811932Y-81343038D02*
X131907170Y-81295419D01*
X131907170Y-81295419D02*
X132145265Y-81295419D01*
X132145265Y-81295419D02*
X132240503Y-81343038D01*
X132240503Y-81343038D02*
X132288122Y-81390657D01*
X132288122Y-81390657D02*
X132335741Y-81485895D01*
X132335741Y-81485895D02*
X132335741Y-81581133D01*
X132335741Y-81581133D02*
X132288122Y-81723990D01*
X132288122Y-81723990D02*
X131716694Y-82295419D01*
X131716694Y-82295419D02*
X132335741Y-82295419D01*
D11*
X132280819Y-80049666D02*
X131804628Y-80382999D01*
X132280819Y-80621094D02*
X131280819Y-80621094D01*
X131280819Y-80621094D02*
X131280819Y-80240142D01*
X131280819Y-80240142D02*
X131328438Y-80144904D01*
X131328438Y-80144904D02*
X131376057Y-80097285D01*
X131376057Y-80097285D02*
X131471295Y-80049666D01*
X131471295Y-80049666D02*
X131614152Y-80049666D01*
X131614152Y-80049666D02*
X131709390Y-80097285D01*
X131709390Y-80097285D02*
X131757009Y-80144904D01*
X131757009Y-80144904D02*
X131804628Y-80240142D01*
X131804628Y-80240142D02*
X131804628Y-80621094D01*
X132280819Y-79097285D02*
X132280819Y-79668713D01*
X132280819Y-79382999D02*
X131280819Y-79382999D01*
X131280819Y-79382999D02*
X131423676Y-79478237D01*
X131423676Y-79478237D02*
X131518914Y-79573475D01*
X131518914Y-79573475D02*
X131566533Y-79668713D01*
X154265333Y-78718580D02*
X154217714Y-78766200D01*
X154217714Y-78766200D02*
X154074857Y-78813819D01*
X154074857Y-78813819D02*
X153979619Y-78813819D01*
X153979619Y-78813819D02*
X153836762Y-78766200D01*
X153836762Y-78766200D02*
X153741524Y-78670961D01*
X153741524Y-78670961D02*
X153693905Y-78575723D01*
X153693905Y-78575723D02*
X153646286Y-78385247D01*
X153646286Y-78385247D02*
X153646286Y-78242390D01*
X153646286Y-78242390D02*
X153693905Y-78051914D01*
X153693905Y-78051914D02*
X153741524Y-77956676D01*
X153741524Y-77956676D02*
X153836762Y-77861438D01*
X153836762Y-77861438D02*
X153979619Y-77813819D01*
X153979619Y-77813819D02*
X154074857Y-77813819D01*
X154074857Y-77813819D02*
X154217714Y-77861438D01*
X154217714Y-77861438D02*
X154265333Y-77909057D01*
X154646286Y-77909057D02*
X154693905Y-77861438D01*
X154693905Y-77861438D02*
X154789143Y-77813819D01*
X154789143Y-77813819D02*
X155027238Y-77813819D01*
X155027238Y-77813819D02*
X155122476Y-77861438D01*
X155122476Y-77861438D02*
X155170095Y-77909057D01*
X155170095Y-77909057D02*
X155217714Y-78004295D01*
X155217714Y-78004295D02*
X155217714Y-78099533D01*
X155217714Y-78099533D02*
X155170095Y-78242390D01*
X155170095Y-78242390D02*
X154598667Y-78813819D01*
X154598667Y-78813819D02*
X155217714Y-78813819D01*
X109775666Y-95974819D02*
X109775666Y-96689104D01*
X109775666Y-96689104D02*
X109728047Y-96831961D01*
X109728047Y-96831961D02*
X109632809Y-96927200D01*
X109632809Y-96927200D02*
X109489952Y-96974819D01*
X109489952Y-96974819D02*
X109394714Y-96974819D01*
X110156619Y-95974819D02*
X110775666Y-95974819D01*
X110775666Y-95974819D02*
X110442333Y-96355771D01*
X110442333Y-96355771D02*
X110585190Y-96355771D01*
X110585190Y-96355771D02*
X110680428Y-96403390D01*
X110680428Y-96403390D02*
X110728047Y-96451009D01*
X110728047Y-96451009D02*
X110775666Y-96546247D01*
X110775666Y-96546247D02*
X110775666Y-96784342D01*
X110775666Y-96784342D02*
X110728047Y-96879580D01*
X110728047Y-96879580D02*
X110680428Y-96927200D01*
X110680428Y-96927200D02*
X110585190Y-96974819D01*
X110585190Y-96974819D02*
X110299476Y-96974819D01*
X110299476Y-96974819D02*
X110204238Y-96927200D01*
X110204238Y-96927200D02*
X110156619Y-96879580D01*
X152233333Y-108658819D02*
X151900000Y-108182628D01*
X151661905Y-108658819D02*
X151661905Y-107658819D01*
X151661905Y-107658819D02*
X152042857Y-107658819D01*
X152042857Y-107658819D02*
X152138095Y-107706438D01*
X152138095Y-107706438D02*
X152185714Y-107754057D01*
X152185714Y-107754057D02*
X152233333Y-107849295D01*
X152233333Y-107849295D02*
X152233333Y-107992152D01*
X152233333Y-107992152D02*
X152185714Y-108087390D01*
X152185714Y-108087390D02*
X152138095Y-108135009D01*
X152138095Y-108135009D02*
X152042857Y-108182628D01*
X152042857Y-108182628D02*
X151661905Y-108182628D01*
X152614286Y-107754057D02*
X152661905Y-107706438D01*
X152661905Y-107706438D02*
X152757143Y-107658819D01*
X152757143Y-107658819D02*
X152995238Y-107658819D01*
X152995238Y-107658819D02*
X153090476Y-107706438D01*
X153090476Y-107706438D02*
X153138095Y-107754057D01*
X153138095Y-107754057D02*
X153185714Y-107849295D01*
X153185714Y-107849295D02*
X153185714Y-107944533D01*
X153185714Y-107944533D02*
X153138095Y-108087390D01*
X153138095Y-108087390D02*
X152566667Y-108658819D01*
X152566667Y-108658819D02*
X153185714Y-108658819D01*
X154773333Y-81131580D02*
X154725714Y-81179200D01*
X154725714Y-81179200D02*
X154582857Y-81226819D01*
X154582857Y-81226819D02*
X154487619Y-81226819D01*
X154487619Y-81226819D02*
X154344762Y-81179200D01*
X154344762Y-81179200D02*
X154249524Y-81083961D01*
X154249524Y-81083961D02*
X154201905Y-80988723D01*
X154201905Y-80988723D02*
X154154286Y-80798247D01*
X154154286Y-80798247D02*
X154154286Y-80655390D01*
X154154286Y-80655390D02*
X154201905Y-80464914D01*
X154201905Y-80464914D02*
X154249524Y-80369676D01*
X154249524Y-80369676D02*
X154344762Y-80274438D01*
X154344762Y-80274438D02*
X154487619Y-80226819D01*
X154487619Y-80226819D02*
X154582857Y-80226819D01*
X154582857Y-80226819D02*
X154725714Y-80274438D01*
X154725714Y-80274438D02*
X154773333Y-80322057D01*
X155725714Y-81226819D02*
X155154286Y-81226819D01*
X155440000Y-81226819D02*
X155440000Y-80226819D01*
X155440000Y-80226819D02*
X155344762Y-80369676D01*
X155344762Y-80369676D02*
X155249524Y-80464914D01*
X155249524Y-80464914D02*
X155154286Y-80512533D01*
X126597580Y-71413666D02*
X126645200Y-71461285D01*
X126645200Y-71461285D02*
X126692819Y-71604142D01*
X126692819Y-71604142D02*
X126692819Y-71699380D01*
X126692819Y-71699380D02*
X126645200Y-71842237D01*
X126645200Y-71842237D02*
X126549961Y-71937475D01*
X126549961Y-71937475D02*
X126454723Y-71985094D01*
X126454723Y-71985094D02*
X126264247Y-72032713D01*
X126264247Y-72032713D02*
X126121390Y-72032713D01*
X126121390Y-72032713D02*
X125930914Y-71985094D01*
X125930914Y-71985094D02*
X125835676Y-71937475D01*
X125835676Y-71937475D02*
X125740438Y-71842237D01*
X125740438Y-71842237D02*
X125692819Y-71699380D01*
X125692819Y-71699380D02*
X125692819Y-71604142D01*
X125692819Y-71604142D02*
X125740438Y-71461285D01*
X125740438Y-71461285D02*
X125788057Y-71413666D01*
X125692819Y-71080332D02*
X125692819Y-70461285D01*
X125692819Y-70461285D02*
X126073771Y-70794618D01*
X126073771Y-70794618D02*
X126073771Y-70651761D01*
X126073771Y-70651761D02*
X126121390Y-70556523D01*
X126121390Y-70556523D02*
X126169009Y-70508904D01*
X126169009Y-70508904D02*
X126264247Y-70461285D01*
X126264247Y-70461285D02*
X126502342Y-70461285D01*
X126502342Y-70461285D02*
X126597580Y-70508904D01*
X126597580Y-70508904D02*
X126645200Y-70556523D01*
X126645200Y-70556523D02*
X126692819Y-70651761D01*
X126692819Y-70651761D02*
X126692819Y-70937475D01*
X126692819Y-70937475D02*
X126645200Y-71032713D01*
X126645200Y-71032713D02*
X126597580Y-71080332D01*
X165060333Y-109420819D02*
X164727000Y-108944628D01*
X164488905Y-109420819D02*
X164488905Y-108420819D01*
X164488905Y-108420819D02*
X164869857Y-108420819D01*
X164869857Y-108420819D02*
X164965095Y-108468438D01*
X164965095Y-108468438D02*
X165012714Y-108516057D01*
X165012714Y-108516057D02*
X165060333Y-108611295D01*
X165060333Y-108611295D02*
X165060333Y-108754152D01*
X165060333Y-108754152D02*
X165012714Y-108849390D01*
X165012714Y-108849390D02*
X164965095Y-108897009D01*
X164965095Y-108897009D02*
X164869857Y-108944628D01*
X164869857Y-108944628D02*
X164488905Y-108944628D01*
X165393667Y-108420819D02*
X166012714Y-108420819D01*
X166012714Y-108420819D02*
X165679381Y-108801771D01*
X165679381Y-108801771D02*
X165822238Y-108801771D01*
X165822238Y-108801771D02*
X165917476Y-108849390D01*
X165917476Y-108849390D02*
X165965095Y-108897009D01*
X165965095Y-108897009D02*
X166012714Y-108992247D01*
X166012714Y-108992247D02*
X166012714Y-109230342D01*
X166012714Y-109230342D02*
X165965095Y-109325580D01*
X165965095Y-109325580D02*
X165917476Y-109373200D01*
X165917476Y-109373200D02*
X165822238Y-109420819D01*
X165822238Y-109420819D02*
X165536524Y-109420819D01*
X165536524Y-109420819D02*
X165441286Y-109373200D01*
X165441286Y-109373200D02*
X165393667Y-109325580D01*
X145060319Y-73913904D02*
X145869842Y-73913904D01*
X145869842Y-73913904D02*
X145965080Y-73866285D01*
X145965080Y-73866285D02*
X146012700Y-73818666D01*
X146012700Y-73818666D02*
X146060319Y-73723428D01*
X146060319Y-73723428D02*
X146060319Y-73532952D01*
X146060319Y-73532952D02*
X146012700Y-73437714D01*
X146012700Y-73437714D02*
X145965080Y-73390095D01*
X145965080Y-73390095D02*
X145869842Y-73342476D01*
X145869842Y-73342476D02*
X145060319Y-73342476D01*
X145155557Y-72913904D02*
X145107938Y-72866285D01*
X145107938Y-72866285D02*
X145060319Y-72771047D01*
X145060319Y-72771047D02*
X145060319Y-72532952D01*
X145060319Y-72532952D02*
X145107938Y-72437714D01*
X145107938Y-72437714D02*
X145155557Y-72390095D01*
X145155557Y-72390095D02*
X145250795Y-72342476D01*
X145250795Y-72342476D02*
X145346033Y-72342476D01*
X145346033Y-72342476D02*
X145488890Y-72390095D01*
X145488890Y-72390095D02*
X146060319Y-72961523D01*
X146060319Y-72961523D02*
X146060319Y-72342476D01*
X124126666Y-96101819D02*
X124126666Y-96816104D01*
X124126666Y-96816104D02*
X124079047Y-96958961D01*
X124079047Y-96958961D02*
X123983809Y-97054200D01*
X123983809Y-97054200D02*
X123840952Y-97101819D01*
X123840952Y-97101819D02*
X123745714Y-97101819D01*
X125126666Y-97101819D02*
X124555238Y-97101819D01*
X124840952Y-97101819D02*
X124840952Y-96101819D01*
X124840952Y-96101819D02*
X124745714Y-96244676D01*
X124745714Y-96244676D02*
X124650476Y-96339914D01*
X124650476Y-96339914D02*
X124555238Y-96387533D01*
X160996333Y-98784580D02*
X160948714Y-98832200D01*
X160948714Y-98832200D02*
X160805857Y-98879819D01*
X160805857Y-98879819D02*
X160710619Y-98879819D01*
X160710619Y-98879819D02*
X160567762Y-98832200D01*
X160567762Y-98832200D02*
X160472524Y-98736961D01*
X160472524Y-98736961D02*
X160424905Y-98641723D01*
X160424905Y-98641723D02*
X160377286Y-98451247D01*
X160377286Y-98451247D02*
X160377286Y-98308390D01*
X160377286Y-98308390D02*
X160424905Y-98117914D01*
X160424905Y-98117914D02*
X160472524Y-98022676D01*
X160472524Y-98022676D02*
X160567762Y-97927438D01*
X160567762Y-97927438D02*
X160710619Y-97879819D01*
X160710619Y-97879819D02*
X160805857Y-97879819D01*
X160805857Y-97879819D02*
X160948714Y-97927438D01*
X160948714Y-97927438D02*
X160996333Y-97975057D01*
X161901095Y-97879819D02*
X161424905Y-97879819D01*
X161424905Y-97879819D02*
X161377286Y-98356009D01*
X161377286Y-98356009D02*
X161424905Y-98308390D01*
X161424905Y-98308390D02*
X161520143Y-98260771D01*
X161520143Y-98260771D02*
X161758238Y-98260771D01*
X161758238Y-98260771D02*
X161853476Y-98308390D01*
X161853476Y-98308390D02*
X161901095Y-98356009D01*
X161901095Y-98356009D02*
X161948714Y-98451247D01*
X161948714Y-98451247D02*
X161948714Y-98689342D01*
X161948714Y-98689342D02*
X161901095Y-98784580D01*
X161901095Y-98784580D02*
X161853476Y-98832200D01*
X161853476Y-98832200D02*
X161758238Y-98879819D01*
X161758238Y-98879819D02*
X161520143Y-98879819D01*
X161520143Y-98879819D02*
X161424905Y-98832200D01*
X161424905Y-98832200D02*
X161377286Y-98784580D01*
X157226095Y-68342819D02*
X157226095Y-69152342D01*
X157226095Y-69152342D02*
X157273714Y-69247580D01*
X157273714Y-69247580D02*
X157321333Y-69295200D01*
X157321333Y-69295200D02*
X157416571Y-69342819D01*
X157416571Y-69342819D02*
X157607047Y-69342819D01*
X157607047Y-69342819D02*
X157702285Y-69295200D01*
X157702285Y-69295200D02*
X157749904Y-69247580D01*
X157749904Y-69247580D02*
X157797523Y-69152342D01*
X157797523Y-69152342D02*
X157797523Y-68342819D01*
X158178476Y-68342819D02*
X158797523Y-68342819D01*
X158797523Y-68342819D02*
X158464190Y-68723771D01*
X158464190Y-68723771D02*
X158607047Y-68723771D01*
X158607047Y-68723771D02*
X158702285Y-68771390D01*
X158702285Y-68771390D02*
X158749904Y-68819009D01*
X158749904Y-68819009D02*
X158797523Y-68914247D01*
X158797523Y-68914247D02*
X158797523Y-69152342D01*
X158797523Y-69152342D02*
X158749904Y-69247580D01*
X158749904Y-69247580D02*
X158702285Y-69295200D01*
X158702285Y-69295200D02*
X158607047Y-69342819D01*
X158607047Y-69342819D02*
X158321333Y-69342819D01*
X158321333Y-69342819D02*
X158226095Y-69295200D01*
X158226095Y-69295200D02*
X158178476Y-69247580D01*
X162522819Y-104901904D02*
X163332342Y-104901904D01*
X163332342Y-104901904D02*
X163427580Y-104854285D01*
X163427580Y-104854285D02*
X163475200Y-104806666D01*
X163475200Y-104806666D02*
X163522819Y-104711428D01*
X163522819Y-104711428D02*
X163522819Y-104520952D01*
X163522819Y-104520952D02*
X163475200Y-104425714D01*
X163475200Y-104425714D02*
X163427580Y-104378095D01*
X163427580Y-104378095D02*
X163332342Y-104330476D01*
X163332342Y-104330476D02*
X162522819Y-104330476D01*
X162856152Y-103425714D02*
X163522819Y-103425714D01*
X162475200Y-103663809D02*
X163189485Y-103901904D01*
X163189485Y-103901904D02*
X163189485Y-103282857D01*
X156553819Y-107441999D02*
X156791914Y-107441999D01*
X156696676Y-107680094D02*
X156791914Y-107441999D01*
X156791914Y-107441999D02*
X156696676Y-107203904D01*
X156982390Y-107584856D02*
X156791914Y-107441999D01*
X156791914Y-107441999D02*
X156982390Y-107299142D01*
X142668666Y-97498819D02*
X142668666Y-98213104D01*
X142668666Y-98213104D02*
X142621047Y-98355961D01*
X142621047Y-98355961D02*
X142525809Y-98451200D01*
X142525809Y-98451200D02*
X142382952Y-98498819D01*
X142382952Y-98498819D02*
X142287714Y-98498819D01*
X143097238Y-97594057D02*
X143144857Y-97546438D01*
X143144857Y-97546438D02*
X143240095Y-97498819D01*
X143240095Y-97498819D02*
X143478190Y-97498819D01*
X143478190Y-97498819D02*
X143573428Y-97546438D01*
X143573428Y-97546438D02*
X143621047Y-97594057D01*
X143621047Y-97594057D02*
X143668666Y-97689295D01*
X143668666Y-97689295D02*
X143668666Y-97784533D01*
X143668666Y-97784533D02*
X143621047Y-97927390D01*
X143621047Y-97927390D02*
X143049619Y-98498819D01*
X143049619Y-98498819D02*
X143668666Y-98498819D01*
X155414819Y-71758666D02*
X154938628Y-72091999D01*
X155414819Y-72330094D02*
X154414819Y-72330094D01*
X154414819Y-72330094D02*
X154414819Y-71949142D01*
X154414819Y-71949142D02*
X154462438Y-71853904D01*
X154462438Y-71853904D02*
X154510057Y-71806285D01*
X154510057Y-71806285D02*
X154605295Y-71758666D01*
X154605295Y-71758666D02*
X154748152Y-71758666D01*
X154748152Y-71758666D02*
X154843390Y-71806285D01*
X154843390Y-71806285D02*
X154891009Y-71853904D01*
X154891009Y-71853904D02*
X154938628Y-71949142D01*
X154938628Y-71949142D02*
X154938628Y-72330094D01*
X154414819Y-70853904D02*
X154414819Y-71330094D01*
X154414819Y-71330094D02*
X154891009Y-71377713D01*
X154891009Y-71377713D02*
X154843390Y-71330094D01*
X154843390Y-71330094D02*
X154795771Y-71234856D01*
X154795771Y-71234856D02*
X154795771Y-70996761D01*
X154795771Y-70996761D02*
X154843390Y-70901523D01*
X154843390Y-70901523D02*
X154891009Y-70853904D01*
X154891009Y-70853904D02*
X154986247Y-70806285D01*
X154986247Y-70806285D02*
X155224342Y-70806285D01*
X155224342Y-70806285D02*
X155319580Y-70853904D01*
X155319580Y-70853904D02*
X155367200Y-70901523D01*
X155367200Y-70901523D02*
X155414819Y-70996761D01*
X155414819Y-70996761D02*
X155414819Y-71234856D01*
X155414819Y-71234856D02*
X155367200Y-71330094D01*
X155367200Y-71330094D02*
X155319580Y-71377713D01*
X135699819Y-74406904D02*
X136509342Y-74406904D01*
X136509342Y-74406904D02*
X136604580Y-74359285D01*
X136604580Y-74359285D02*
X136652200Y-74311666D01*
X136652200Y-74311666D02*
X136699819Y-74216428D01*
X136699819Y-74216428D02*
X136699819Y-74025952D01*
X136699819Y-74025952D02*
X136652200Y-73930714D01*
X136652200Y-73930714D02*
X136604580Y-73883095D01*
X136604580Y-73883095D02*
X136509342Y-73835476D01*
X136509342Y-73835476D02*
X135699819Y-73835476D01*
X136699819Y-72835476D02*
X136699819Y-73406904D01*
X136699819Y-73121190D02*
X135699819Y-73121190D01*
X135699819Y-73121190D02*
X135842676Y-73216428D01*
X135842676Y-73216428D02*
X135937914Y-73311666D01*
X135937914Y-73311666D02*
X135985533Y-73406904D01*
X149566333Y-104086819D02*
X149233000Y-103610628D01*
X148994905Y-104086819D02*
X148994905Y-103086819D01*
X148994905Y-103086819D02*
X149375857Y-103086819D01*
X149375857Y-103086819D02*
X149471095Y-103134438D01*
X149471095Y-103134438D02*
X149518714Y-103182057D01*
X149518714Y-103182057D02*
X149566333Y-103277295D01*
X149566333Y-103277295D02*
X149566333Y-103420152D01*
X149566333Y-103420152D02*
X149518714Y-103515390D01*
X149518714Y-103515390D02*
X149471095Y-103563009D01*
X149471095Y-103563009D02*
X149375857Y-103610628D01*
X149375857Y-103610628D02*
X148994905Y-103610628D01*
X150423476Y-103420152D02*
X150423476Y-104086819D01*
X150185381Y-103039200D02*
X149947286Y-103753485D01*
X149947286Y-103753485D02*
X150566333Y-103753485D01*
X138142819Y-75441666D02*
X137666628Y-75774999D01*
X138142819Y-76013094D02*
X137142819Y-76013094D01*
X137142819Y-76013094D02*
X137142819Y-75632142D01*
X137142819Y-75632142D02*
X137190438Y-75536904D01*
X137190438Y-75536904D02*
X137238057Y-75489285D01*
X137238057Y-75489285D02*
X137333295Y-75441666D01*
X137333295Y-75441666D02*
X137476152Y-75441666D01*
X137476152Y-75441666D02*
X137571390Y-75489285D01*
X137571390Y-75489285D02*
X137619009Y-75536904D01*
X137619009Y-75536904D02*
X137666628Y-75632142D01*
X137666628Y-75632142D02*
X137666628Y-76013094D01*
X137142819Y-74584523D02*
X137142819Y-74774999D01*
X137142819Y-74774999D02*
X137190438Y-74870237D01*
X137190438Y-74870237D02*
X137238057Y-74917856D01*
X137238057Y-74917856D02*
X137380914Y-75013094D01*
X137380914Y-75013094D02*
X137571390Y-75060713D01*
X137571390Y-75060713D02*
X137952342Y-75060713D01*
X137952342Y-75060713D02*
X138047580Y-75013094D01*
X138047580Y-75013094D02*
X138095200Y-74965475D01*
X138095200Y-74965475D02*
X138142819Y-74870237D01*
X138142819Y-74870237D02*
X138142819Y-74679761D01*
X138142819Y-74679761D02*
X138095200Y-74584523D01*
X138095200Y-74584523D02*
X138047580Y-74536904D01*
X138047580Y-74536904D02*
X137952342Y-74489285D01*
X137952342Y-74489285D02*
X137714247Y-74489285D01*
X137714247Y-74489285D02*
X137619009Y-74536904D01*
X137619009Y-74536904D02*
X137571390Y-74584523D01*
X137571390Y-74584523D02*
X137523771Y-74679761D01*
X137523771Y-74679761D02*
X137523771Y-74870237D01*
X137523771Y-74870237D02*
X137571390Y-74965475D01*
X137571390Y-74965475D02*
X137619009Y-75013094D01*
X137619009Y-75013094D02*
X137714247Y-75060713D01*
X129264580Y-72022166D02*
X129312200Y-72069785D01*
X129312200Y-72069785D02*
X129359819Y-72212642D01*
X129359819Y-72212642D02*
X129359819Y-72307880D01*
X129359819Y-72307880D02*
X129312200Y-72450737D01*
X129312200Y-72450737D02*
X129216961Y-72545975D01*
X129216961Y-72545975D02*
X129121723Y-72593594D01*
X129121723Y-72593594D02*
X128931247Y-72641213D01*
X128931247Y-72641213D02*
X128788390Y-72641213D01*
X128788390Y-72641213D02*
X128597914Y-72593594D01*
X128597914Y-72593594D02*
X128502676Y-72545975D01*
X128502676Y-72545975D02*
X128407438Y-72450737D01*
X128407438Y-72450737D02*
X128359819Y-72307880D01*
X128359819Y-72307880D02*
X128359819Y-72212642D01*
X128359819Y-72212642D02*
X128407438Y-72069785D01*
X128407438Y-72069785D02*
X128455057Y-72022166D01*
X128693152Y-71165023D02*
X129359819Y-71165023D01*
X128312200Y-71403118D02*
X129026485Y-71641213D01*
X129026485Y-71641213D02*
X129026485Y-71022166D01*
X162393333Y-95355580D02*
X162345714Y-95403200D01*
X162345714Y-95403200D02*
X162202857Y-95450819D01*
X162202857Y-95450819D02*
X162107619Y-95450819D01*
X162107619Y-95450819D02*
X161964762Y-95403200D01*
X161964762Y-95403200D02*
X161869524Y-95307961D01*
X161869524Y-95307961D02*
X161821905Y-95212723D01*
X161821905Y-95212723D02*
X161774286Y-95022247D01*
X161774286Y-95022247D02*
X161774286Y-94879390D01*
X161774286Y-94879390D02*
X161821905Y-94688914D01*
X161821905Y-94688914D02*
X161869524Y-94593676D01*
X161869524Y-94593676D02*
X161964762Y-94498438D01*
X161964762Y-94498438D02*
X162107619Y-94450819D01*
X162107619Y-94450819D02*
X162202857Y-94450819D01*
X162202857Y-94450819D02*
X162345714Y-94498438D01*
X162345714Y-94498438D02*
X162393333Y-94546057D01*
X163250476Y-94450819D02*
X163060000Y-94450819D01*
X163060000Y-94450819D02*
X162964762Y-94498438D01*
X162964762Y-94498438D02*
X162917143Y-94546057D01*
X162917143Y-94546057D02*
X162821905Y-94688914D01*
X162821905Y-94688914D02*
X162774286Y-94879390D01*
X162774286Y-94879390D02*
X162774286Y-95260342D01*
X162774286Y-95260342D02*
X162821905Y-95355580D01*
X162821905Y-95355580D02*
X162869524Y-95403200D01*
X162869524Y-95403200D02*
X162964762Y-95450819D01*
X162964762Y-95450819D02*
X163155238Y-95450819D01*
X163155238Y-95450819D02*
X163250476Y-95403200D01*
X163250476Y-95403200D02*
X163298095Y-95355580D01*
X163298095Y-95355580D02*
X163345714Y-95260342D01*
X163345714Y-95260342D02*
X163345714Y-95022247D01*
X163345714Y-95022247D02*
X163298095Y-94927009D01*
X163298095Y-94927009D02*
X163250476Y-94879390D01*
X163250476Y-94879390D02*
X163155238Y-94831771D01*
X163155238Y-94831771D02*
X162964762Y-94831771D01*
X162964762Y-94831771D02*
X162869524Y-94879390D01*
X162869524Y-94879390D02*
X162821905Y-94927009D01*
X162821905Y-94927009D02*
X162774286Y-95022247D01*
D12*
%TO.C,R1*%
X132827500Y-79374276D02*
X132827500Y-79883724D01*
X133872500Y-79374276D02*
X133872500Y-79883724D01*
%TO.C,C2*%
X150475733Y-77595000D02*
X150768267Y-77595000D01*
X150475733Y-78615000D02*
X150768267Y-78615000D01*
D13*
%TO.C,J3*%
X109680500Y-83281000D02*
X121680500Y-83281000D01*
X109680500Y-95281000D02*
X109680500Y-83281000D01*
X121680500Y-83281000D02*
X121680500Y-95281000D01*
X121680500Y-95281000D02*
X109680500Y-95281000D01*
D14*
X109230500Y-85581000D02*
G75*
G02*
X109030500Y-85581000I-100000J0D01*
G01*
X109030500Y-85581000D02*
G75*
G02*
X109230500Y-85581000I100000J0D01*
G01*
D13*
%TO.C,R2*%
X156317000Y-108191000D02*
X155087000Y-108191000D01*
X156317000Y-109741000D02*
X155087000Y-109741000D01*
D12*
%TO.C,C1*%
X150291748Y-79539000D02*
X151714252Y-79539000D01*
X150291748Y-82259000D02*
X151714252Y-82259000D01*
%TO.C,C3*%
X125005000Y-75641252D02*
X125005000Y-74218748D01*
X127725000Y-75641252D02*
X127725000Y-74218748D01*
D13*
%TO.C,R3*%
X161056000Y-108191000D02*
X162286000Y-108191000D01*
X161056000Y-109741000D02*
X162286000Y-109741000D01*
%TO.C,U2*%
X146672300Y-74742000D02*
X146672300Y-71562000D01*
X151523700Y-71562000D02*
X151523700Y-74742000D01*
D14*
X147293000Y-77152000D02*
G75*
G02*
X147093000Y-77152000I-100000J0D01*
G01*
X147093000Y-77152000D02*
G75*
G02*
X147293000Y-77152000I100000J0D01*
G01*
D13*
%TO.C,J1*%
X123777500Y-83281000D02*
X135777500Y-83281000D01*
X123777500Y-95281000D02*
X123777500Y-83281000D01*
X135777500Y-83281000D02*
X135777500Y-95281000D01*
X135777500Y-95281000D02*
X123777500Y-95281000D01*
D14*
X123327500Y-85581000D02*
G75*
G02*
X123127500Y-85581000I-100000J0D01*
G01*
X123127500Y-85581000D02*
G75*
G02*
X123327500Y-85581000I100000J0D01*
G01*
D12*
%TO.C,C5*%
X158095733Y-98042000D02*
X158388267Y-98042000D01*
X158095733Y-99062000D02*
X158388267Y-99062000D01*
D15*
%TO.C,U4*%
X156756100Y-101877347D02*
X156756100Y-104624653D01*
X161759900Y-104624653D02*
X161759900Y-101877347D01*
X156756100Y-102946200D02*
G75*
G02*
X156756100Y-103555800I0J-304800D01*
G01*
D13*
%TO.C,J2*%
X142319500Y-84805000D02*
X154319500Y-84805000D01*
X142319500Y-96805000D02*
X142319500Y-84805000D01*
X154319500Y-84805000D02*
X154319500Y-96805000D01*
X154319500Y-96805000D02*
X142319500Y-96805000D01*
D14*
X141869500Y-87105000D02*
G75*
G02*
X141669500Y-87105000I-100000J0D01*
G01*
X141669500Y-87105000D02*
G75*
G02*
X141869500Y-87105000I100000J0D01*
G01*
D13*
%TO.C,R5*%
X156070000Y-73132000D02*
X156070000Y-71902000D01*
X157620000Y-73132000D02*
X157620000Y-71902000D01*
D11*
%TO.C,U1*%
X130170000Y-71570000D02*
X130170000Y-75720000D01*
X135320000Y-71570000D02*
X135320000Y-75720000D01*
D12*
X135550000Y-71210000D02*
X135220000Y-70970000D01*
X135550000Y-70730000D01*
X135550000Y-71210000D01*
G36*
X135550000Y-71210000D02*
G01*
X135220000Y-70970000D01*
X135550000Y-70730000D01*
X135550000Y-71210000D01*
G37*
D13*
%TO.C,R4*%
X154158000Y-102603000D02*
X152928000Y-102603000D01*
X154158000Y-104153000D02*
X152928000Y-104153000D01*
%TO.C,R6*%
X138798000Y-76815000D02*
X138798000Y-75585000D01*
X140348000Y-76815000D02*
X140348000Y-75585000D01*
D12*
%TO.C,C4*%
X128522000Y-75838267D02*
X128522000Y-75545733D01*
X129542000Y-75838267D02*
X129542000Y-75545733D01*
%TO.C,C6*%
X158292748Y-94144000D02*
X159715252Y-94144000D01*
X158292748Y-96864000D02*
X159715252Y-96864000D01*
%TD*%
M02*
