%TF.GenerationSoftware,KiCad,Pcbnew,9.0.2*%
%TF.CreationDate,2025-11-24T10:29:42-08:00*%
%TF.ProjectId,motor_temperature,6d6f746f-725f-4746-956d-706572617475,A*%
%TF.SameCoordinates,Original*%
%TF.FileFunction,Copper,L2,Bot*%
%TF.FilePolarity,Positive*%
%FSLAX46Y46*%
G04 Gerber Fmt 4.6, Leading zero omitted, Abs format (unit mm)*
G04 Created by KiCad (PCBNEW 9.0.2) date 2025-11-24 10:29:42*
%MOMM*%
%LPD*%
G01*
G04 APERTURE LIST*
%TA.AperFunction,ComponentPad*%
%ADD10R,1.600000X1.600000*%
%TD*%
%TA.AperFunction,ComponentPad*%
%ADD11O,1.600000X1.600000*%
%TD*%
%TA.AperFunction,ComponentPad*%
%ADD12R,1.800000X1.800000*%
%TD*%
%TA.AperFunction,ComponentPad*%
%ADD13C,1.800000*%
%TD*%
%TA.AperFunction,ComponentPad*%
%ADD14C,0.630000*%
%TD*%
%TA.AperFunction,SMDPad,CuDef*%
%ADD15R,3.300000X2.600000*%
%TD*%
%TA.AperFunction,ViaPad*%
%ADD16C,0.406400*%
%TD*%
G04 APERTURE END LIST*
D10*
%TO.P,A1,1,NC*%
%TO.N,unconnected-(A1-NC-Pad1)*%
X126245000Y-66370000D03*
D11*
%TO.P,A1,2,IOREF*%
%TO.N,unconnected-(A1-IOREF-Pad2)*%
X128785000Y-66370000D03*
%TO.P,A1,3,~{RESET}*%
%TO.N,unconnected-(A1-~{RESET}-Pad3)*%
X131325000Y-66370000D03*
%TO.P,A1,4,3V3*%
%TO.N,/3V3*%
X133865000Y-66370000D03*
%TO.P,A1,5,+5V*%
%TO.N,+5V*%
X136405000Y-66370000D03*
%TO.P,A1,6,GND*%
%TO.N,GND*%
X138945000Y-66370000D03*
%TO.P,A1,7,GND*%
X141485000Y-66370000D03*
%TO.P,A1,8,VIN*%
%TO.N,unconnected-(A1-VIN-Pad8)*%
X144025000Y-66370000D03*
%TO.P,A1,9,A0*%
%TO.N,unconnected-(A1-A0-Pad9)*%
X149105000Y-66370000D03*
%TO.P,A1,10,A1*%
%TO.N,unconnected-(A1-A1-Pad10)*%
X151645000Y-66370000D03*
%TO.P,A1,11,A2*%
%TO.N,unconnected-(A1-A2-Pad11)*%
X154185000Y-66370000D03*
%TO.P,A1,12,A3*%
%TO.N,unconnected-(A1-A3-Pad12)*%
X156725000Y-66370000D03*
%TO.P,A1,13,SDA/A4*%
%TO.N,unconnected-(A1-SDA{slash}A4-Pad13)*%
X159265000Y-66370000D03*
%TO.P,A1,14,SCL/A5*%
%TO.N,unconnected-(A1-SCL{slash}A5-Pad14)*%
X161805000Y-66370000D03*
%TO.P,A1,15,D0/RX*%
%TO.N,/UART_RX*%
X161805000Y-114630000D03*
%TO.P,A1,16,D1/TX*%
%TO.N,/UART_TX*%
X159265000Y-114630000D03*
%TO.P,A1,17,D2*%
%TO.N,unconnected-(A1-D2-Pad17)*%
X156725000Y-114630000D03*
%TO.P,A1,18,D3*%
%TO.N,unconnected-(A1-D3-Pad18)*%
X154185000Y-114630000D03*
%TO.P,A1,19,D4*%
%TO.N,unconnected-(A1-D4-Pad19)*%
X151645000Y-114630000D03*
%TO.P,A1,20,D5*%
%TO.N,/IN_A*%
X149105000Y-114630000D03*
%TO.P,A1,21,D6*%
%TO.N,/IN_B*%
X146565000Y-114630000D03*
%TO.P,A1,22,D7*%
%TO.N,unconnected-(A1-D7-Pad22)*%
X144025000Y-114630000D03*
%TO.P,A1,23,D8*%
%TO.N,unconnected-(A1-D8-Pad23)*%
X139965000Y-114630000D03*
%TO.P,A1,24,D9*%
%TO.N,/IN_1*%
X137425000Y-114630000D03*
%TO.P,A1,25,D10*%
%TO.N,/IN_2*%
X134885000Y-114630000D03*
%TO.P,A1,26,D11*%
%TO.N,unconnected-(A1-D11-Pad26)*%
X132345000Y-114630000D03*
%TO.P,A1,27,D12*%
%TO.N,unconnected-(A1-D12-Pad27)*%
X129805000Y-114630000D03*
%TO.P,A1,28,D13*%
%TO.N,unconnected-(A1-D13-Pad28)*%
X127265000Y-114630000D03*
%TO.P,A1,29,GND*%
%TO.N,GND*%
X124725000Y-114630000D03*
%TO.P,A1,30,AREF*%
%TO.N,unconnected-(A1-AREF-Pad30)*%
X122185000Y-114630000D03*
%TO.P,A1,31,SDA/A4*%
%TO.N,unconnected-(A1-SDA{slash}A4-Pad31)*%
X119645000Y-114630000D03*
%TO.P,A1,32,SCL/A5*%
%TO.N,unconnected-(A1-SCL{slash}A5-Pad32)*%
X117105000Y-114630000D03*
%TD*%
D12*
%TO.P,J3,1,1*%
%TO.N,+12V*%
X117629500Y-72119000D03*
D13*
%TO.P,J3,2,2*%
%TO.N,unconnected-(J3-Pad2)*%
X121129500Y-77119000D03*
%TO.P,J3,3,3*%
%TO.N,GND*%
X124629500Y-72119000D03*
%TD*%
D12*
%TO.P,J1,1,1*%
%TO.N,/OUT_1*%
X117502500Y-96376000D03*
D13*
%TO.P,J1,2,2*%
%TO.N,/OUT_2*%
X121002500Y-101376000D03*
%TO.P,J1,3,3*%
%TO.N,unconnected-(J1-Pad3)*%
X124502500Y-96376000D03*
%TD*%
D12*
%TO.P,J2,1,1*%
%TO.N,/OUT_A*%
X146585500Y-87740000D03*
D13*
%TO.P,J2,2,2*%
%TO.N,Net-(U2-OB)*%
X150085500Y-92740000D03*
%TO.P,J2,3,3*%
%TO.N,unconnected-(J2-Pad3)*%
X153585500Y-87740000D03*
%TD*%
D14*
%TO.P,U1,9,GND*%
%TO.N,GND*%
X131796000Y-108473000D03*
X133096000Y-108473000D03*
X134396000Y-108473000D03*
D15*
X133096000Y-107823000D03*
D14*
X131796000Y-107173000D03*
X133096000Y-107173000D03*
X134396000Y-107173000D03*
%TD*%
D16*
%TO.N,GND*%
X135064500Y-99377500D03*
X154178000Y-103632000D03*
X144653000Y-107442000D03*
X132461000Y-99314000D03*
X159639000Y-116332000D03*
X143256000Y-102870000D03*
%TD*%
%TA.AperFunction,Conductor*%
%TO.N,GND*%
G36*
X163917539Y-64220185D02*
G01*
X163963294Y-64272989D01*
X163974500Y-64324500D01*
X163974500Y-66435891D01*
X164008608Y-66563187D01*
X164041554Y-66620250D01*
X164074500Y-66677314D01*
X164074502Y-66677316D01*
X166478181Y-69080995D01*
X166511666Y-69142318D01*
X166514500Y-69168676D01*
X166514500Y-101421324D01*
X166494815Y-101488363D01*
X166478181Y-101509005D01*
X164074502Y-103912683D01*
X164074500Y-103912686D01*
X164008608Y-104026812D01*
X163974500Y-104154108D01*
X163974500Y-115391324D01*
X163954815Y-115458363D01*
X163938181Y-115479005D01*
X162654005Y-116763181D01*
X162592682Y-116796666D01*
X162566324Y-116799500D01*
X98799500Y-116799500D01*
X98732461Y-116779815D01*
X98686706Y-116727011D01*
X98675500Y-116675500D01*
X98675500Y-114527648D01*
X115804500Y-114527648D01*
X115804500Y-114732351D01*
X115836522Y-114934534D01*
X115899781Y-115129223D01*
X115992715Y-115311613D01*
X116113028Y-115477213D01*
X116257786Y-115621971D01*
X116387060Y-115715892D01*
X116423390Y-115742287D01*
X116539607Y-115801503D01*
X116605776Y-115835218D01*
X116605778Y-115835218D01*
X116605781Y-115835220D01*
X116710137Y-115869127D01*
X116800465Y-115898477D01*
X116901557Y-115914488D01*
X117002648Y-115930500D01*
X117002649Y-115930500D01*
X117207351Y-115930500D01*
X117207352Y-115930500D01*
X117409534Y-115898477D01*
X117604219Y-115835220D01*
X117786610Y-115742287D01*
X117879590Y-115674732D01*
X117952213Y-115621971D01*
X117952215Y-115621968D01*
X117952219Y-115621966D01*
X118096966Y-115477219D01*
X118096968Y-115477215D01*
X118096971Y-115477213D01*
X118217284Y-115311614D01*
X118217286Y-115311611D01*
X118217287Y-115311610D01*
X118264516Y-115218917D01*
X118312489Y-115168123D01*
X118380310Y-115151328D01*
X118446445Y-115173865D01*
X118485485Y-115218919D01*
X118532715Y-115311614D01*
X118653028Y-115477213D01*
X118797786Y-115621971D01*
X118927060Y-115715892D01*
X118963390Y-115742287D01*
X119079607Y-115801503D01*
X119145776Y-115835218D01*
X119145778Y-115835218D01*
X119145781Y-115835220D01*
X119250137Y-115869127D01*
X119340465Y-115898477D01*
X119441557Y-115914488D01*
X119542648Y-115930500D01*
X119542649Y-115930500D01*
X119747351Y-115930500D01*
X119747352Y-115930500D01*
X119949534Y-115898477D01*
X120144219Y-115835220D01*
X120326610Y-115742287D01*
X120419590Y-115674732D01*
X120492213Y-115621971D01*
X120492215Y-115621968D01*
X120492219Y-115621966D01*
X120636966Y-115477219D01*
X120636968Y-115477215D01*
X120636971Y-115477213D01*
X120757284Y-115311614D01*
X120757286Y-115311611D01*
X120757287Y-115311610D01*
X120804516Y-115218917D01*
X120852489Y-115168123D01*
X120920310Y-115151328D01*
X120986445Y-115173865D01*
X121025485Y-115218919D01*
X121072715Y-115311614D01*
X121193028Y-115477213D01*
X121337786Y-115621971D01*
X121467060Y-115715892D01*
X121503390Y-115742287D01*
X121619607Y-115801503D01*
X121685776Y-115835218D01*
X121685778Y-115835218D01*
X121685781Y-115835220D01*
X121790137Y-115869127D01*
X121880465Y-115898477D01*
X121981557Y-115914488D01*
X122082648Y-115930500D01*
X122082649Y-115930500D01*
X122287351Y-115930500D01*
X122287352Y-115930500D01*
X122489534Y-115898477D01*
X122684219Y-115835220D01*
X122866610Y-115742287D01*
X122959590Y-115674732D01*
X123032213Y-115621971D01*
X123032215Y-115621968D01*
X123032219Y-115621966D01*
X123176966Y-115477219D01*
X123176968Y-115477215D01*
X123176971Y-115477213D01*
X123297284Y-115311614D01*
X123297286Y-115311611D01*
X123297287Y-115311610D01*
X123344795Y-115218369D01*
X123392770Y-115167574D01*
X123460591Y-115150779D01*
X123526725Y-115173316D01*
X123565765Y-115218370D01*
X123613140Y-115311349D01*
X123733417Y-115476894D01*
X123733417Y-115476895D01*
X123878104Y-115621582D01*
X124043652Y-115741861D01*
X124216999Y-115830185D01*
X124217000Y-115830185D01*
X124217000Y-114564174D01*
X124225000Y-114564174D01*
X124225000Y-114695826D01*
X124259075Y-114822993D01*
X124324901Y-114937007D01*
X124417993Y-115030099D01*
X124532007Y-115095925D01*
X124659174Y-115130000D01*
X124790826Y-115130000D01*
X124917993Y-115095925D01*
X125032007Y-115030099D01*
X125125099Y-114937007D01*
X125190925Y-114822993D01*
X125225000Y-114695826D01*
X125225000Y-114564174D01*
X125190925Y-114437007D01*
X125125099Y-114322993D01*
X125032007Y-114229901D01*
X124917993Y-114164075D01*
X124790826Y-114130000D01*
X124659174Y-114130000D01*
X124532007Y-114164075D01*
X124417993Y-114229901D01*
X124324901Y-114322993D01*
X124259075Y-114437007D01*
X124225000Y-114564174D01*
X124217000Y-114564174D01*
X124217000Y-113429814D01*
X125233000Y-113429814D01*
X125233000Y-115830185D01*
X125406347Y-115741861D01*
X125571894Y-115621582D01*
X125571895Y-115621582D01*
X125716582Y-115476895D01*
X125716582Y-115476894D01*
X125836861Y-115311347D01*
X125884234Y-115218371D01*
X125932208Y-115167575D01*
X126000028Y-115150779D01*
X126066164Y-115173316D01*
X126105203Y-115218369D01*
X126152713Y-115311611D01*
X126273028Y-115477213D01*
X126417786Y-115621971D01*
X126547060Y-115715892D01*
X126583390Y-115742287D01*
X126699607Y-115801503D01*
X126765776Y-115835218D01*
X126765778Y-115835218D01*
X126765781Y-115835220D01*
X126870137Y-115869127D01*
X126960465Y-115898477D01*
X127061557Y-115914488D01*
X127162648Y-115930500D01*
X127162649Y-115930500D01*
X127367351Y-115930500D01*
X127367352Y-115930500D01*
X127569534Y-115898477D01*
X127764219Y-115835220D01*
X127946610Y-115742287D01*
X128039590Y-115674732D01*
X128112213Y-115621971D01*
X128112215Y-115621968D01*
X128112219Y-115621966D01*
X128256966Y-115477219D01*
X128256968Y-115477215D01*
X128256971Y-115477213D01*
X128377284Y-115311614D01*
X128377286Y-115311611D01*
X128377287Y-115311610D01*
X128424516Y-115218917D01*
X128472489Y-115168123D01*
X128540310Y-115151328D01*
X128606445Y-115173865D01*
X128645485Y-115218919D01*
X128692715Y-115311614D01*
X128813028Y-115477213D01*
X128957786Y-115621971D01*
X129087060Y-115715892D01*
X129123390Y-115742287D01*
X129239607Y-115801503D01*
X129305776Y-115835218D01*
X129305778Y-115835218D01*
X129305781Y-115835220D01*
X129410137Y-115869127D01*
X129500465Y-115898477D01*
X129601557Y-115914488D01*
X129702648Y-115930500D01*
X129702649Y-115930500D01*
X129907351Y-115930500D01*
X129907352Y-115930500D01*
X130109534Y-115898477D01*
X130304219Y-115835220D01*
X130486610Y-115742287D01*
X130579590Y-115674732D01*
X130652213Y-115621971D01*
X130652215Y-115621968D01*
X130652219Y-115621966D01*
X130796966Y-115477219D01*
X130796968Y-115477215D01*
X130796971Y-115477213D01*
X130917284Y-115311614D01*
X130917286Y-115311611D01*
X130917287Y-115311610D01*
X130964516Y-115218917D01*
X131012489Y-115168123D01*
X131080310Y-115151328D01*
X131146445Y-115173865D01*
X131185485Y-115218919D01*
X131232715Y-115311614D01*
X131353028Y-115477213D01*
X131497786Y-115621971D01*
X131627060Y-115715892D01*
X131663390Y-115742287D01*
X131779607Y-115801503D01*
X131845776Y-115835218D01*
X131845778Y-115835218D01*
X131845781Y-115835220D01*
X131950137Y-115869127D01*
X132040465Y-115898477D01*
X132141557Y-115914488D01*
X132242648Y-115930500D01*
X132242649Y-115930500D01*
X132447351Y-115930500D01*
X132447352Y-115930500D01*
X132649534Y-115898477D01*
X132844219Y-115835220D01*
X133026610Y-115742287D01*
X133119590Y-115674732D01*
X133192213Y-115621971D01*
X133192215Y-115621968D01*
X133192219Y-115621966D01*
X133336966Y-115477219D01*
X133336968Y-115477215D01*
X133336971Y-115477213D01*
X133457284Y-115311614D01*
X133457286Y-115311611D01*
X133457287Y-115311610D01*
X133504516Y-115218917D01*
X133552489Y-115168123D01*
X133620310Y-115151328D01*
X133686445Y-115173865D01*
X133725485Y-115218919D01*
X133772715Y-115311614D01*
X133893028Y-115477213D01*
X134037786Y-115621971D01*
X134167060Y-115715892D01*
X134203390Y-115742287D01*
X134319607Y-115801503D01*
X134385776Y-115835218D01*
X134385778Y-115835218D01*
X134385781Y-115835220D01*
X134490137Y-115869127D01*
X134580465Y-115898477D01*
X134681557Y-115914488D01*
X134782648Y-115930500D01*
X134782649Y-115930500D01*
X134987351Y-115930500D01*
X134987352Y-115930500D01*
X135189534Y-115898477D01*
X135384219Y-115835220D01*
X135566610Y-115742287D01*
X135659590Y-115674732D01*
X135732213Y-115621971D01*
X135732215Y-115621968D01*
X135732219Y-115621966D01*
X135876966Y-115477219D01*
X135876968Y-115477215D01*
X135876971Y-115477213D01*
X135997284Y-115311614D01*
X135997286Y-115311611D01*
X135997287Y-115311610D01*
X136044516Y-115218917D01*
X136092489Y-115168123D01*
X136160310Y-115151328D01*
X136226445Y-115173865D01*
X136265485Y-115218919D01*
X136312715Y-115311614D01*
X136433028Y-115477213D01*
X136577786Y-115621971D01*
X136707060Y-115715892D01*
X136743390Y-115742287D01*
X136859607Y-115801503D01*
X136925776Y-115835218D01*
X136925778Y-115835218D01*
X136925781Y-115835220D01*
X137030137Y-115869127D01*
X137120465Y-115898477D01*
X137221557Y-115914488D01*
X137322648Y-115930500D01*
X137322649Y-115930500D01*
X137527351Y-115930500D01*
X137527352Y-115930500D01*
X137729534Y-115898477D01*
X137924219Y-115835220D01*
X138106610Y-115742287D01*
X138199590Y-115674732D01*
X138272213Y-115621971D01*
X138272215Y-115621968D01*
X138272219Y-115621966D01*
X138416966Y-115477219D01*
X138416968Y-115477215D01*
X138416971Y-115477213D01*
X138537284Y-115311614D01*
X138537286Y-115311611D01*
X138537287Y-115311610D01*
X138584516Y-115218917D01*
X138632489Y-115168123D01*
X138700310Y-115151328D01*
X138766445Y-115173865D01*
X138805485Y-115218919D01*
X138852715Y-115311614D01*
X138973028Y-115477213D01*
X139117786Y-115621971D01*
X139247060Y-115715892D01*
X139283390Y-115742287D01*
X139399607Y-115801503D01*
X139465776Y-115835218D01*
X139465778Y-115835218D01*
X139465781Y-115835220D01*
X139570137Y-115869127D01*
X139660465Y-115898477D01*
X139761557Y-115914488D01*
X139862648Y-115930500D01*
X139862649Y-115930500D01*
X140067351Y-115930500D01*
X140067352Y-115930500D01*
X140269534Y-115898477D01*
X140464219Y-115835220D01*
X140646610Y-115742287D01*
X140739590Y-115674732D01*
X140812213Y-115621971D01*
X140812215Y-115621968D01*
X140812219Y-115621966D01*
X140956966Y-115477219D01*
X140956968Y-115477215D01*
X140956971Y-115477213D01*
X141019372Y-115391324D01*
X141077287Y-115311610D01*
X141170220Y-115129219D01*
X141233477Y-114934534D01*
X141265500Y-114732352D01*
X141265500Y-114527648D01*
X142724500Y-114527648D01*
X142724500Y-114732351D01*
X142756522Y-114934534D01*
X142819781Y-115129223D01*
X142912715Y-115311613D01*
X143033028Y-115477213D01*
X143177786Y-115621971D01*
X143307060Y-115715892D01*
X143343390Y-115742287D01*
X143459607Y-115801503D01*
X143525776Y-115835218D01*
X143525778Y-115835218D01*
X143525781Y-115835220D01*
X143630137Y-115869127D01*
X143720465Y-115898477D01*
X143821557Y-115914488D01*
X143922648Y-115930500D01*
X143922649Y-115930500D01*
X144127351Y-115930500D01*
X144127352Y-115930500D01*
X144329534Y-115898477D01*
X144524219Y-115835220D01*
X144706610Y-115742287D01*
X144799590Y-115674732D01*
X144872213Y-115621971D01*
X144872215Y-115621968D01*
X144872219Y-115621966D01*
X145016966Y-115477219D01*
X145016968Y-115477215D01*
X145016971Y-115477213D01*
X145137284Y-115311614D01*
X145137286Y-115311611D01*
X145137287Y-115311610D01*
X145184516Y-115218917D01*
X145232489Y-115168123D01*
X145300310Y-115151328D01*
X145366445Y-115173865D01*
X145405485Y-115218919D01*
X145452715Y-115311614D01*
X145573028Y-115477213D01*
X145717786Y-115621971D01*
X145847060Y-115715892D01*
X145883390Y-115742287D01*
X145999607Y-115801503D01*
X146065776Y-115835218D01*
X146065778Y-115835218D01*
X146065781Y-115835220D01*
X146170137Y-115869127D01*
X146260465Y-115898477D01*
X146361557Y-115914488D01*
X146462648Y-115930500D01*
X146462649Y-115930500D01*
X146667351Y-115930500D01*
X146667352Y-115930500D01*
X146869534Y-115898477D01*
X147064219Y-115835220D01*
X147246610Y-115742287D01*
X147339590Y-115674732D01*
X147412213Y-115621971D01*
X147412215Y-115621968D01*
X147412219Y-115621966D01*
X147556966Y-115477219D01*
X147556968Y-115477215D01*
X147556971Y-115477213D01*
X147677284Y-115311614D01*
X147677286Y-115311611D01*
X147677287Y-115311610D01*
X147724516Y-115218917D01*
X147772489Y-115168123D01*
X147840310Y-115151328D01*
X147906445Y-115173865D01*
X147945485Y-115218919D01*
X147992715Y-115311614D01*
X148113028Y-115477213D01*
X148257786Y-115621971D01*
X148387060Y-115715892D01*
X148423390Y-115742287D01*
X148539607Y-115801503D01*
X148605776Y-115835218D01*
X148605778Y-115835218D01*
X148605781Y-115835220D01*
X148710137Y-115869127D01*
X148800465Y-115898477D01*
X148901557Y-115914488D01*
X149002648Y-115930500D01*
X149002649Y-115930500D01*
X149207351Y-115930500D01*
X149207352Y-115930500D01*
X149409534Y-115898477D01*
X149604219Y-115835220D01*
X149786610Y-115742287D01*
X149879590Y-115674732D01*
X149952213Y-115621971D01*
X149952215Y-115621968D01*
X149952219Y-115621966D01*
X150096966Y-115477219D01*
X150096968Y-115477215D01*
X150096971Y-115477213D01*
X150217284Y-115311614D01*
X150217286Y-115311611D01*
X150217287Y-115311610D01*
X150264516Y-115218917D01*
X150312489Y-115168123D01*
X150380310Y-115151328D01*
X150446445Y-115173865D01*
X150485485Y-115218919D01*
X150532715Y-115311614D01*
X150653028Y-115477213D01*
X150797786Y-115621971D01*
X150927060Y-115715892D01*
X150963390Y-115742287D01*
X151079607Y-115801503D01*
X151145776Y-115835218D01*
X151145778Y-115835218D01*
X151145781Y-115835220D01*
X151250137Y-115869127D01*
X151340465Y-115898477D01*
X151441557Y-115914488D01*
X151542648Y-115930500D01*
X151542649Y-115930500D01*
X151747351Y-115930500D01*
X151747352Y-115930500D01*
X151949534Y-115898477D01*
X152144219Y-115835220D01*
X152326610Y-115742287D01*
X152419590Y-115674732D01*
X152492213Y-115621971D01*
X152492215Y-115621968D01*
X152492219Y-115621966D01*
X152636966Y-115477219D01*
X152636968Y-115477215D01*
X152636971Y-115477213D01*
X152757284Y-115311614D01*
X152757286Y-115311611D01*
X152757287Y-115311610D01*
X152804516Y-115218917D01*
X152852489Y-115168123D01*
X152920310Y-115151328D01*
X152986445Y-115173865D01*
X153025485Y-115218919D01*
X153072715Y-115311614D01*
X153193028Y-115477213D01*
X153337786Y-115621971D01*
X153467060Y-115715892D01*
X153503390Y-115742287D01*
X153619607Y-115801503D01*
X153685776Y-115835218D01*
X153685778Y-115835218D01*
X153685781Y-115835220D01*
X153790137Y-115869127D01*
X153880465Y-115898477D01*
X153981557Y-115914488D01*
X154082648Y-115930500D01*
X154082649Y-115930500D01*
X154287351Y-115930500D01*
X154287352Y-115930500D01*
X154489534Y-115898477D01*
X154684219Y-115835220D01*
X154866610Y-115742287D01*
X154959590Y-115674732D01*
X155032213Y-115621971D01*
X155032215Y-115621968D01*
X155032219Y-115621966D01*
X155176966Y-115477219D01*
X155176968Y-115477215D01*
X155176971Y-115477213D01*
X155297284Y-115311614D01*
X155297286Y-115311611D01*
X155297287Y-115311610D01*
X155344516Y-115218917D01*
X155392489Y-115168123D01*
X155460310Y-115151328D01*
X155526445Y-115173865D01*
X155565485Y-115218919D01*
X155612715Y-115311614D01*
X155733028Y-115477213D01*
X155877786Y-115621971D01*
X156007060Y-115715892D01*
X156043390Y-115742287D01*
X156159607Y-115801503D01*
X156225776Y-115835218D01*
X156225778Y-115835218D01*
X156225781Y-115835220D01*
X156330137Y-115869127D01*
X156420465Y-115898477D01*
X156521557Y-115914488D01*
X156622648Y-115930500D01*
X156622649Y-115930500D01*
X156827351Y-115930500D01*
X156827352Y-115930500D01*
X157029534Y-115898477D01*
X157224219Y-115835220D01*
X157406610Y-115742287D01*
X157499590Y-115674732D01*
X157572213Y-115621971D01*
X157572215Y-115621968D01*
X157572219Y-115621966D01*
X157716966Y-115477219D01*
X157716968Y-115477215D01*
X157716971Y-115477213D01*
X157837284Y-115311614D01*
X157837286Y-115311611D01*
X157837287Y-115311610D01*
X157884516Y-115218917D01*
X157932489Y-115168123D01*
X158000310Y-115151328D01*
X158066445Y-115173865D01*
X158105485Y-115218919D01*
X158152715Y-115311614D01*
X158273028Y-115477213D01*
X158417786Y-115621971D01*
X158547060Y-115715892D01*
X158583390Y-115742287D01*
X158699607Y-115801503D01*
X158765776Y-115835218D01*
X158765778Y-115835218D01*
X158765781Y-115835220D01*
X158870137Y-115869127D01*
X158960465Y-115898477D01*
X159061557Y-115914488D01*
X159162648Y-115930500D01*
X159162649Y-115930500D01*
X159367351Y-115930500D01*
X159367352Y-115930500D01*
X159569534Y-115898477D01*
X159764219Y-115835220D01*
X159946610Y-115742287D01*
X160039590Y-115674732D01*
X160112213Y-115621971D01*
X160112215Y-115621968D01*
X160112219Y-115621966D01*
X160256966Y-115477219D01*
X160256968Y-115477215D01*
X160256971Y-115477213D01*
X160377284Y-115311614D01*
X160377286Y-115311611D01*
X160377287Y-115311610D01*
X160424516Y-115218917D01*
X160472489Y-115168123D01*
X160540310Y-115151328D01*
X160606445Y-115173865D01*
X160645485Y-115218919D01*
X160692715Y-115311614D01*
X160813028Y-115477213D01*
X160957786Y-115621971D01*
X161087060Y-115715892D01*
X161123390Y-115742287D01*
X161239607Y-115801503D01*
X161305776Y-115835218D01*
X161305778Y-115835218D01*
X161305781Y-115835220D01*
X161410137Y-115869127D01*
X161500465Y-115898477D01*
X161601557Y-115914488D01*
X161702648Y-115930500D01*
X161702649Y-115930500D01*
X161907351Y-115930500D01*
X161907352Y-115930500D01*
X162109534Y-115898477D01*
X162304219Y-115835220D01*
X162486610Y-115742287D01*
X162579590Y-115674732D01*
X162652213Y-115621971D01*
X162652215Y-115621968D01*
X162652219Y-115621966D01*
X162796966Y-115477219D01*
X162796968Y-115477215D01*
X162796971Y-115477213D01*
X162859372Y-115391324D01*
X162917287Y-115311610D01*
X163010220Y-115129219D01*
X163073477Y-114934534D01*
X163105500Y-114732352D01*
X163105500Y-114527648D01*
X163073477Y-114325466D01*
X163072673Y-114322993D01*
X163010218Y-114130776D01*
X162917419Y-113948650D01*
X162917287Y-113948390D01*
X162909556Y-113937749D01*
X162796971Y-113782786D01*
X162652213Y-113638028D01*
X162486613Y-113517715D01*
X162486612Y-113517714D01*
X162486610Y-113517713D01*
X162429653Y-113488691D01*
X162304223Y-113424781D01*
X162109534Y-113361522D01*
X161934995Y-113333878D01*
X161907352Y-113329500D01*
X161702648Y-113329500D01*
X161678329Y-113333351D01*
X161500465Y-113361522D01*
X161305776Y-113424781D01*
X161123386Y-113517715D01*
X160957786Y-113638028D01*
X160813028Y-113782786D01*
X160692715Y-113948386D01*
X160645485Y-114041080D01*
X160597510Y-114091876D01*
X160529689Y-114108671D01*
X160463554Y-114086134D01*
X160424515Y-114041080D01*
X160377419Y-113948650D01*
X160377287Y-113948390D01*
X160369556Y-113937749D01*
X160256971Y-113782786D01*
X160112213Y-113638028D01*
X159946613Y-113517715D01*
X159946612Y-113517714D01*
X159946610Y-113517713D01*
X159889653Y-113488691D01*
X159764223Y-113424781D01*
X159569534Y-113361522D01*
X159394995Y-113333878D01*
X159367352Y-113329500D01*
X159162648Y-113329500D01*
X159138329Y-113333351D01*
X158960465Y-113361522D01*
X158765776Y-113424781D01*
X158583386Y-113517715D01*
X158417786Y-113638028D01*
X158273028Y-113782786D01*
X158152715Y-113948386D01*
X158105485Y-114041080D01*
X158057510Y-114091876D01*
X157989689Y-114108671D01*
X157923554Y-114086134D01*
X157884515Y-114041080D01*
X157837419Y-113948650D01*
X157837287Y-113948390D01*
X157829556Y-113937749D01*
X157716971Y-113782786D01*
X157572213Y-113638028D01*
X157406613Y-113517715D01*
X157406612Y-113517714D01*
X157406610Y-113517713D01*
X157349653Y-113488691D01*
X157224223Y-113424781D01*
X157029534Y-113361522D01*
X156854995Y-113333878D01*
X156827352Y-113329500D01*
X156622648Y-113329500D01*
X156598329Y-113333351D01*
X156420465Y-113361522D01*
X156225776Y-113424781D01*
X156043386Y-113517715D01*
X155877786Y-113638028D01*
X155733028Y-113782786D01*
X155612715Y-113948386D01*
X155565485Y-114041080D01*
X155517510Y-114091876D01*
X155449689Y-114108671D01*
X155383554Y-114086134D01*
X155344515Y-114041080D01*
X155297419Y-113948650D01*
X155297287Y-113948390D01*
X155289556Y-113937749D01*
X155176971Y-113782786D01*
X155032213Y-113638028D01*
X154866613Y-113517715D01*
X154866612Y-113517714D01*
X154866610Y-113517713D01*
X154809653Y-113488691D01*
X154684223Y-113424781D01*
X154489534Y-113361522D01*
X154314995Y-113333878D01*
X154287352Y-113329500D01*
X154082648Y-113329500D01*
X154058329Y-113333351D01*
X153880465Y-113361522D01*
X153685776Y-113424781D01*
X153503386Y-113517715D01*
X153337786Y-113638028D01*
X153193028Y-113782786D01*
X153072715Y-113948386D01*
X153025485Y-114041080D01*
X152977510Y-114091876D01*
X152909689Y-114108671D01*
X152843554Y-114086134D01*
X152804515Y-114041080D01*
X152757419Y-113948650D01*
X152757287Y-113948390D01*
X152749556Y-113937749D01*
X152636971Y-113782786D01*
X152492213Y-113638028D01*
X152326613Y-113517715D01*
X152326612Y-113517714D01*
X152326610Y-113517713D01*
X152269653Y-113488691D01*
X152144223Y-113424781D01*
X151949534Y-113361522D01*
X151774995Y-113333878D01*
X151747352Y-113329500D01*
X151542648Y-113329500D01*
X151518329Y-113333351D01*
X151340465Y-113361522D01*
X151145776Y-113424781D01*
X150963386Y-113517715D01*
X150797786Y-113638028D01*
X150653028Y-113782786D01*
X150532715Y-113948386D01*
X150485485Y-114041080D01*
X150437510Y-114091876D01*
X150369689Y-114108671D01*
X150303554Y-114086134D01*
X150264515Y-114041080D01*
X150217419Y-113948650D01*
X150217287Y-113948390D01*
X150209556Y-113937749D01*
X150096971Y-113782786D01*
X149952213Y-113638028D01*
X149786613Y-113517715D01*
X149786612Y-113517714D01*
X149786610Y-113517713D01*
X149729653Y-113488691D01*
X149604223Y-113424781D01*
X149409534Y-113361522D01*
X149234995Y-113333878D01*
X149207352Y-113329500D01*
X149002648Y-113329500D01*
X148978329Y-113333351D01*
X148800465Y-113361522D01*
X148605776Y-113424781D01*
X148423386Y-113517715D01*
X148257786Y-113638028D01*
X148113028Y-113782786D01*
X147992715Y-113948386D01*
X147945485Y-114041080D01*
X147897510Y-114091876D01*
X147829689Y-114108671D01*
X147763554Y-114086134D01*
X147724515Y-114041080D01*
X147677419Y-113948650D01*
X147677287Y-113948390D01*
X147669556Y-113937749D01*
X147556971Y-113782786D01*
X147412213Y-113638028D01*
X147246613Y-113517715D01*
X147246612Y-113517714D01*
X147246610Y-113517713D01*
X147189653Y-113488691D01*
X147064223Y-113424781D01*
X146869534Y-113361522D01*
X146694995Y-113333878D01*
X146667352Y-113329500D01*
X146462648Y-113329500D01*
X146438329Y-113333351D01*
X146260465Y-113361522D01*
X146065776Y-113424781D01*
X145883386Y-113517715D01*
X145717786Y-113638028D01*
X145573028Y-113782786D01*
X145452715Y-113948386D01*
X145405485Y-114041080D01*
X145357510Y-114091876D01*
X145289689Y-114108671D01*
X145223554Y-114086134D01*
X145184515Y-114041080D01*
X145137419Y-113948650D01*
X145137287Y-113948390D01*
X145129556Y-113937749D01*
X145016971Y-113782786D01*
X144872213Y-113638028D01*
X144706613Y-113517715D01*
X144706612Y-113517714D01*
X144706610Y-113517713D01*
X144649653Y-113488691D01*
X144524223Y-113424781D01*
X144329534Y-113361522D01*
X144154995Y-113333878D01*
X144127352Y-113329500D01*
X143922648Y-113329500D01*
X143898329Y-113333351D01*
X143720465Y-113361522D01*
X143525776Y-113424781D01*
X143343386Y-113517715D01*
X143177786Y-113638028D01*
X143033028Y-113782786D01*
X142912715Y-113948386D01*
X142819781Y-114130776D01*
X142756522Y-114325465D01*
X142724500Y-114527648D01*
X141265500Y-114527648D01*
X141233477Y-114325466D01*
X141232673Y-114322993D01*
X141170218Y-114130776D01*
X141077419Y-113948650D01*
X141077287Y-113948390D01*
X141069556Y-113937749D01*
X140956971Y-113782786D01*
X140812213Y-113638028D01*
X140646613Y-113517715D01*
X140646612Y-113517714D01*
X140646610Y-113517713D01*
X140589653Y-113488691D01*
X140464223Y-113424781D01*
X140269534Y-113361522D01*
X140094995Y-113333878D01*
X140067352Y-113329500D01*
X139862648Y-113329500D01*
X139838329Y-113333351D01*
X139660465Y-113361522D01*
X139465776Y-113424781D01*
X139283386Y-113517715D01*
X139117786Y-113638028D01*
X138973028Y-113782786D01*
X138852715Y-113948386D01*
X138805485Y-114041080D01*
X138757510Y-114091876D01*
X138689689Y-114108671D01*
X138623554Y-114086134D01*
X138584515Y-114041080D01*
X138537419Y-113948650D01*
X138537287Y-113948390D01*
X138529556Y-113937749D01*
X138416971Y-113782786D01*
X138272213Y-113638028D01*
X138106613Y-113517715D01*
X138106612Y-113517714D01*
X138106610Y-113517713D01*
X138049653Y-113488691D01*
X137924223Y-113424781D01*
X137729534Y-113361522D01*
X137554995Y-113333878D01*
X137527352Y-113329500D01*
X137322648Y-113329500D01*
X137298329Y-113333351D01*
X137120465Y-113361522D01*
X136925776Y-113424781D01*
X136743386Y-113517715D01*
X136577786Y-113638028D01*
X136433028Y-113782786D01*
X136312715Y-113948386D01*
X136265485Y-114041080D01*
X136217510Y-114091876D01*
X136149689Y-114108671D01*
X136083554Y-114086134D01*
X136044515Y-114041080D01*
X135997419Y-113948650D01*
X135997287Y-113948390D01*
X135989556Y-113937749D01*
X135876971Y-113782786D01*
X135732213Y-113638028D01*
X135566613Y-113517715D01*
X135566612Y-113517714D01*
X135566610Y-113517713D01*
X135509653Y-113488691D01*
X135384223Y-113424781D01*
X135189534Y-113361522D01*
X135014995Y-113333878D01*
X134987352Y-113329500D01*
X134782648Y-113329500D01*
X134758329Y-113333351D01*
X134580465Y-113361522D01*
X134385776Y-113424781D01*
X134203386Y-113517715D01*
X134037786Y-113638028D01*
X133893028Y-113782786D01*
X133772715Y-113948386D01*
X133725485Y-114041080D01*
X133677510Y-114091876D01*
X133609689Y-114108671D01*
X133543554Y-114086134D01*
X133504515Y-114041080D01*
X133457419Y-113948650D01*
X133457287Y-113948390D01*
X133449556Y-113937749D01*
X133336971Y-113782786D01*
X133192213Y-113638028D01*
X133026613Y-113517715D01*
X133026612Y-113517714D01*
X133026610Y-113517713D01*
X132969653Y-113488691D01*
X132844223Y-113424781D01*
X132649534Y-113361522D01*
X132474995Y-113333878D01*
X132447352Y-113329500D01*
X132242648Y-113329500D01*
X132218329Y-113333351D01*
X132040465Y-113361522D01*
X131845776Y-113424781D01*
X131663386Y-113517715D01*
X131497786Y-113638028D01*
X131353028Y-113782786D01*
X131232715Y-113948386D01*
X131185485Y-114041080D01*
X131137510Y-114091876D01*
X131069689Y-114108671D01*
X131003554Y-114086134D01*
X130964515Y-114041080D01*
X130917419Y-113948650D01*
X130917287Y-113948390D01*
X130909556Y-113937749D01*
X130796971Y-113782786D01*
X130652213Y-113638028D01*
X130486613Y-113517715D01*
X130486612Y-113517714D01*
X130486610Y-113517713D01*
X130429653Y-113488691D01*
X130304223Y-113424781D01*
X130109534Y-113361522D01*
X129934995Y-113333878D01*
X129907352Y-113329500D01*
X129702648Y-113329500D01*
X129678329Y-113333351D01*
X129500465Y-113361522D01*
X129305776Y-113424781D01*
X129123386Y-113517715D01*
X128957786Y-113638028D01*
X128813028Y-113782786D01*
X128692715Y-113948386D01*
X128645485Y-114041080D01*
X128597510Y-114091876D01*
X128529689Y-114108671D01*
X128463554Y-114086134D01*
X128424515Y-114041080D01*
X128377419Y-113948650D01*
X128377287Y-113948390D01*
X128369556Y-113937749D01*
X128256971Y-113782786D01*
X128112213Y-113638028D01*
X127946613Y-113517715D01*
X127946612Y-113517714D01*
X127946610Y-113517713D01*
X127889653Y-113488691D01*
X127764223Y-113424781D01*
X127569534Y-113361522D01*
X127394995Y-113333878D01*
X127367352Y-113329500D01*
X127162648Y-113329500D01*
X127138329Y-113333351D01*
X126960465Y-113361522D01*
X126765776Y-113424781D01*
X126583386Y-113517715D01*
X126417786Y-113638028D01*
X126273028Y-113782786D01*
X126152713Y-113948388D01*
X126105203Y-114041630D01*
X126057228Y-114092426D01*
X125989407Y-114109220D01*
X125923272Y-114086682D01*
X125884234Y-114041628D01*
X125836861Y-113948652D01*
X125716582Y-113783105D01*
X125716582Y-113783104D01*
X125571895Y-113638417D01*
X125406349Y-113518140D01*
X125233000Y-113429814D01*
X124217000Y-113429814D01*
X124043650Y-113518140D01*
X123878105Y-113638417D01*
X123878104Y-113638417D01*
X123733417Y-113783104D01*
X123733417Y-113783105D01*
X123613140Y-113948650D01*
X123565765Y-114041629D01*
X123517790Y-114092425D01*
X123449969Y-114109220D01*
X123383834Y-114086682D01*
X123344795Y-114041629D01*
X123297419Y-113948650D01*
X123297287Y-113948390D01*
X123289556Y-113937749D01*
X123176971Y-113782786D01*
X123032213Y-113638028D01*
X122866613Y-113517715D01*
X122866612Y-113517714D01*
X122866610Y-113517713D01*
X122809653Y-113488691D01*
X122684223Y-113424781D01*
X122489534Y-113361522D01*
X122314995Y-113333878D01*
X122287352Y-113329500D01*
X122082648Y-113329500D01*
X122058329Y-113333351D01*
X121880465Y-113361522D01*
X121685776Y-113424781D01*
X121503386Y-113517715D01*
X121337786Y-113638028D01*
X121193028Y-113782786D01*
X121072715Y-113948386D01*
X121025485Y-114041080D01*
X120977510Y-114091876D01*
X120909689Y-114108671D01*
X120843554Y-114086134D01*
X120804515Y-114041080D01*
X120757419Y-113948650D01*
X120757287Y-113948390D01*
X120749556Y-113937749D01*
X120636971Y-113782786D01*
X120492213Y-113638028D01*
X120326613Y-113517715D01*
X120326612Y-113517714D01*
X120326610Y-113517713D01*
X120269653Y-113488691D01*
X120144223Y-113424781D01*
X119949534Y-113361522D01*
X119774995Y-113333878D01*
X119747352Y-113329500D01*
X119542648Y-113329500D01*
X119518329Y-113333351D01*
X119340465Y-113361522D01*
X119145776Y-113424781D01*
X118963386Y-113517715D01*
X118797786Y-113638028D01*
X118653028Y-113782786D01*
X118532715Y-113948386D01*
X118485485Y-114041080D01*
X118437510Y-114091876D01*
X118369689Y-114108671D01*
X118303554Y-114086134D01*
X118264515Y-114041080D01*
X118217419Y-113948650D01*
X118217287Y-113948390D01*
X118209556Y-113937749D01*
X118096971Y-113782786D01*
X117952213Y-113638028D01*
X117786613Y-113517715D01*
X117786612Y-113517714D01*
X117786610Y-113517713D01*
X117729653Y-113488691D01*
X117604223Y-113424781D01*
X117409534Y-113361522D01*
X117234995Y-113333878D01*
X117207352Y-113329500D01*
X117002648Y-113329500D01*
X116978329Y-113333351D01*
X116800465Y-113361522D01*
X116605776Y-113424781D01*
X116423386Y-113517715D01*
X116257786Y-113638028D01*
X116113028Y-113782786D01*
X115992715Y-113948386D01*
X115899781Y-114130776D01*
X115836522Y-114325465D01*
X115804500Y-114527648D01*
X98675500Y-114527648D01*
X98675500Y-109170844D01*
X130946000Y-109170844D01*
X130952401Y-109230372D01*
X130952403Y-109230379D01*
X131002645Y-109365086D01*
X131002649Y-109365093D01*
X131088809Y-109480187D01*
X131088812Y-109480190D01*
X131203906Y-109566350D01*
X131203913Y-109566354D01*
X131338620Y-109616596D01*
X131338627Y-109616598D01*
X131398155Y-109622999D01*
X131398172Y-109623000D01*
X132588000Y-109623000D01*
X132588000Y-109301432D01*
X132587999Y-109301431D01*
X133604000Y-109301431D01*
X133604000Y-109623000D01*
X134793828Y-109623000D01*
X134793844Y-109622999D01*
X134853372Y-109616598D01*
X134853379Y-109616596D01*
X134988086Y-109566354D01*
X134988093Y-109566350D01*
X135103187Y-109480190D01*
X135103190Y-109480187D01*
X135189350Y-109365093D01*
X135189354Y-109365086D01*
X135239596Y-109230379D01*
X135239598Y-109230372D01*
X135245999Y-109170844D01*
X135246000Y-109170827D01*
X135246000Y-108331000D01*
X134983477Y-108331000D01*
X134038204Y-109276274D01*
X133976881Y-109309759D01*
X133907189Y-109304775D01*
X133862842Y-109276274D01*
X133746000Y-109159432D01*
X133604000Y-109301431D01*
X132587999Y-109301431D01*
X132446000Y-109159432D01*
X132329158Y-109276274D01*
X132267835Y-109309759D01*
X132198143Y-109304775D01*
X132153796Y-109276274D01*
X131317701Y-108440179D01*
X131631000Y-108440179D01*
X131631000Y-108505821D01*
X131656119Y-108566465D01*
X131702535Y-108612881D01*
X131763179Y-108638000D01*
X131828821Y-108638000D01*
X131889465Y-108612881D01*
X131935881Y-108566465D01*
X131961000Y-108505821D01*
X131961000Y-108473000D01*
X132241478Y-108473000D01*
X132446000Y-108677522D01*
X132587999Y-108535522D01*
X132588000Y-108535521D01*
X132588000Y-108440179D01*
X132931000Y-108440179D01*
X132931000Y-108505821D01*
X132956119Y-108566465D01*
X133002535Y-108612881D01*
X133063179Y-108638000D01*
X133128821Y-108638000D01*
X133189465Y-108612881D01*
X133235881Y-108566465D01*
X133261000Y-108505821D01*
X133261000Y-108440179D01*
X133248697Y-108410477D01*
X133604000Y-108410477D01*
X133604000Y-108535522D01*
X133746000Y-108677522D01*
X133950522Y-108473000D01*
X133917701Y-108440179D01*
X134231000Y-108440179D01*
X134231000Y-108505821D01*
X134256119Y-108566465D01*
X134302535Y-108612881D01*
X134363179Y-108638000D01*
X134428821Y-108638000D01*
X134489465Y-108612881D01*
X134535881Y-108566465D01*
X134561000Y-108505821D01*
X134561000Y-108440179D01*
X134535881Y-108379535D01*
X134489465Y-108333119D01*
X134428821Y-108308000D01*
X134363179Y-108308000D01*
X134302535Y-108333119D01*
X134256119Y-108379535D01*
X134231000Y-108440179D01*
X133917701Y-108440179D01*
X133808522Y-108331000D01*
X133683477Y-108331000D01*
X133604000Y-108410477D01*
X133248697Y-108410477D01*
X133235881Y-108379535D01*
X133189465Y-108333119D01*
X133128821Y-108308000D01*
X133063179Y-108308000D01*
X133002535Y-108333119D01*
X132956119Y-108379535D01*
X132931000Y-108440179D01*
X132588000Y-108440179D01*
X132588000Y-108410478D01*
X132508522Y-108331000D01*
X132383477Y-108331000D01*
X132241478Y-108473000D01*
X131961000Y-108473000D01*
X131961000Y-108440179D01*
X131935881Y-108379535D01*
X131889465Y-108333119D01*
X131828821Y-108308000D01*
X131763179Y-108308000D01*
X131702535Y-108333119D01*
X131656119Y-108379535D01*
X131631000Y-108440179D01*
X131317701Y-108440179D01*
X131208522Y-108331000D01*
X130946000Y-108331000D01*
X130946000Y-109170844D01*
X98675500Y-109170844D01*
X98675500Y-107704110D01*
X98675500Y-107704108D01*
X98641392Y-107576814D01*
X98575500Y-107462686D01*
X98482314Y-107369500D01*
X98425250Y-107336554D01*
X98368187Y-107303608D01*
X98304539Y-107286554D01*
X98240892Y-107269500D01*
X98240891Y-107269500D01*
X92449500Y-107269500D01*
X92382461Y-107249815D01*
X92336706Y-107197011D01*
X92325500Y-107145500D01*
X92325500Y-106475155D01*
X130946000Y-106475155D01*
X130946000Y-107315000D01*
X131208522Y-107315000D01*
X131208522Y-107314999D01*
X131383343Y-107140179D01*
X131631000Y-107140179D01*
X131631000Y-107205821D01*
X131656119Y-107266465D01*
X131702535Y-107312881D01*
X131763179Y-107338000D01*
X131828821Y-107338000D01*
X131889465Y-107312881D01*
X131935881Y-107266465D01*
X131961000Y-107205821D01*
X131961000Y-107173000D01*
X132241478Y-107173000D01*
X132383478Y-107315000D01*
X132508522Y-107315000D01*
X132508522Y-107314999D01*
X132588000Y-107235521D01*
X132588000Y-107140179D01*
X132931000Y-107140179D01*
X132931000Y-107205821D01*
X132956119Y-107266465D01*
X133002535Y-107312881D01*
X133063179Y-107338000D01*
X133128821Y-107338000D01*
X133189465Y-107312881D01*
X133235881Y-107266465D01*
X133261000Y-107205821D01*
X133261000Y-107140179D01*
X133248697Y-107110477D01*
X133604000Y-107110477D01*
X133604000Y-107235522D01*
X133683478Y-107315000D01*
X133808522Y-107315000D01*
X133808522Y-107314999D01*
X133950522Y-107173000D01*
X133917701Y-107140179D01*
X134231000Y-107140179D01*
X134231000Y-107205821D01*
X134256119Y-107266465D01*
X134302535Y-107312881D01*
X134363179Y-107338000D01*
X134428821Y-107338000D01*
X134489465Y-107312881D01*
X134535881Y-107266465D01*
X134561000Y-107205821D01*
X134561000Y-107140179D01*
X134535881Y-107079535D01*
X134489465Y-107033119D01*
X134428821Y-107008000D01*
X134363179Y-107008000D01*
X134302535Y-107033119D01*
X134256119Y-107079535D01*
X134231000Y-107140179D01*
X133917701Y-107140179D01*
X133746000Y-106968478D01*
X133604000Y-107110477D01*
X133248697Y-107110477D01*
X133235881Y-107079535D01*
X133189465Y-107033119D01*
X133128821Y-107008000D01*
X133063179Y-107008000D01*
X133002535Y-107033119D01*
X132956119Y-107079535D01*
X132931000Y-107140179D01*
X132588000Y-107140179D01*
X132588000Y-107110478D01*
X132446000Y-106968478D01*
X132241478Y-107173000D01*
X131961000Y-107173000D01*
X131961000Y-107140179D01*
X131935881Y-107079535D01*
X131889465Y-107033119D01*
X131828821Y-107008000D01*
X131763179Y-107008000D01*
X131702535Y-107033119D01*
X131656119Y-107079535D01*
X131631000Y-107140179D01*
X131383343Y-107140179D01*
X131489565Y-107033957D01*
X132153796Y-106369726D01*
X132215119Y-106336241D01*
X132284811Y-106341225D01*
X132329158Y-106369726D01*
X132446000Y-106486568D01*
X132587999Y-106344568D01*
X133604000Y-106344568D01*
X133746000Y-106486568D01*
X133862842Y-106369726D01*
X133924165Y-106336241D01*
X133993857Y-106341225D01*
X134038204Y-106369726D01*
X134983478Y-107315000D01*
X135246000Y-107315000D01*
X135246000Y-106475172D01*
X135245999Y-106475155D01*
X135239598Y-106415627D01*
X135239596Y-106415620D01*
X135189354Y-106280913D01*
X135189350Y-106280906D01*
X135103190Y-106165812D01*
X135103187Y-106165809D01*
X134988093Y-106079649D01*
X134988086Y-106079645D01*
X134853379Y-106029403D01*
X134853372Y-106029401D01*
X134793844Y-106023000D01*
X133604000Y-106023000D01*
X133604000Y-106344568D01*
X132587999Y-106344568D01*
X132588000Y-106344567D01*
X132588000Y-106023000D01*
X131398155Y-106023000D01*
X131338627Y-106029401D01*
X131338620Y-106029403D01*
X131203913Y-106079645D01*
X131203906Y-106079649D01*
X131088812Y-106165809D01*
X131088809Y-106165812D01*
X131002649Y-106280906D01*
X131002645Y-106280913D01*
X130952403Y-106415620D01*
X130952401Y-106415627D01*
X130946000Y-106475155D01*
X92325500Y-106475155D01*
X92325500Y-101265778D01*
X119602000Y-101265778D01*
X119602000Y-101486222D01*
X119619242Y-101595086D01*
X119636485Y-101703952D01*
X119704603Y-101913603D01*
X119704604Y-101913606D01*
X119804687Y-102110025D01*
X119934252Y-102288358D01*
X119934256Y-102288363D01*
X120090136Y-102444243D01*
X120090141Y-102444247D01*
X120245692Y-102557260D01*
X120268478Y-102573815D01*
X120396875Y-102639237D01*
X120464893Y-102673895D01*
X120464896Y-102673896D01*
X120569721Y-102707955D01*
X120674549Y-102742015D01*
X120892278Y-102776500D01*
X120892279Y-102776500D01*
X121112721Y-102776500D01*
X121112722Y-102776500D01*
X121330451Y-102742015D01*
X121540106Y-102673895D01*
X121736522Y-102573815D01*
X121914865Y-102444242D01*
X122070742Y-102288365D01*
X122200315Y-102110022D01*
X122300395Y-101913606D01*
X122368515Y-101703951D01*
X122403000Y-101486222D01*
X122403000Y-101265778D01*
X122368515Y-101048049D01*
X122300395Y-100838394D01*
X122300395Y-100838393D01*
X122265737Y-100770375D01*
X122200315Y-100641978D01*
X122183760Y-100619192D01*
X122070747Y-100463641D01*
X122070743Y-100463636D01*
X121914863Y-100307756D01*
X121914858Y-100307752D01*
X121736525Y-100178187D01*
X121736524Y-100178186D01*
X121736522Y-100178185D01*
X121673596Y-100146122D01*
X121540106Y-100078104D01*
X121540103Y-100078103D01*
X121330452Y-100009985D01*
X121221586Y-99992742D01*
X121112722Y-99975500D01*
X120892278Y-99975500D01*
X120819701Y-99986995D01*
X120674547Y-100009985D01*
X120464896Y-100078103D01*
X120464893Y-100078104D01*
X120268474Y-100178187D01*
X120090141Y-100307752D01*
X120090136Y-100307756D01*
X119934256Y-100463636D01*
X119934252Y-100463641D01*
X119804687Y-100641974D01*
X119704604Y-100838393D01*
X119704603Y-100838396D01*
X119636485Y-101048047D01*
X119636485Y-101048049D01*
X119602000Y-101265778D01*
X92325500Y-101265778D01*
X92325500Y-96714500D01*
X92345185Y-96647461D01*
X92397989Y-96601706D01*
X92449500Y-96590500D01*
X98240890Y-96590500D01*
X98240892Y-96590500D01*
X98368186Y-96556392D01*
X98482314Y-96490500D01*
X98575500Y-96397314D01*
X98641392Y-96283186D01*
X98675500Y-96155892D01*
X98675500Y-95428135D01*
X116102000Y-95428135D01*
X116102000Y-97323870D01*
X116102001Y-97323876D01*
X116108408Y-97383483D01*
X116158702Y-97518328D01*
X116158706Y-97518335D01*
X116244952Y-97633544D01*
X116244955Y-97633547D01*
X116360164Y-97719793D01*
X116360171Y-97719797D01*
X116495017Y-97770091D01*
X116495016Y-97770091D01*
X116501944Y-97770835D01*
X116554627Y-97776500D01*
X118450372Y-97776499D01*
X118509983Y-97770091D01*
X118644831Y-97719796D01*
X118760046Y-97633546D01*
X118846296Y-97518331D01*
X118896591Y-97383483D01*
X118903000Y-97323873D01*
X118902999Y-96265778D01*
X123102000Y-96265778D01*
X123102000Y-96486222D01*
X123102678Y-96490500D01*
X123136485Y-96703952D01*
X123204603Y-96913603D01*
X123204604Y-96913606D01*
X123304687Y-97110025D01*
X123434252Y-97288358D01*
X123434256Y-97288363D01*
X123590136Y-97444243D01*
X123590141Y-97444247D01*
X123692106Y-97518328D01*
X123768478Y-97573815D01*
X123896875Y-97639237D01*
X123964893Y-97673895D01*
X123964896Y-97673896D01*
X124069721Y-97707955D01*
X124174549Y-97742015D01*
X124392278Y-97776500D01*
X124392279Y-97776500D01*
X124612721Y-97776500D01*
X124612722Y-97776500D01*
X124830451Y-97742015D01*
X125040106Y-97673895D01*
X125236522Y-97573815D01*
X125414865Y-97444242D01*
X125570742Y-97288365D01*
X125700315Y-97110022D01*
X125800395Y-96913606D01*
X125868515Y-96703951D01*
X125903000Y-96486222D01*
X125903000Y-96265778D01*
X125868515Y-96048049D01*
X125800395Y-95838394D01*
X125800395Y-95838393D01*
X125765737Y-95770375D01*
X125700315Y-95641978D01*
X125662188Y-95589500D01*
X125570747Y-95463641D01*
X125570743Y-95463636D01*
X125414863Y-95307756D01*
X125414858Y-95307752D01*
X125236525Y-95178187D01*
X125236524Y-95178186D01*
X125236522Y-95178185D01*
X125119291Y-95118452D01*
X125040106Y-95078104D01*
X125040103Y-95078103D01*
X124830452Y-95009985D01*
X124721586Y-94992742D01*
X124612722Y-94975500D01*
X124392278Y-94975500D01*
X124319701Y-94986995D01*
X124174547Y-95009985D01*
X123964896Y-95078103D01*
X123964893Y-95078104D01*
X123768474Y-95178187D01*
X123590141Y-95307752D01*
X123590136Y-95307756D01*
X123434256Y-95463636D01*
X123434252Y-95463641D01*
X123304687Y-95641974D01*
X123204604Y-95838393D01*
X123204603Y-95838396D01*
X123136485Y-96048047D01*
X123119404Y-96155891D01*
X123102000Y-96265778D01*
X118902999Y-96265778D01*
X118902999Y-95428128D01*
X118896591Y-95368517D01*
X118873929Y-95307758D01*
X118846297Y-95233671D01*
X118846293Y-95233664D01*
X118760047Y-95118455D01*
X118760044Y-95118452D01*
X118644835Y-95032206D01*
X118644828Y-95032202D01*
X118509982Y-94981908D01*
X118509983Y-94981908D01*
X118450383Y-94975501D01*
X118450381Y-94975500D01*
X118450373Y-94975500D01*
X118450364Y-94975500D01*
X116554629Y-94975500D01*
X116554623Y-94975501D01*
X116495016Y-94981908D01*
X116360171Y-95032202D01*
X116360164Y-95032206D01*
X116244955Y-95118452D01*
X116244952Y-95118455D01*
X116158706Y-95233664D01*
X116158702Y-95233671D01*
X116108408Y-95368517D01*
X116102001Y-95428116D01*
X116102001Y-95428123D01*
X116102000Y-95428135D01*
X98675500Y-95428135D01*
X98675500Y-92629778D01*
X148685000Y-92629778D01*
X148685000Y-92850221D01*
X148719485Y-93067952D01*
X148787603Y-93277603D01*
X148787604Y-93277606D01*
X148887687Y-93474025D01*
X149017252Y-93652358D01*
X149017256Y-93652363D01*
X149173136Y-93808243D01*
X149173141Y-93808247D01*
X149328692Y-93921260D01*
X149351478Y-93937815D01*
X149479875Y-94003237D01*
X149547893Y-94037895D01*
X149547896Y-94037896D01*
X149652721Y-94071955D01*
X149757549Y-94106015D01*
X149975278Y-94140500D01*
X149975279Y-94140500D01*
X150195721Y-94140500D01*
X150195722Y-94140500D01*
X150413451Y-94106015D01*
X150623106Y-94037895D01*
X150819522Y-93937815D01*
X150997865Y-93808242D01*
X151153742Y-93652365D01*
X151283315Y-93474022D01*
X151383395Y-93277606D01*
X151451515Y-93067951D01*
X151486000Y-92850222D01*
X151486000Y-92629778D01*
X151451515Y-92412049D01*
X151383395Y-92202394D01*
X151383395Y-92202393D01*
X151348737Y-92134375D01*
X151283315Y-92005978D01*
X151266760Y-91983192D01*
X151153747Y-91827641D01*
X151153743Y-91827636D01*
X150997863Y-91671756D01*
X150997858Y-91671752D01*
X150819525Y-91542187D01*
X150819524Y-91542186D01*
X150819522Y-91542185D01*
X150756596Y-91510122D01*
X150623106Y-91442104D01*
X150623103Y-91442103D01*
X150413452Y-91373985D01*
X150304586Y-91356742D01*
X150195722Y-91339500D01*
X149975278Y-91339500D01*
X149902701Y-91350995D01*
X149757547Y-91373985D01*
X149547896Y-91442103D01*
X149547893Y-91442104D01*
X149351474Y-91542187D01*
X149173141Y-91671752D01*
X149173136Y-91671756D01*
X149017256Y-91827636D01*
X149017252Y-91827641D01*
X148887687Y-92005974D01*
X148787604Y-92202393D01*
X148787603Y-92202396D01*
X148719485Y-92412047D01*
X148685000Y-92629778D01*
X98675500Y-92629778D01*
X98675500Y-86792135D01*
X145185000Y-86792135D01*
X145185000Y-88687870D01*
X145185001Y-88687876D01*
X145191408Y-88747483D01*
X145241702Y-88882328D01*
X145241706Y-88882335D01*
X145327952Y-88997544D01*
X145327955Y-88997547D01*
X145443164Y-89083793D01*
X145443171Y-89083797D01*
X145578017Y-89134091D01*
X145578016Y-89134091D01*
X145584944Y-89134835D01*
X145637627Y-89140500D01*
X147533372Y-89140499D01*
X147592983Y-89134091D01*
X147727831Y-89083796D01*
X147843046Y-88997546D01*
X147929296Y-88882331D01*
X147979591Y-88747483D01*
X147986000Y-88687873D01*
X147985999Y-87629778D01*
X152185000Y-87629778D01*
X152185000Y-87850221D01*
X152219485Y-88067952D01*
X152287603Y-88277603D01*
X152287604Y-88277606D01*
X152387687Y-88474025D01*
X152517252Y-88652358D01*
X152517256Y-88652363D01*
X152673136Y-88808243D01*
X152673141Y-88808247D01*
X152775106Y-88882328D01*
X152851478Y-88937815D01*
X152979875Y-89003237D01*
X153047893Y-89037895D01*
X153047896Y-89037896D01*
X153152721Y-89071955D01*
X153257549Y-89106015D01*
X153475278Y-89140500D01*
X153475279Y-89140500D01*
X153695721Y-89140500D01*
X153695722Y-89140500D01*
X153913451Y-89106015D01*
X154123106Y-89037895D01*
X154319522Y-88937815D01*
X154497865Y-88808242D01*
X154653742Y-88652365D01*
X154783315Y-88474022D01*
X154883395Y-88277606D01*
X154951515Y-88067951D01*
X154986000Y-87850222D01*
X154986000Y-87629778D01*
X154951515Y-87412049D01*
X154883395Y-87202394D01*
X154883395Y-87202393D01*
X154848737Y-87134375D01*
X154783315Y-87005978D01*
X154766760Y-86983192D01*
X154653747Y-86827641D01*
X154653743Y-86827636D01*
X154497863Y-86671756D01*
X154497858Y-86671752D01*
X154319525Y-86542187D01*
X154319524Y-86542186D01*
X154319522Y-86542185D01*
X154202291Y-86482452D01*
X154123106Y-86442104D01*
X154123103Y-86442103D01*
X153913452Y-86373985D01*
X153804586Y-86356742D01*
X153695722Y-86339500D01*
X153475278Y-86339500D01*
X153402701Y-86350995D01*
X153257547Y-86373985D01*
X153047896Y-86442103D01*
X153047893Y-86442104D01*
X152851474Y-86542187D01*
X152673141Y-86671752D01*
X152673136Y-86671756D01*
X152517256Y-86827636D01*
X152517252Y-86827641D01*
X152387687Y-87005974D01*
X152287604Y-87202393D01*
X152287603Y-87202396D01*
X152219485Y-87412047D01*
X152185000Y-87629778D01*
X147985999Y-87629778D01*
X147985999Y-86792128D01*
X147979591Y-86732517D01*
X147956929Y-86671758D01*
X147929297Y-86597671D01*
X147929293Y-86597664D01*
X147843047Y-86482455D01*
X147843044Y-86482452D01*
X147727835Y-86396206D01*
X147727828Y-86396202D01*
X147592982Y-86345908D01*
X147592983Y-86345908D01*
X147533383Y-86339501D01*
X147533381Y-86339500D01*
X147533373Y-86339500D01*
X147533364Y-86339500D01*
X145637629Y-86339500D01*
X145637623Y-86339501D01*
X145578016Y-86345908D01*
X145443171Y-86396202D01*
X145443164Y-86396206D01*
X145327955Y-86482452D01*
X145327952Y-86482455D01*
X145241706Y-86597664D01*
X145241702Y-86597671D01*
X145191408Y-86732517D01*
X145185001Y-86792116D01*
X145185001Y-86792123D01*
X145185000Y-86792135D01*
X98675500Y-86792135D01*
X98675500Y-77008778D01*
X119729000Y-77008778D01*
X119729000Y-77229221D01*
X119763485Y-77446952D01*
X119831603Y-77656603D01*
X119831604Y-77656606D01*
X119931687Y-77853025D01*
X120061252Y-78031358D01*
X120061256Y-78031363D01*
X120217136Y-78187243D01*
X120217141Y-78187247D01*
X120372692Y-78300260D01*
X120395478Y-78316815D01*
X120523875Y-78382237D01*
X120591893Y-78416895D01*
X120591896Y-78416896D01*
X120696721Y-78450955D01*
X120801549Y-78485015D01*
X121019278Y-78519500D01*
X121019279Y-78519500D01*
X121239721Y-78519500D01*
X121239722Y-78519500D01*
X121457451Y-78485015D01*
X121667106Y-78416895D01*
X121863522Y-78316815D01*
X122041865Y-78187242D01*
X122197742Y-78031365D01*
X122327315Y-77853022D01*
X122427395Y-77656606D01*
X122495515Y-77446951D01*
X122530000Y-77229222D01*
X122530000Y-77008778D01*
X122495515Y-76791049D01*
X122427395Y-76581394D01*
X122427395Y-76581393D01*
X122392737Y-76513375D01*
X122327315Y-76384978D01*
X122202502Y-76213186D01*
X122197747Y-76206641D01*
X122197743Y-76206636D01*
X122041863Y-76050756D01*
X122041858Y-76050752D01*
X121863525Y-75921187D01*
X121863524Y-75921186D01*
X121863522Y-75921185D01*
X121800596Y-75889122D01*
X121667106Y-75821104D01*
X121667103Y-75821103D01*
X121457452Y-75752985D01*
X121348586Y-75735742D01*
X121239722Y-75718500D01*
X121019278Y-75718500D01*
X120946701Y-75729995D01*
X120801547Y-75752985D01*
X120591896Y-75821103D01*
X120591893Y-75821104D01*
X120395474Y-75921187D01*
X120217141Y-76050752D01*
X120217136Y-76050756D01*
X120061256Y-76206636D01*
X120061252Y-76206641D01*
X119931687Y-76384974D01*
X119831604Y-76581393D01*
X119831603Y-76581396D01*
X119763485Y-76791047D01*
X119729000Y-77008778D01*
X98675500Y-77008778D01*
X98675500Y-75954108D01*
X98641392Y-75826814D01*
X98575500Y-75712686D01*
X98482314Y-75619500D01*
X98425250Y-75586554D01*
X98368187Y-75553608D01*
X98304539Y-75536554D01*
X98240892Y-75519500D01*
X98240891Y-75519500D01*
X96899500Y-75519500D01*
X96832461Y-75499815D01*
X96786706Y-75447011D01*
X96775500Y-75395500D01*
X96775500Y-71171135D01*
X116229000Y-71171135D01*
X116229000Y-73066870D01*
X116229001Y-73066876D01*
X116235408Y-73126483D01*
X116285702Y-73261328D01*
X116285706Y-73261335D01*
X116371952Y-73376544D01*
X116371955Y-73376547D01*
X116487164Y-73462793D01*
X116487171Y-73462797D01*
X116622017Y-73513091D01*
X116622016Y-73513091D01*
X116628944Y-73513835D01*
X116681627Y-73519500D01*
X118577372Y-73519499D01*
X118636983Y-73513091D01*
X118771831Y-73462796D01*
X118852523Y-73402390D01*
X124064529Y-73402390D01*
X124092089Y-73416432D01*
X124301664Y-73484526D01*
X124519319Y-73519000D01*
X124739681Y-73519000D01*
X124957335Y-73484526D01*
X125166911Y-73416431D01*
X125166918Y-73416428D01*
X125194469Y-73402389D01*
X124629501Y-72837420D01*
X124629500Y-72837420D01*
X124064529Y-73402390D01*
X118852523Y-73402390D01*
X118887046Y-73376546D01*
X118973296Y-73261331D01*
X119023591Y-73126483D01*
X119030000Y-73066873D01*
X119029999Y-72008818D01*
X123229500Y-72008818D01*
X123229500Y-72229181D01*
X123263973Y-72446835D01*
X123332067Y-72656409D01*
X123346108Y-72683968D01*
X123911079Y-72119000D01*
X123911079Y-72118999D01*
X123832089Y-72040009D01*
X124029500Y-72040009D01*
X124029500Y-72197991D01*
X124070389Y-72350591D01*
X124149381Y-72487408D01*
X124261092Y-72599119D01*
X124397909Y-72678111D01*
X124550509Y-72719000D01*
X124708491Y-72719000D01*
X124861091Y-72678111D01*
X124997908Y-72599119D01*
X125109619Y-72487408D01*
X125188611Y-72350591D01*
X125229500Y-72197991D01*
X125229500Y-72119000D01*
X125347920Y-72119000D01*
X125912889Y-72683969D01*
X125926928Y-72656418D01*
X125926931Y-72656411D01*
X125995026Y-72446835D01*
X126029500Y-72229181D01*
X126029500Y-72008818D01*
X125995026Y-71791164D01*
X125926932Y-71581589D01*
X125912889Y-71554029D01*
X125347920Y-72119000D01*
X125229500Y-72119000D01*
X125229500Y-72040009D01*
X125188611Y-71887409D01*
X125109619Y-71750592D01*
X124997908Y-71638881D01*
X124861091Y-71559889D01*
X124708491Y-71519000D01*
X124550509Y-71519000D01*
X124397909Y-71559889D01*
X124261092Y-71638881D01*
X124149381Y-71750592D01*
X124070389Y-71887409D01*
X124029500Y-72040009D01*
X123832089Y-72040009D01*
X123346109Y-71554029D01*
X123346108Y-71554030D01*
X123332071Y-71581581D01*
X123332066Y-71581593D01*
X123263973Y-71791164D01*
X123229500Y-72008818D01*
X119029999Y-72008818D01*
X119029999Y-71171128D01*
X119023591Y-71111517D01*
X118973296Y-70976669D01*
X118973295Y-70976668D01*
X118973293Y-70976664D01*
X118955522Y-70952925D01*
X118887047Y-70861455D01*
X118887044Y-70861452D01*
X118852522Y-70835609D01*
X124064529Y-70835609D01*
X124629500Y-71400579D01*
X124629501Y-71400579D01*
X125194469Y-70835609D01*
X125166909Y-70821567D01*
X124957335Y-70753473D01*
X124739681Y-70719000D01*
X124519319Y-70719000D01*
X124301664Y-70753473D01*
X124092093Y-70821566D01*
X124092081Y-70821571D01*
X124064530Y-70835608D01*
X124064529Y-70835609D01*
X118852522Y-70835609D01*
X118771835Y-70775206D01*
X118771828Y-70775202D01*
X118636982Y-70724908D01*
X118636983Y-70724908D01*
X118577383Y-70718501D01*
X118577381Y-70718500D01*
X118577373Y-70718500D01*
X118577364Y-70718500D01*
X116681629Y-70718500D01*
X116681623Y-70718501D01*
X116622016Y-70724908D01*
X116487171Y-70775202D01*
X116487164Y-70775206D01*
X116371955Y-70861452D01*
X116371952Y-70861455D01*
X116285706Y-70976664D01*
X116285702Y-70976671D01*
X116235408Y-71111517D01*
X116229001Y-71171116D01*
X116229001Y-71171123D01*
X116229000Y-71171135D01*
X96775500Y-71171135D01*
X96775500Y-67504500D01*
X96795185Y-67437461D01*
X96847989Y-67391706D01*
X96899500Y-67380500D01*
X98240890Y-67380500D01*
X98240892Y-67380500D01*
X98368186Y-67346392D01*
X98482314Y-67280500D01*
X98575500Y-67187314D01*
X98641392Y-67073186D01*
X98675500Y-66945892D01*
X98675500Y-65522135D01*
X124944500Y-65522135D01*
X124944500Y-67217870D01*
X124944501Y-67217876D01*
X124950908Y-67277483D01*
X125001202Y-67412328D01*
X125001206Y-67412335D01*
X125087452Y-67527544D01*
X125087455Y-67527547D01*
X125202664Y-67613793D01*
X125202671Y-67613797D01*
X125337517Y-67664091D01*
X125337516Y-67664091D01*
X125344444Y-67664835D01*
X125397127Y-67670500D01*
X127092872Y-67670499D01*
X127152483Y-67664091D01*
X127287331Y-67613796D01*
X127402546Y-67527546D01*
X127488796Y-67412331D01*
X127539091Y-67277483D01*
X127543061Y-67240556D01*
X127569796Y-67176011D01*
X127627188Y-67136161D01*
X127697013Y-67133666D01*
X127757102Y-67169317D01*
X127766667Y-67180929D01*
X127793032Y-67217217D01*
X127937786Y-67361971D01*
X128092749Y-67474556D01*
X128103390Y-67482287D01*
X128192212Y-67527544D01*
X128285776Y-67575218D01*
X128285778Y-67575218D01*
X128285781Y-67575220D01*
X128390137Y-67609127D01*
X128480465Y-67638477D01*
X128581557Y-67654488D01*
X128682648Y-67670500D01*
X128682649Y-67670500D01*
X128887351Y-67670500D01*
X128887352Y-67670500D01*
X129089534Y-67638477D01*
X129284219Y-67575220D01*
X129466610Y-67482287D01*
X129591285Y-67391706D01*
X129632213Y-67361971D01*
X129632215Y-67361968D01*
X129632219Y-67361966D01*
X129776966Y-67217219D01*
X129776968Y-67217215D01*
X129776971Y-67217213D01*
X129897284Y-67051614D01*
X129897286Y-67051611D01*
X129897287Y-67051610D01*
X129944516Y-66958917D01*
X129992489Y-66908123D01*
X130060310Y-66891328D01*
X130126445Y-66913865D01*
X130165485Y-66958919D01*
X130212715Y-67051614D01*
X130333028Y-67217213D01*
X130477786Y-67361971D01*
X130632749Y-67474556D01*
X130643390Y-67482287D01*
X130732212Y-67527544D01*
X130825776Y-67575218D01*
X130825778Y-67575218D01*
X130825781Y-67575220D01*
X130930137Y-67609127D01*
X131020465Y-67638477D01*
X131121557Y-67654488D01*
X131222648Y-67670500D01*
X131222649Y-67670500D01*
X131427351Y-67670500D01*
X131427352Y-67670500D01*
X131629534Y-67638477D01*
X131824219Y-67575220D01*
X132006610Y-67482287D01*
X132131285Y-67391706D01*
X132172213Y-67361971D01*
X132172215Y-67361968D01*
X132172219Y-67361966D01*
X132316966Y-67217219D01*
X132316968Y-67217215D01*
X132316971Y-67217213D01*
X132437284Y-67051614D01*
X132437286Y-67051611D01*
X132437287Y-67051610D01*
X132484516Y-66958917D01*
X132532489Y-66908123D01*
X132600310Y-66891328D01*
X132666445Y-66913865D01*
X132705485Y-66958919D01*
X132752715Y-67051614D01*
X132873028Y-67217213D01*
X133017786Y-67361971D01*
X133172749Y-67474556D01*
X133183390Y-67482287D01*
X133272212Y-67527544D01*
X133365776Y-67575218D01*
X133365778Y-67575218D01*
X133365781Y-67575220D01*
X133470137Y-67609127D01*
X133560465Y-67638477D01*
X133661557Y-67654488D01*
X133762648Y-67670500D01*
X133762649Y-67670500D01*
X133967351Y-67670500D01*
X133967352Y-67670500D01*
X134169534Y-67638477D01*
X134364219Y-67575220D01*
X134546610Y-67482287D01*
X134671285Y-67391706D01*
X134712213Y-67361971D01*
X134712215Y-67361968D01*
X134712219Y-67361966D01*
X134856966Y-67217219D01*
X134856968Y-67217215D01*
X134856971Y-67217213D01*
X134977284Y-67051614D01*
X134977286Y-67051611D01*
X134977287Y-67051610D01*
X135024516Y-66958917D01*
X135072489Y-66908123D01*
X135140310Y-66891328D01*
X135206445Y-66913865D01*
X135245485Y-66958919D01*
X135292715Y-67051614D01*
X135413028Y-67217213D01*
X135557786Y-67361971D01*
X135712749Y-67474556D01*
X135723390Y-67482287D01*
X135812212Y-67527544D01*
X135905776Y-67575218D01*
X135905778Y-67575218D01*
X135905781Y-67575220D01*
X136010137Y-67609127D01*
X136100465Y-67638477D01*
X136201557Y-67654488D01*
X136302648Y-67670500D01*
X136302649Y-67670500D01*
X136507351Y-67670500D01*
X136507352Y-67670500D01*
X136709534Y-67638477D01*
X136904219Y-67575220D01*
X137086610Y-67482287D01*
X137211285Y-67391706D01*
X137252213Y-67361971D01*
X137252215Y-67361968D01*
X137252219Y-67361966D01*
X137396966Y-67217219D01*
X137396968Y-67217215D01*
X137396971Y-67217213D01*
X137517284Y-67051614D01*
X137517286Y-67051611D01*
X137517287Y-67051610D01*
X137564795Y-66958369D01*
X137612770Y-66907574D01*
X137680591Y-66890779D01*
X137746725Y-66913316D01*
X137785765Y-66958370D01*
X137833140Y-67051349D01*
X137953417Y-67216894D01*
X137953417Y-67216895D01*
X138098104Y-67361582D01*
X138263652Y-67481861D01*
X138437000Y-67570185D01*
X138437000Y-66878000D01*
X139453000Y-66878000D01*
X139453000Y-67570185D01*
X139626347Y-67481861D01*
X139791894Y-67361582D01*
X139791895Y-67361582D01*
X139936582Y-67216895D01*
X139936582Y-67216894D01*
X140056861Y-67051347D01*
X140104515Y-66957820D01*
X140152489Y-66907024D01*
X140220310Y-66890228D01*
X140286445Y-66912765D01*
X140325485Y-66957820D01*
X140373138Y-67051347D01*
X140493417Y-67216894D01*
X140493417Y-67216895D01*
X140638104Y-67361582D01*
X140803652Y-67481861D01*
X140976999Y-67570185D01*
X140977000Y-67570185D01*
X140977000Y-66878000D01*
X140215372Y-66878000D01*
X140215372Y-66875144D01*
X140214628Y-66875267D01*
X140214628Y-66878000D01*
X139453000Y-66878000D01*
X138437000Y-66878000D01*
X138437000Y-66304174D01*
X138445000Y-66304174D01*
X138445000Y-66435826D01*
X138479075Y-66562993D01*
X138544901Y-66677007D01*
X138637993Y-66770099D01*
X138752007Y-66835925D01*
X138879174Y-66870000D01*
X139010826Y-66870000D01*
X139137993Y-66835925D01*
X139252007Y-66770099D01*
X139345099Y-66677007D01*
X139410925Y-66562993D01*
X139445000Y-66435826D01*
X139445000Y-66304174D01*
X140985000Y-66304174D01*
X140985000Y-66435826D01*
X141019075Y-66562993D01*
X141084901Y-66677007D01*
X141177993Y-66770099D01*
X141292007Y-66835925D01*
X141419174Y-66870000D01*
X141550826Y-66870000D01*
X141677993Y-66835925D01*
X141792007Y-66770099D01*
X141885099Y-66677007D01*
X141950925Y-66562993D01*
X141985000Y-66435826D01*
X141985000Y-66304174D01*
X141950925Y-66177007D01*
X141885099Y-66062993D01*
X141792007Y-65969901D01*
X141677993Y-65904075D01*
X141550826Y-65870000D01*
X141419174Y-65870000D01*
X141292007Y-65904075D01*
X141177993Y-65969901D01*
X141084901Y-66062993D01*
X141019075Y-66177007D01*
X140985000Y-66304174D01*
X139445000Y-66304174D01*
X139410925Y-66177007D01*
X139345099Y-66062993D01*
X139252007Y-65969901D01*
X139137993Y-65904075D01*
X139010826Y-65870000D01*
X138879174Y-65870000D01*
X138752007Y-65904075D01*
X138637993Y-65969901D01*
X138544901Y-66062993D01*
X138479075Y-66177007D01*
X138445000Y-66304174D01*
X138437000Y-66304174D01*
X138437000Y-65169814D01*
X139453000Y-65169814D01*
X139453000Y-65862000D01*
X140214628Y-65862000D01*
X140214628Y-65864840D01*
X140215372Y-65864716D01*
X140215372Y-65862000D01*
X140977000Y-65862000D01*
X140977000Y-65169814D01*
X141993000Y-65169814D01*
X141993000Y-67570185D01*
X142166347Y-67481861D01*
X142331894Y-67361582D01*
X142331895Y-67361582D01*
X142476582Y-67216895D01*
X142476582Y-67216894D01*
X142596861Y-67051347D01*
X142644234Y-66958371D01*
X142692208Y-66907575D01*
X142760028Y-66890779D01*
X142826164Y-66913316D01*
X142865203Y-66958369D01*
X142912713Y-67051611D01*
X143033028Y-67217213D01*
X143177786Y-67361971D01*
X143332749Y-67474556D01*
X143343390Y-67482287D01*
X143432212Y-67527544D01*
X143525776Y-67575218D01*
X143525778Y-67575218D01*
X143525781Y-67575220D01*
X143630137Y-67609127D01*
X143720465Y-67638477D01*
X143821557Y-67654488D01*
X143922648Y-67670500D01*
X143922649Y-67670500D01*
X144127351Y-67670500D01*
X144127352Y-67670500D01*
X144329534Y-67638477D01*
X144524219Y-67575220D01*
X144706610Y-67482287D01*
X144831285Y-67391706D01*
X144872213Y-67361971D01*
X144872215Y-67361968D01*
X144872219Y-67361966D01*
X145016966Y-67217219D01*
X145016968Y-67217215D01*
X145016971Y-67217213D01*
X145077670Y-67133666D01*
X145137287Y-67051610D01*
X145230220Y-66869219D01*
X145293477Y-66674534D01*
X145325500Y-66472352D01*
X145325500Y-66267648D01*
X147804500Y-66267648D01*
X147804500Y-66472351D01*
X147836522Y-66674534D01*
X147899781Y-66869223D01*
X147992715Y-67051613D01*
X148113028Y-67217213D01*
X148257786Y-67361971D01*
X148412749Y-67474556D01*
X148423390Y-67482287D01*
X148512212Y-67527544D01*
X148605776Y-67575218D01*
X148605778Y-67575218D01*
X148605781Y-67575220D01*
X148710137Y-67609127D01*
X148800465Y-67638477D01*
X148901557Y-67654488D01*
X149002648Y-67670500D01*
X149002649Y-67670500D01*
X149207351Y-67670500D01*
X149207352Y-67670500D01*
X149409534Y-67638477D01*
X149604219Y-67575220D01*
X149786610Y-67482287D01*
X149911285Y-67391706D01*
X149952213Y-67361971D01*
X149952215Y-67361968D01*
X149952219Y-67361966D01*
X150096966Y-67217219D01*
X150096968Y-67217215D01*
X150096971Y-67217213D01*
X150217284Y-67051614D01*
X150217286Y-67051611D01*
X150217287Y-67051610D01*
X150264516Y-66958917D01*
X150312489Y-66908123D01*
X150380310Y-66891328D01*
X150446445Y-66913865D01*
X150485485Y-66958919D01*
X150532715Y-67051614D01*
X150653028Y-67217213D01*
X150797786Y-67361971D01*
X150952749Y-67474556D01*
X150963390Y-67482287D01*
X151052212Y-67527544D01*
X151145776Y-67575218D01*
X151145778Y-67575218D01*
X151145781Y-67575220D01*
X151250137Y-67609127D01*
X151340465Y-67638477D01*
X151441557Y-67654488D01*
X151542648Y-67670500D01*
X151542649Y-67670500D01*
X151747351Y-67670500D01*
X151747352Y-67670500D01*
X151949534Y-67638477D01*
X152144219Y-67575220D01*
X152326610Y-67482287D01*
X152451285Y-67391706D01*
X152492213Y-67361971D01*
X152492215Y-67361968D01*
X152492219Y-67361966D01*
X152636966Y-67217219D01*
X152636968Y-67217215D01*
X152636971Y-67217213D01*
X152757284Y-67051614D01*
X152757286Y-67051611D01*
X152757287Y-67051610D01*
X152804516Y-66958917D01*
X152852489Y-66908123D01*
X152920310Y-66891328D01*
X152986445Y-66913865D01*
X153025485Y-66958919D01*
X153072715Y-67051614D01*
X153193028Y-67217213D01*
X153337786Y-67361971D01*
X153492749Y-67474556D01*
X153503390Y-67482287D01*
X153592212Y-67527544D01*
X153685776Y-67575218D01*
X153685778Y-67575218D01*
X153685781Y-67575220D01*
X153790137Y-67609127D01*
X153880465Y-67638477D01*
X153981557Y-67654488D01*
X154082648Y-67670500D01*
X154082649Y-67670500D01*
X154287351Y-67670500D01*
X154287352Y-67670500D01*
X154489534Y-67638477D01*
X154684219Y-67575220D01*
X154866610Y-67482287D01*
X154991285Y-67391706D01*
X155032213Y-67361971D01*
X155032215Y-67361968D01*
X155032219Y-67361966D01*
X155176966Y-67217219D01*
X155176968Y-67217215D01*
X155176971Y-67217213D01*
X155297284Y-67051614D01*
X155297286Y-67051611D01*
X155297287Y-67051610D01*
X155344516Y-66958917D01*
X155392489Y-66908123D01*
X155460310Y-66891328D01*
X155526445Y-66913865D01*
X155565485Y-66958919D01*
X155612715Y-67051614D01*
X155733028Y-67217213D01*
X155877786Y-67361971D01*
X156032749Y-67474556D01*
X156043390Y-67482287D01*
X156132212Y-67527544D01*
X156225776Y-67575218D01*
X156225778Y-67575218D01*
X156225781Y-67575220D01*
X156330137Y-67609127D01*
X156420465Y-67638477D01*
X156521557Y-67654488D01*
X156622648Y-67670500D01*
X156622649Y-67670500D01*
X156827351Y-67670500D01*
X156827352Y-67670500D01*
X157029534Y-67638477D01*
X157224219Y-67575220D01*
X157406610Y-67482287D01*
X157531285Y-67391706D01*
X157572213Y-67361971D01*
X157572215Y-67361968D01*
X157572219Y-67361966D01*
X157716966Y-67217219D01*
X157716968Y-67217215D01*
X157716971Y-67217213D01*
X157837284Y-67051614D01*
X157837286Y-67051611D01*
X157837287Y-67051610D01*
X157884516Y-66958917D01*
X157932489Y-66908123D01*
X158000310Y-66891328D01*
X158066445Y-66913865D01*
X158105485Y-66958919D01*
X158152715Y-67051614D01*
X158273028Y-67217213D01*
X158417786Y-67361971D01*
X158572749Y-67474556D01*
X158583390Y-67482287D01*
X158672212Y-67527544D01*
X158765776Y-67575218D01*
X158765778Y-67575218D01*
X158765781Y-67575220D01*
X158870137Y-67609127D01*
X158960465Y-67638477D01*
X159061557Y-67654488D01*
X159162648Y-67670500D01*
X159162649Y-67670500D01*
X159367351Y-67670500D01*
X159367352Y-67670500D01*
X159569534Y-67638477D01*
X159764219Y-67575220D01*
X159946610Y-67482287D01*
X160071285Y-67391706D01*
X160112213Y-67361971D01*
X160112215Y-67361968D01*
X160112219Y-67361966D01*
X160256966Y-67217219D01*
X160256968Y-67217215D01*
X160256971Y-67217213D01*
X160377284Y-67051614D01*
X160377286Y-67051611D01*
X160377287Y-67051610D01*
X160424516Y-66958917D01*
X160472489Y-66908123D01*
X160540310Y-66891328D01*
X160606445Y-66913865D01*
X160645485Y-66958919D01*
X160692715Y-67051614D01*
X160813028Y-67217213D01*
X160957786Y-67361971D01*
X161112749Y-67474556D01*
X161123390Y-67482287D01*
X161212212Y-67527544D01*
X161305776Y-67575218D01*
X161305778Y-67575218D01*
X161305781Y-67575220D01*
X161410137Y-67609127D01*
X161500465Y-67638477D01*
X161601557Y-67654488D01*
X161702648Y-67670500D01*
X161702649Y-67670500D01*
X161907351Y-67670500D01*
X161907352Y-67670500D01*
X162109534Y-67638477D01*
X162304219Y-67575220D01*
X162486610Y-67482287D01*
X162611285Y-67391706D01*
X162652213Y-67361971D01*
X162652215Y-67361968D01*
X162652219Y-67361966D01*
X162796966Y-67217219D01*
X162796968Y-67217215D01*
X162796971Y-67217213D01*
X162857670Y-67133666D01*
X162917287Y-67051610D01*
X163010220Y-66869219D01*
X163073477Y-66674534D01*
X163105500Y-66472352D01*
X163105500Y-66267648D01*
X163073477Y-66065466D01*
X163072673Y-66062993D01*
X163010218Y-65870776D01*
X162917419Y-65688650D01*
X162917287Y-65688390D01*
X162909556Y-65677749D01*
X162796971Y-65522786D01*
X162652213Y-65378028D01*
X162486613Y-65257715D01*
X162486612Y-65257714D01*
X162486610Y-65257713D01*
X162429653Y-65228691D01*
X162304223Y-65164781D01*
X162109534Y-65101522D01*
X161934995Y-65073878D01*
X161907352Y-65069500D01*
X161702648Y-65069500D01*
X161678329Y-65073351D01*
X161500465Y-65101522D01*
X161305776Y-65164781D01*
X161123386Y-65257715D01*
X160957786Y-65378028D01*
X160813028Y-65522786D01*
X160692715Y-65688386D01*
X160645485Y-65781080D01*
X160597510Y-65831876D01*
X160529689Y-65848671D01*
X160463554Y-65826134D01*
X160424515Y-65781080D01*
X160377419Y-65688650D01*
X160377287Y-65688390D01*
X160369556Y-65677749D01*
X160256971Y-65522786D01*
X160112213Y-65378028D01*
X159946613Y-65257715D01*
X159946612Y-65257714D01*
X159946610Y-65257713D01*
X159889653Y-65228691D01*
X159764223Y-65164781D01*
X159569534Y-65101522D01*
X159394995Y-65073878D01*
X159367352Y-65069500D01*
X159162648Y-65069500D01*
X159138329Y-65073351D01*
X158960465Y-65101522D01*
X158765776Y-65164781D01*
X158583386Y-65257715D01*
X158417786Y-65378028D01*
X158273028Y-65522786D01*
X158152715Y-65688386D01*
X158105485Y-65781080D01*
X158057510Y-65831876D01*
X157989689Y-65848671D01*
X157923554Y-65826134D01*
X157884515Y-65781080D01*
X157837419Y-65688650D01*
X157837287Y-65688390D01*
X157829556Y-65677749D01*
X157716971Y-65522786D01*
X157572213Y-65378028D01*
X157406613Y-65257715D01*
X157406612Y-65257714D01*
X157406610Y-65257713D01*
X157349653Y-65228691D01*
X157224223Y-65164781D01*
X157029534Y-65101522D01*
X156854995Y-65073878D01*
X156827352Y-65069500D01*
X156622648Y-65069500D01*
X156598329Y-65073351D01*
X156420465Y-65101522D01*
X156225776Y-65164781D01*
X156043386Y-65257715D01*
X155877786Y-65378028D01*
X155733028Y-65522786D01*
X155612715Y-65688386D01*
X155565485Y-65781080D01*
X155517510Y-65831876D01*
X155449689Y-65848671D01*
X155383554Y-65826134D01*
X155344515Y-65781080D01*
X155297419Y-65688650D01*
X155297287Y-65688390D01*
X155289556Y-65677749D01*
X155176971Y-65522786D01*
X155032213Y-65378028D01*
X154866613Y-65257715D01*
X154866612Y-65257714D01*
X154866610Y-65257713D01*
X154809653Y-65228691D01*
X154684223Y-65164781D01*
X154489534Y-65101522D01*
X154314995Y-65073878D01*
X154287352Y-65069500D01*
X154082648Y-65069500D01*
X154058329Y-65073351D01*
X153880465Y-65101522D01*
X153685776Y-65164781D01*
X153503386Y-65257715D01*
X153337786Y-65378028D01*
X153193028Y-65522786D01*
X153072715Y-65688386D01*
X153025485Y-65781080D01*
X152977510Y-65831876D01*
X152909689Y-65848671D01*
X152843554Y-65826134D01*
X152804515Y-65781080D01*
X152757419Y-65688650D01*
X152757287Y-65688390D01*
X152749556Y-65677749D01*
X152636971Y-65522786D01*
X152492213Y-65378028D01*
X152326613Y-65257715D01*
X152326612Y-65257714D01*
X152326610Y-65257713D01*
X152269653Y-65228691D01*
X152144223Y-65164781D01*
X151949534Y-65101522D01*
X151774995Y-65073878D01*
X151747352Y-65069500D01*
X151542648Y-65069500D01*
X151518329Y-65073351D01*
X151340465Y-65101522D01*
X151145776Y-65164781D01*
X150963386Y-65257715D01*
X150797786Y-65378028D01*
X150653028Y-65522786D01*
X150532715Y-65688386D01*
X150485485Y-65781080D01*
X150437510Y-65831876D01*
X150369689Y-65848671D01*
X150303554Y-65826134D01*
X150264515Y-65781080D01*
X150217419Y-65688650D01*
X150217287Y-65688390D01*
X150209556Y-65677749D01*
X150096971Y-65522786D01*
X149952213Y-65378028D01*
X149786613Y-65257715D01*
X149786612Y-65257714D01*
X149786610Y-65257713D01*
X149729653Y-65228691D01*
X149604223Y-65164781D01*
X149409534Y-65101522D01*
X149234995Y-65073878D01*
X149207352Y-65069500D01*
X149002648Y-65069500D01*
X148978329Y-65073351D01*
X148800465Y-65101522D01*
X148605776Y-65164781D01*
X148423386Y-65257715D01*
X148257786Y-65378028D01*
X148113028Y-65522786D01*
X147992715Y-65688386D01*
X147899781Y-65870776D01*
X147836522Y-66065465D01*
X147804500Y-66267648D01*
X145325500Y-66267648D01*
X145293477Y-66065466D01*
X145292673Y-66062993D01*
X145230218Y-65870776D01*
X145137419Y-65688650D01*
X145137287Y-65688390D01*
X145129556Y-65677749D01*
X145016971Y-65522786D01*
X144872213Y-65378028D01*
X144706613Y-65257715D01*
X144706612Y-65257714D01*
X144706610Y-65257713D01*
X144649653Y-65228691D01*
X144524223Y-65164781D01*
X144329534Y-65101522D01*
X144154995Y-65073878D01*
X144127352Y-65069500D01*
X143922648Y-65069500D01*
X143898329Y-65073351D01*
X143720465Y-65101522D01*
X143525776Y-65164781D01*
X143343386Y-65257715D01*
X143177786Y-65378028D01*
X143033028Y-65522786D01*
X142912713Y-65688388D01*
X142865203Y-65781630D01*
X142817228Y-65832426D01*
X142749407Y-65849220D01*
X142683272Y-65826682D01*
X142644234Y-65781628D01*
X142596861Y-65688652D01*
X142476582Y-65523105D01*
X142476582Y-65523104D01*
X142331895Y-65378417D01*
X142166349Y-65258140D01*
X141993000Y-65169814D01*
X140977000Y-65169814D01*
X140803650Y-65258140D01*
X140638105Y-65378417D01*
X140638104Y-65378417D01*
X140493417Y-65523104D01*
X140493417Y-65523105D01*
X140373140Y-65688650D01*
X140325485Y-65782180D01*
X140277511Y-65832976D01*
X140209690Y-65849771D01*
X140143555Y-65827234D01*
X140104515Y-65782180D01*
X140056859Y-65688650D01*
X139936582Y-65523105D01*
X139936582Y-65523104D01*
X139791895Y-65378417D01*
X139626349Y-65258140D01*
X139453000Y-65169814D01*
X138437000Y-65169814D01*
X138263650Y-65258140D01*
X138098105Y-65378417D01*
X138098104Y-65378417D01*
X137953417Y-65523104D01*
X137953417Y-65523105D01*
X137833140Y-65688650D01*
X137785765Y-65781629D01*
X137737790Y-65832425D01*
X137669969Y-65849220D01*
X137603834Y-65826682D01*
X137564795Y-65781629D01*
X137517419Y-65688650D01*
X137517287Y-65688390D01*
X137509556Y-65677749D01*
X137396971Y-65522786D01*
X137252213Y-65378028D01*
X137086613Y-65257715D01*
X137086612Y-65257714D01*
X137086610Y-65257713D01*
X137029653Y-65228691D01*
X136904223Y-65164781D01*
X136709534Y-65101522D01*
X136534995Y-65073878D01*
X136507352Y-65069500D01*
X136302648Y-65069500D01*
X136278329Y-65073351D01*
X136100465Y-65101522D01*
X135905776Y-65164781D01*
X135723386Y-65257715D01*
X135557786Y-65378028D01*
X135413028Y-65522786D01*
X135292715Y-65688386D01*
X135245485Y-65781080D01*
X135197510Y-65831876D01*
X135129689Y-65848671D01*
X135063554Y-65826134D01*
X135024515Y-65781080D01*
X134977419Y-65688650D01*
X134977287Y-65688390D01*
X134969556Y-65677749D01*
X134856971Y-65522786D01*
X134712213Y-65378028D01*
X134546613Y-65257715D01*
X134546612Y-65257714D01*
X134546610Y-65257713D01*
X134489653Y-65228691D01*
X134364223Y-65164781D01*
X134169534Y-65101522D01*
X133994995Y-65073878D01*
X133967352Y-65069500D01*
X133762648Y-65069500D01*
X133738329Y-65073351D01*
X133560465Y-65101522D01*
X133365776Y-65164781D01*
X133183386Y-65257715D01*
X133017786Y-65378028D01*
X132873028Y-65522786D01*
X132752715Y-65688386D01*
X132705485Y-65781080D01*
X132657510Y-65831876D01*
X132589689Y-65848671D01*
X132523554Y-65826134D01*
X132484515Y-65781080D01*
X132437419Y-65688650D01*
X132437287Y-65688390D01*
X132429556Y-65677749D01*
X132316971Y-65522786D01*
X132172213Y-65378028D01*
X132006613Y-65257715D01*
X132006612Y-65257714D01*
X132006610Y-65257713D01*
X131949653Y-65228691D01*
X131824223Y-65164781D01*
X131629534Y-65101522D01*
X131454995Y-65073878D01*
X131427352Y-65069500D01*
X131222648Y-65069500D01*
X131198329Y-65073351D01*
X131020465Y-65101522D01*
X130825776Y-65164781D01*
X130643386Y-65257715D01*
X130477786Y-65378028D01*
X130333028Y-65522786D01*
X130212715Y-65688386D01*
X130165485Y-65781080D01*
X130117510Y-65831876D01*
X130049689Y-65848671D01*
X129983554Y-65826134D01*
X129944515Y-65781080D01*
X129897419Y-65688650D01*
X129897287Y-65688390D01*
X129889556Y-65677749D01*
X129776971Y-65522786D01*
X129632213Y-65378028D01*
X129466613Y-65257715D01*
X129466612Y-65257714D01*
X129466610Y-65257713D01*
X129409653Y-65228691D01*
X129284223Y-65164781D01*
X129089534Y-65101522D01*
X128914995Y-65073878D01*
X128887352Y-65069500D01*
X128682648Y-65069500D01*
X128658329Y-65073351D01*
X128480465Y-65101522D01*
X128285776Y-65164781D01*
X128103386Y-65257715D01*
X127937786Y-65378028D01*
X127793032Y-65522782D01*
X127766668Y-65559070D01*
X127711338Y-65601735D01*
X127641724Y-65607714D01*
X127579929Y-65575108D01*
X127545572Y-65514269D01*
X127543060Y-65499438D01*
X127542640Y-65495533D01*
X127539091Y-65462517D01*
X127488796Y-65327669D01*
X127488795Y-65327668D01*
X127488793Y-65327664D01*
X127402547Y-65212455D01*
X127402544Y-65212452D01*
X127287335Y-65126206D01*
X127287328Y-65126202D01*
X127152482Y-65075908D01*
X127152483Y-65075908D01*
X127092883Y-65069501D01*
X127092881Y-65069500D01*
X127092873Y-65069500D01*
X127092864Y-65069500D01*
X125397129Y-65069500D01*
X125397123Y-65069501D01*
X125337516Y-65075908D01*
X125202671Y-65126202D01*
X125202664Y-65126206D01*
X125087455Y-65212452D01*
X125087452Y-65212455D01*
X125001206Y-65327664D01*
X125001202Y-65327671D01*
X124950908Y-65462517D01*
X124944501Y-65522116D01*
X124944500Y-65522135D01*
X98675500Y-65522135D01*
X98675500Y-64324500D01*
X98695185Y-64257461D01*
X98747989Y-64211706D01*
X98799500Y-64200500D01*
X163850500Y-64200500D01*
X163917539Y-64220185D01*
G37*
%TD.AperFunction*%
%TD*%
M02*
