%TF.GenerationSoftware,KiCad,Pcbnew,9.0.2*%
%TF.CreationDate,2025-11-24T10:29:42-08:00*%
%TF.ProjectId,motor_temperature,6d6f746f-725f-4746-956d-706572617475,A*%
%TF.SameCoordinates,Original*%
%TF.FileFunction,Copper,L1,Top*%
%TF.FilePolarity,Positive*%
%FSLAX46Y46*%
G04 Gerber Fmt 4.6, Leading zero omitted, Abs format (unit mm)*
G04 Created by KiCad (PCBNEW 9.0.2) date 2025-11-24 10:29:42*
%MOMM*%
%LPD*%
G01*
G04 APERTURE LIST*
G04 Aperture macros list*
%AMRoundRect*
0 Rectangle with rounded corners*
0 $1 Rounding radius*
0 $2 $3 $4 $5 $6 $7 $8 $9 X,Y pos of 4 corners*
0 Add a 4 corners polygon primitive as box body*
4,1,4,$2,$3,$4,$5,$6,$7,$8,$9,$2,$3,0*
0 Add four circle primitives for the rounded corners*
1,1,$1+$1,$2,$3*
1,1,$1+$1,$4,$5*
1,1,$1+$1,$6,$7*
1,1,$1+$1,$8,$9*
0 Add four rect primitives between the rounded corners*
20,1,$1+$1,$2,$3,$4,$5,0*
20,1,$1+$1,$4,$5,$6,$7,0*
20,1,$1+$1,$6,$7,$8,$9,0*
20,1,$1+$1,$8,$9,$2,$3,0*%
G04 Aperture macros list end*
%TA.AperFunction,ComponentPad*%
%ADD10R,1.600000X1.600000*%
%TD*%
%TA.AperFunction,ComponentPad*%
%ADD11O,1.600000X1.600000*%
%TD*%
%TA.AperFunction,SMDPad,CuDef*%
%ADD12RoundRect,0.237500X0.237500X-0.250000X0.237500X0.250000X-0.237500X0.250000X-0.237500X-0.250000X0*%
%TD*%
%TA.AperFunction,SMDPad,CuDef*%
%ADD13RoundRect,0.237500X-0.300000X-0.237500X0.300000X-0.237500X0.300000X0.237500X-0.300000X0.237500X0*%
%TD*%
%TA.AperFunction,ComponentPad*%
%ADD14R,1.800000X1.800000*%
%TD*%
%TA.AperFunction,ComponentPad*%
%ADD15C,1.800000*%
%TD*%
%TA.AperFunction,SMDPad,CuDef*%
%ADD16RoundRect,0.250000X-0.412500X-1.100000X0.412500X-1.100000X0.412500X1.100000X-0.412500X1.100000X0*%
%TD*%
%TA.AperFunction,SMDPad,CuDef*%
%ADD17RoundRect,0.250000X1.100000X-0.412500X1.100000X0.412500X-1.100000X0.412500X-1.100000X-0.412500X0*%
%TD*%
%TA.AperFunction,SMDPad,CuDef*%
%ADD18R,1.550000X0.580000*%
%TD*%
%TA.AperFunction,SMDPad,CuDef*%
%ADD19C,0.230000*%
%TD*%
%TA.AperFunction,SMDPad,CuDef*%
%ADD20R,0.500000X2.200000*%
%TD*%
%TA.AperFunction,ComponentPad*%
%ADD21C,0.630000*%
%TD*%
%TA.AperFunction,SMDPad,CuDef*%
%ADD22R,4.900000X2.950000*%
%TD*%
%TA.AperFunction,SMDPad,CuDef*%
%ADD23RoundRect,0.237500X0.237500X-0.300000X0.237500X0.300000X-0.237500X0.300000X-0.237500X-0.300000X0*%
%TD*%
%TA.AperFunction,ViaPad*%
%ADD24C,0.406400*%
%TD*%
%TA.AperFunction,Conductor*%
%ADD25C,0.152400*%
%TD*%
G04 APERTURE END LIST*
D10*
%TO.P,A1,1,NC*%
%TO.N,unconnected-(A1-NC-Pad1)*%
X126245000Y-66370000D03*
D11*
%TO.P,A1,2,IOREF*%
%TO.N,unconnected-(A1-IOREF-Pad2)*%
X128785000Y-66370000D03*
%TO.P,A1,3,~{RESET}*%
%TO.N,unconnected-(A1-~{RESET}-Pad3)*%
X131325000Y-66370000D03*
%TO.P,A1,4,3V3*%
%TO.N,/3V3*%
X133865000Y-66370000D03*
%TO.P,A1,5,+5V*%
%TO.N,+5V*%
X136405000Y-66370000D03*
%TO.P,A1,6,GND*%
%TO.N,GND*%
X138945000Y-66370000D03*
%TO.P,A1,7,GND*%
X141485000Y-66370000D03*
%TO.P,A1,8,VIN*%
%TO.N,unconnected-(A1-VIN-Pad8)*%
X144025000Y-66370000D03*
%TO.P,A1,9,A0*%
%TO.N,unconnected-(A1-A0-Pad9)*%
X149105000Y-66370000D03*
%TO.P,A1,10,A1*%
%TO.N,unconnected-(A1-A1-Pad10)*%
X151645000Y-66370000D03*
%TO.P,A1,11,A2*%
%TO.N,unconnected-(A1-A2-Pad11)*%
X154185000Y-66370000D03*
%TO.P,A1,12,A3*%
%TO.N,unconnected-(A1-A3-Pad12)*%
X156725000Y-66370000D03*
%TO.P,A1,13,SDA/A4*%
%TO.N,unconnected-(A1-SDA{slash}A4-Pad13)*%
X159265000Y-66370000D03*
%TO.P,A1,14,SCL/A5*%
%TO.N,unconnected-(A1-SCL{slash}A5-Pad14)*%
X161805000Y-66370000D03*
%TO.P,A1,15,D0/RX*%
%TO.N,/UART_RX*%
X161805000Y-114630000D03*
%TO.P,A1,16,D1/TX*%
%TO.N,/UART_TX*%
X159265000Y-114630000D03*
%TO.P,A1,17,D2*%
%TO.N,unconnected-(A1-D2-Pad17)*%
X156725000Y-114630000D03*
%TO.P,A1,18,D3*%
%TO.N,unconnected-(A1-D3-Pad18)*%
X154185000Y-114630000D03*
%TO.P,A1,19,D4*%
%TO.N,unconnected-(A1-D4-Pad19)*%
X151645000Y-114630000D03*
%TO.P,A1,20,D5*%
%TO.N,/IN_A*%
X149105000Y-114630000D03*
%TO.P,A1,21,D6*%
%TO.N,/IN_B*%
X146565000Y-114630000D03*
%TO.P,A1,22,D7*%
%TO.N,unconnected-(A1-D7-Pad22)*%
X144025000Y-114630000D03*
%TO.P,A1,23,D8*%
%TO.N,unconnected-(A1-D8-Pad23)*%
X139965000Y-114630000D03*
%TO.P,A1,24,D9*%
%TO.N,/IN_1*%
X137425000Y-114630000D03*
%TO.P,A1,25,D10*%
%TO.N,/IN_2*%
X134885000Y-114630000D03*
%TO.P,A1,26,D11*%
%TO.N,unconnected-(A1-D11-Pad26)*%
X132345000Y-114630000D03*
%TO.P,A1,27,D12*%
%TO.N,unconnected-(A1-D12-Pad27)*%
X129805000Y-114630000D03*
%TO.P,A1,28,D13*%
%TO.N,unconnected-(A1-D13-Pad28)*%
X127265000Y-114630000D03*
%TO.P,A1,29,GND*%
%TO.N,GND*%
X124725000Y-114630000D03*
%TO.P,A1,30,AREF*%
%TO.N,unconnected-(A1-AREF-Pad30)*%
X122185000Y-114630000D03*
%TO.P,A1,31,SDA/A4*%
%TO.N,unconnected-(A1-SDA{slash}A4-Pad31)*%
X119645000Y-114630000D03*
%TO.P,A1,32,SCL/A5*%
%TO.N,unconnected-(A1-SCL{slash}A5-Pad32)*%
X117105000Y-114630000D03*
%TD*%
D12*
%TO.P,R1,1*%
%TO.N,Net-(U1-ISEN)*%
X132461000Y-102512500D03*
%TO.P,R1,2*%
%TO.N,GND*%
X132461000Y-100687500D03*
%TD*%
D13*
%TO.P,C2,1*%
%TO.N,+5V*%
X152299500Y-104775000D03*
%TO.P,C2,2*%
%TO.N,GND*%
X154024500Y-104775000D03*
%TD*%
D14*
%TO.P,J3,1,1*%
%TO.N,+12V*%
X117629500Y-72119000D03*
D15*
%TO.P,J3,2,2*%
%TO.N,unconnected-(J3-Pad2)*%
X121129500Y-77119000D03*
%TO.P,J3,3,3*%
%TO.N,GND*%
X124629500Y-72119000D03*
%TD*%
D16*
%TO.P,C1,1*%
%TO.N,+5V*%
X152742500Y-101981000D03*
%TO.P,C1,2*%
%TO.N,GND*%
X155867500Y-101981000D03*
%TD*%
D17*
%TO.P,C3,1*%
%TO.N,+12V*%
X137922000Y-102400500D03*
%TO.P,C3,2*%
%TO.N,GND*%
X137922000Y-99275500D03*
%TD*%
D18*
%TO.P,U2,1,OA*%
%TO.N,/OUT_A*%
X150000000Y-106680000D03*
%TO.P,U2,2,VCC*%
%TO.N,+5V*%
X150000000Y-105410000D03*
%TO.P,U2,3,VCC*%
X150000000Y-104140000D03*
%TO.P,U2,4,OB*%
%TO.N,Net-(U2-OB)*%
X150000000Y-102870000D03*
%TO.P,U2,5,GND*%
%TO.N,GND*%
X144640000Y-102870000D03*
%TO.P,U2,6,IA*%
%TO.N,/IN_A*%
X144640000Y-104140000D03*
%TO.P,U2,7,IB*%
%TO.N,/IN_B*%
X144640000Y-105410000D03*
%TO.P,U2,8,GND*%
%TO.N,GND*%
X144640000Y-106680000D03*
%TD*%
D14*
%TO.P,J1,1,1*%
%TO.N,/OUT_1*%
X117502500Y-96376000D03*
D15*
%TO.P,J1,2,2*%
%TO.N,/OUT_2*%
X121002500Y-101376000D03*
%TO.P,J1,3,3*%
%TO.N,unconnected-(J1-Pad3)*%
X124502500Y-96376000D03*
%TD*%
D19*
%TO.P,U3,A1,V+*%
%TO.N,/3V3*%
X160782000Y-116151000D03*
%TO.P,U3,A2,GND*%
%TO.N,GND*%
X160382000Y-116151000D03*
%TO.P,U3,B1,TX*%
%TO.N,/UART_RX*%
X160782000Y-115750998D03*
%TO.P,U3,B2,RX*%
%TO.N,/UART_TX*%
X160382000Y-115750998D03*
%TD*%
D14*
%TO.P,J2,1,1*%
%TO.N,/OUT_A*%
X146585500Y-87740000D03*
D15*
%TO.P,J2,2,2*%
%TO.N,Net-(U2-OB)*%
X150085500Y-92740000D03*
%TO.P,J2,3,3*%
%TO.N,unconnected-(J2-Pad3)*%
X153585500Y-87740000D03*
%TD*%
D20*
%TO.P,U1,1,GND*%
%TO.N,GND*%
X131191000Y-110698000D03*
%TO.P,U1,2,IN2*%
%TO.N,/IN_2*%
X132461000Y-110698000D03*
%TO.P,U1,3,IN1*%
%TO.N,/IN_1*%
X133731000Y-110698000D03*
%TO.P,U1,4,VREF*%
%TO.N,/3V3*%
X135001000Y-110698000D03*
%TO.P,U1,5,VM*%
%TO.N,+12V*%
X135001000Y-104948000D03*
%TO.P,U1,6,OUT1*%
%TO.N,/OUT_1*%
X133731000Y-104948000D03*
%TO.P,U1,7,ISEN*%
%TO.N,Net-(U1-ISEN)*%
X132461000Y-104948000D03*
%TO.P,U1,8,OUT2*%
%TO.N,/OUT_2*%
X131191000Y-104948000D03*
D21*
%TO.P,U1,9,GND*%
%TO.N,GND*%
X131796000Y-108473000D03*
X133096000Y-108473000D03*
X134396000Y-108473000D03*
D22*
X133096000Y-107823000D03*
D21*
X131796000Y-107173000D03*
X133096000Y-107173000D03*
X134396000Y-107173000D03*
%TD*%
D23*
%TO.P,C4,1*%
%TO.N,+12V*%
X135001000Y-102616000D03*
%TO.P,C4,2*%
%TO.N,GND*%
X135001000Y-100891000D03*
%TD*%
D24*
%TO.N,GND*%
X135064500Y-99377500D03*
X154178000Y-103632000D03*
X144653000Y-107442000D03*
X132461000Y-99314000D03*
X159639000Y-116332000D03*
X143256000Y-102870000D03*
%TD*%
D25*
%TO.N,/OUT_A*%
X146585500Y-95095500D02*
X146585500Y-87740000D01*
X147701000Y-106045000D02*
X147701000Y-96202500D01*
X147701000Y-96202500D02*
X146589750Y-95091250D01*
X148336000Y-106680000D02*
X147701000Y-106045000D01*
X146589750Y-95091250D02*
X146585500Y-95095500D01*
X150000000Y-106680000D02*
X148336000Y-106680000D01*
%TO.N,+5V*%
X152742500Y-91782500D02*
X152742500Y-101981000D01*
X151003000Y-90043000D02*
X152742500Y-91782500D01*
X151003000Y-86360000D02*
X151003000Y-90043000D01*
X136398000Y-71755000D02*
X151003000Y-86360000D01*
X136398000Y-69469000D02*
X136398000Y-71755000D01*
%TO.N,GND*%
X131191000Y-109728000D02*
X133096000Y-107823000D01*
X131191000Y-110698000D02*
X131191000Y-109728000D01*
%TO.N,/IN_B*%
X143002000Y-109601000D02*
X143002000Y-105410000D01*
X146565000Y-113164000D02*
X143002000Y-109601000D01*
X143002000Y-105410000D02*
X144640000Y-105410000D01*
X146565000Y-114630000D02*
X146565000Y-113164000D01*
%TO.N,GND*%
X160201000Y-116332000D02*
X159639000Y-116332000D01*
X154051000Y-103759000D02*
X154178000Y-103632000D01*
X137922000Y-99275500D02*
X135166500Y-99275500D01*
X135166500Y-99275500D02*
X135064500Y-99377500D01*
X154024500Y-103785500D02*
X154051000Y-103759000D01*
X134797500Y-100687500D02*
X135001000Y-100891000D01*
X154024500Y-104775000D02*
X154024500Y-103785500D01*
X160382000Y-116151000D02*
X160201000Y-116332000D01*
X132461000Y-99314000D02*
X132461000Y-99441000D01*
X144640000Y-106680000D02*
X144640000Y-107429000D01*
X135064500Y-99377500D02*
X135001000Y-99441000D01*
X144640000Y-102870000D02*
X143256000Y-102870000D01*
X132461000Y-100687500D02*
X132461000Y-99314000D01*
X154216500Y-103632000D02*
X155867500Y-101981000D01*
X144640000Y-107429000D02*
X144653000Y-107442000D01*
X135001000Y-100891000D02*
X135001000Y-99441000D01*
X154178000Y-103632000D02*
X154216500Y-103632000D01*
%TO.N,/IN_A*%
X145796000Y-104140000D02*
X144640000Y-104140000D01*
X149105000Y-112656000D02*
X146431000Y-109982000D01*
X149105000Y-114630000D02*
X149105000Y-112656000D01*
X146431000Y-104775000D02*
X145796000Y-104140000D01*
X146431000Y-109982000D02*
X146431000Y-104775000D01*
%TO.N,/UART_TX*%
X159265000Y-114633998D02*
X159265000Y-114630000D01*
X160382000Y-115750998D02*
X159265000Y-114633998D01*
%TO.N,/IN_1*%
X137414000Y-112776000D02*
X137425000Y-112787000D01*
X133731000Y-112268000D02*
X134112000Y-112649000D01*
X134112000Y-112649000D02*
X137414000Y-112649000D01*
X137425000Y-112787000D02*
X137425000Y-114630000D01*
X137414000Y-112649000D02*
X137414000Y-112776000D01*
X133731000Y-110698000D02*
X133731000Y-112268000D01*
%TO.N,/3V3*%
X147193000Y-66675000D02*
X145034000Y-64516000D01*
X133865000Y-72397000D02*
X138176000Y-76708000D01*
X139746000Y-110698000D02*
X135001000Y-110698000D01*
X160963000Y-116332000D02*
X162560000Y-116332000D01*
X163576000Y-78232000D02*
X149606000Y-78232000D01*
X138176000Y-76708000D02*
X138176000Y-94742000D01*
X133865000Y-66370000D02*
X133865000Y-72397000D01*
X162560000Y-116332000D02*
X163576000Y-115316000D01*
X160782000Y-116151000D02*
X160963000Y-116332000D01*
X140589000Y-97155000D02*
X140589000Y-109855000D01*
X149606000Y-78232000D02*
X147193000Y-75819000D01*
X134366000Y-64516000D02*
X133858000Y-65024000D01*
X147193000Y-75819000D02*
X147193000Y-66675000D01*
X133865000Y-65031000D02*
X133865000Y-66370000D01*
X145034000Y-64516000D02*
X134366000Y-64516000D01*
X163576000Y-115316000D02*
X163576000Y-78232000D01*
X133858000Y-65024000D02*
X133865000Y-65031000D01*
X140589000Y-109855000D02*
X139746000Y-110698000D01*
X138176000Y-94742000D02*
X140589000Y-97155000D01*
%TO.N,/UART_RX*%
X160782000Y-115750998D02*
X161805000Y-114727998D01*
X161805000Y-114727998D02*
X161805000Y-114630000D01*
%TO.N,/IN_2*%
X132461000Y-112776000D02*
X132461000Y-110698000D01*
X133666000Y-113411000D02*
X133096000Y-113411000D01*
X133096000Y-113411000D02*
X132461000Y-112776000D01*
X134885000Y-114630000D02*
X133666000Y-113411000D01*
%TO.N,+12V*%
X135001000Y-102616000D02*
X135001000Y-104948000D01*
X123571000Y-74041000D02*
X121649000Y-72119000D01*
X135001000Y-102616000D02*
X133985000Y-101600000D01*
X121649000Y-72119000D02*
X117629500Y-72119000D01*
X137706500Y-102616000D02*
X137922000Y-102400500D01*
X135001000Y-102616000D02*
X137706500Y-102616000D01*
X133985000Y-101600000D02*
X133985000Y-75946000D01*
X134112000Y-75819000D02*
X132334000Y-74041000D01*
X133985000Y-75946000D02*
X134112000Y-75819000D01*
X132334000Y-74041000D02*
X123571000Y-74041000D01*
%TO.N,/OUT_1*%
X133604000Y-104821000D02*
X133604000Y-98933000D01*
X133731000Y-104948000D02*
X133604000Y-104821000D01*
X133604000Y-98933000D02*
X129159000Y-94488000D01*
X117502500Y-94515500D02*
X117502500Y-96376000D01*
X129159000Y-94488000D02*
X117475000Y-94488000D01*
%TO.N,/OUT_2*%
X131191000Y-104948000D02*
X131191000Y-103251000D01*
X122877500Y-103251000D02*
X121002500Y-101376000D01*
X131191000Y-103251000D02*
X122877500Y-103251000D01*
%TO.N,Net-(U2-OB)*%
X150000000Y-102870000D02*
X150000000Y-92825500D01*
X150000000Y-92825500D02*
X150085500Y-92740000D01*
%TO.N,Net-(U1-ISEN)*%
X132461000Y-102512500D02*
X132461000Y-104948000D01*
%TO.N,+5V*%
X151664500Y-104140000D02*
X152299500Y-104775000D01*
X136405000Y-66370000D02*
X136405000Y-69476000D01*
X151664500Y-103059000D02*
X151664500Y-104140000D01*
X150000000Y-105410000D02*
X150000000Y-104140000D01*
X150000000Y-104140000D02*
X151664500Y-104140000D01*
X152742500Y-101981000D02*
X151664500Y-103059000D01*
%TD*%
M02*
