%TF.GenerationSoftware,KiCad,Pcbnew,9.0.2*%
%TF.CreationDate,2025-12-29T08:51:12-08:00*%
%TF.ProjectId,motor_temperature,6d6f746f-725f-4746-956d-706572617475,A*%
%TF.SameCoordinates,Original*%
%TF.FileFunction,Copper,L2,Bot*%
%TF.FilePolarity,Positive*%
%FSLAX46Y46*%
G04 Gerber Fmt 4.6, Leading zero omitted, Abs format (unit mm)*
G04 Created by KiCad (PCBNEW 9.0.2) date 2025-12-29 08:51:12*
%MOMM*%
%LPD*%
G01*
G04 APERTURE LIST*
%TA.AperFunction,ComponentPad*%
%ADD10R,1.800000X1.800000*%
%TD*%
%TA.AperFunction,ComponentPad*%
%ADD11C,1.800000*%
%TD*%
%TA.AperFunction,ComponentPad*%
%ADD12C,0.630000*%
%TD*%
%TA.AperFunction,SMDPad,CuDef*%
%ADD13R,3.300000X2.600000*%
%TD*%
%TA.AperFunction,ComponentPad*%
%ADD14R,1.600000X1.600000*%
%TD*%
%TA.AperFunction,ComponentPad*%
%ADD15O,1.600000X1.600000*%
%TD*%
%TA.AperFunction,ViaPad*%
%ADD16C,0.600000*%
%TD*%
%TA.AperFunction,ViaPad*%
%ADD17C,0.406400*%
%TD*%
G04 APERTURE END LIST*
D10*
%TO.P,J3,1,1*%
%TO.N,+12V*%
X112930500Y-85581000D03*
D11*
%TO.P,J3,2,2*%
%TO.N,unconnected-(J3-Pad2)*%
X116430500Y-90581000D03*
%TO.P,J3,3,3*%
%TO.N,GND*%
X119930500Y-85581000D03*
%TD*%
D10*
%TO.P,J1,1,1*%
%TO.N,/OUT_1*%
X127027500Y-85581000D03*
D11*
%TO.P,J1,2,2*%
%TO.N,/OUT_2*%
X130527500Y-90581000D03*
%TO.P,J1,3,3*%
%TO.N,/TACH1a*%
X134027500Y-85581000D03*
%TD*%
D10*
%TO.P,J2,1,1*%
%TO.N,/OUT_A*%
X145569500Y-87105000D03*
D11*
%TO.P,J2,2,2*%
%TO.N,/OUT_B*%
X149069500Y-92105000D03*
%TO.P,J2,3,3*%
%TO.N,/TACHCa*%
X152569500Y-87105000D03*
%TD*%
D12*
%TO.P,U1,9,GND*%
%TO.N,GND*%
X134045000Y-72995000D03*
X132745000Y-72995000D03*
X131445000Y-72995000D03*
D13*
X132745000Y-73645000D03*
D12*
X134045000Y-74295000D03*
X132745000Y-74295000D03*
X131445000Y-74295000D03*
%TD*%
D14*
%TO.P,A1,1,NC*%
%TO.N,unconnected-(A1-NC-Pad1)*%
X126365000Y-114427000D03*
D15*
%TO.P,A1,2,IOREF*%
%TO.N,unconnected-(A1-IOREF-Pad2)*%
X128905000Y-114427000D03*
%TO.P,A1,3,~{RESET}*%
%TO.N,unconnected-(A1-~{RESET}-Pad3)*%
X131445000Y-114427000D03*
%TO.P,A1,4,3V3*%
%TO.N,/UART_3V3*%
X133985000Y-114427000D03*
%TO.P,A1,5,+5V*%
%TO.N,+5V*%
X136525000Y-114427000D03*
%TO.P,A1,6,GND*%
%TO.N,GND*%
X139065000Y-114427000D03*
%TO.P,A1,7,GND*%
X141605000Y-114427000D03*
%TO.P,A1,8,VIN*%
%TO.N,unconnected-(A1-VIN-Pad8)*%
X144145000Y-114427000D03*
%TO.P,A1,9,A0*%
%TO.N,unconnected-(A1-A0-Pad9)*%
X149225000Y-114427000D03*
%TO.P,A1,10,A1*%
%TO.N,unconnected-(A1-A1-Pad10)*%
X151765000Y-114427000D03*
%TO.P,A1,11,A2*%
%TO.N,unconnected-(A1-A2-Pad11)*%
X154305000Y-114427000D03*
%TO.P,A1,12,A3*%
%TO.N,/ALERT*%
X156845000Y-114427000D03*
%TO.P,A1,13,SDA/A4*%
%TO.N,/SDA*%
X159385000Y-114427000D03*
%TO.P,A1,14,SCL/A5*%
%TO.N,/SCL*%
X161925000Y-114427000D03*
%TO.P,A1,15,D0/RX*%
%TO.N,/UART_RX*%
X161925000Y-66167000D03*
%TO.P,A1,16,D1/TX*%
%TO.N,/UART_TX*%
X159385000Y-66167000D03*
%TO.P,A1,17,D2*%
%TO.N,/TACHCb*%
X156845000Y-66167000D03*
%TO.P,A1,18,D3*%
%TO.N,unconnected-(A1-D3-Pad18)*%
X154305000Y-66167000D03*
%TO.P,A1,19,D4*%
%TO.N,unconnected-(A1-D4-Pad19)*%
X151765000Y-66167000D03*
%TO.P,A1,20,D5*%
%TO.N,/IN_A*%
X149225000Y-66167000D03*
%TO.P,A1,21,D6*%
%TO.N,/IN_B*%
X146685000Y-66167000D03*
%TO.P,A1,22,D7*%
%TO.N,unconnected-(A1-D7-Pad22)*%
X144145000Y-66167000D03*
%TO.P,A1,23,D8*%
%TO.N,/TACH1b*%
X140085000Y-66167000D03*
%TO.P,A1,24,D9*%
%TO.N,/IN_2*%
X137545000Y-66167000D03*
%TO.P,A1,25,D10*%
%TO.N,/IN_1*%
X135005000Y-66167000D03*
%TO.P,A1,26,D11*%
%TO.N,unconnected-(A1-D11-Pad26)*%
X132465000Y-66167000D03*
%TO.P,A1,27,D12*%
%TO.N,unconnected-(A1-D12-Pad27)*%
X129925000Y-66167000D03*
%TO.P,A1,28,D13*%
%TO.N,unconnected-(A1-D13-Pad28)*%
X127385000Y-66167000D03*
%TO.P,A1,29,GND*%
%TO.N,GND*%
X124845000Y-66167000D03*
%TO.P,A1,30,AREF*%
%TO.N,unconnected-(A1-AREF-Pad30)*%
X122305000Y-66167000D03*
%TO.P,A1,31,SDA/A4*%
%TO.N,unconnected-(A1-SDA{slash}A4-Pad31)*%
X119765000Y-66167000D03*
%TO.P,A1,32,SCL/A5*%
%TO.N,unconnected-(A1-SCL{slash}A5-Pad32)*%
X117225000Y-66167000D03*
%TD*%
D16*
%TO.N,GND*%
X147193000Y-69215000D03*
X162433000Y-105664000D03*
X134650000Y-69245000D03*
X152781000Y-78105000D03*
X151003000Y-69215000D03*
X129032000Y-73533000D03*
D17*
X159512000Y-68761000D03*
D16*
X160147000Y-98552000D03*
X132103500Y-80541500D03*
%TD*%
%TA.AperFunction,Conductor*%
%TO.N,GND*%
G36*
X141139075Y-114234007D02*
G01*
X141105000Y-114361174D01*
X141105000Y-114492826D01*
X141139075Y-114619993D01*
X141171988Y-114677000D01*
X139498012Y-114677000D01*
X139530925Y-114619993D01*
X139565000Y-114492826D01*
X139565000Y-114361174D01*
X139530925Y-114234007D01*
X139498012Y-114177000D01*
X141171988Y-114177000D01*
X141139075Y-114234007D01*
G37*
%TD.AperFunction*%
%TA.AperFunction,Conductor*%
G36*
X162753363Y-64017185D02*
G01*
X162774005Y-64033819D01*
X164058181Y-65317995D01*
X164091666Y-65379318D01*
X164094500Y-65405676D01*
X164094500Y-76642891D01*
X164128608Y-76770187D01*
X164161554Y-76827250D01*
X164194500Y-76884314D01*
X164194502Y-76884316D01*
X166598181Y-79287995D01*
X166631666Y-79349318D01*
X166634500Y-79375676D01*
X166634500Y-111628324D01*
X166614815Y-111695363D01*
X166598181Y-111716005D01*
X164194502Y-114119683D01*
X164194500Y-114119686D01*
X164128608Y-114233812D01*
X164094500Y-114361108D01*
X164094500Y-116472500D01*
X164074815Y-116539539D01*
X164022011Y-116585294D01*
X163970500Y-116596500D01*
X98919500Y-116596500D01*
X98852461Y-116576815D01*
X98806706Y-116524011D01*
X98795500Y-116472500D01*
X98795500Y-113579135D01*
X125064500Y-113579135D01*
X125064500Y-115274870D01*
X125064501Y-115274876D01*
X125070908Y-115334483D01*
X125121202Y-115469328D01*
X125121206Y-115469335D01*
X125207452Y-115584544D01*
X125207455Y-115584547D01*
X125322664Y-115670793D01*
X125322671Y-115670797D01*
X125457517Y-115721091D01*
X125457516Y-115721091D01*
X125464444Y-115721835D01*
X125517127Y-115727500D01*
X127212872Y-115727499D01*
X127272483Y-115721091D01*
X127407331Y-115670796D01*
X127522546Y-115584546D01*
X127608796Y-115469331D01*
X127659091Y-115334483D01*
X127663061Y-115297556D01*
X127689796Y-115233011D01*
X127747188Y-115193161D01*
X127817013Y-115190666D01*
X127877102Y-115226317D01*
X127886667Y-115237929D01*
X127913032Y-115274217D01*
X128057786Y-115418971D01*
X128212749Y-115531556D01*
X128223390Y-115539287D01*
X128312212Y-115584544D01*
X128405776Y-115632218D01*
X128405778Y-115632218D01*
X128405781Y-115632220D01*
X128510137Y-115666127D01*
X128600465Y-115695477D01*
X128701557Y-115711488D01*
X128802648Y-115727500D01*
X128802649Y-115727500D01*
X129007351Y-115727500D01*
X129007352Y-115727500D01*
X129209534Y-115695477D01*
X129404219Y-115632220D01*
X129586610Y-115539287D01*
X129682901Y-115469328D01*
X129752213Y-115418971D01*
X129752215Y-115418968D01*
X129752219Y-115418966D01*
X129896966Y-115274219D01*
X129896968Y-115274215D01*
X129896971Y-115274213D01*
X130017284Y-115108614D01*
X130017286Y-115108611D01*
X130017287Y-115108610D01*
X130064516Y-115015917D01*
X130112489Y-114965123D01*
X130180310Y-114948328D01*
X130246445Y-114970865D01*
X130285485Y-115015919D01*
X130332715Y-115108614D01*
X130453028Y-115274213D01*
X130597786Y-115418971D01*
X130752749Y-115531556D01*
X130763390Y-115539287D01*
X130852212Y-115584544D01*
X130945776Y-115632218D01*
X130945778Y-115632218D01*
X130945781Y-115632220D01*
X131050137Y-115666127D01*
X131140465Y-115695477D01*
X131241557Y-115711488D01*
X131342648Y-115727500D01*
X131342649Y-115727500D01*
X131547351Y-115727500D01*
X131547352Y-115727500D01*
X131749534Y-115695477D01*
X131944219Y-115632220D01*
X132126610Y-115539287D01*
X132222901Y-115469328D01*
X132292213Y-115418971D01*
X132292215Y-115418968D01*
X132292219Y-115418966D01*
X132436966Y-115274219D01*
X132436968Y-115274215D01*
X132436971Y-115274213D01*
X132557284Y-115108614D01*
X132557286Y-115108611D01*
X132557287Y-115108610D01*
X132604516Y-115015917D01*
X132652489Y-114965123D01*
X132720310Y-114948328D01*
X132786445Y-114970865D01*
X132825485Y-115015919D01*
X132872715Y-115108614D01*
X132993028Y-115274213D01*
X133137786Y-115418971D01*
X133292749Y-115531556D01*
X133303390Y-115539287D01*
X133392212Y-115584544D01*
X133485776Y-115632218D01*
X133485778Y-115632218D01*
X133485781Y-115632220D01*
X133590137Y-115666127D01*
X133680465Y-115695477D01*
X133781557Y-115711488D01*
X133882648Y-115727500D01*
X133882649Y-115727500D01*
X134087351Y-115727500D01*
X134087352Y-115727500D01*
X134289534Y-115695477D01*
X134484219Y-115632220D01*
X134666610Y-115539287D01*
X134762901Y-115469328D01*
X134832213Y-115418971D01*
X134832215Y-115418968D01*
X134832219Y-115418966D01*
X134976966Y-115274219D01*
X134976968Y-115274215D01*
X134976971Y-115274213D01*
X135097284Y-115108614D01*
X135097286Y-115108611D01*
X135097287Y-115108610D01*
X135144516Y-115015917D01*
X135192489Y-114965123D01*
X135260310Y-114948328D01*
X135326445Y-114970865D01*
X135365485Y-115015919D01*
X135412715Y-115108614D01*
X135533028Y-115274213D01*
X135677786Y-115418971D01*
X135832749Y-115531556D01*
X135843390Y-115539287D01*
X135932212Y-115584544D01*
X136025776Y-115632218D01*
X136025778Y-115632218D01*
X136025781Y-115632220D01*
X136130137Y-115666127D01*
X136220465Y-115695477D01*
X136321557Y-115711488D01*
X136422648Y-115727500D01*
X136422649Y-115727500D01*
X136627351Y-115727500D01*
X136627352Y-115727500D01*
X136829534Y-115695477D01*
X137024219Y-115632220D01*
X137206610Y-115539287D01*
X137302901Y-115469328D01*
X137372213Y-115418971D01*
X137372215Y-115418968D01*
X137372219Y-115418966D01*
X137516966Y-115274219D01*
X137516968Y-115274215D01*
X137516971Y-115274213D01*
X137637284Y-115108614D01*
X137637286Y-115108611D01*
X137637287Y-115108610D01*
X137684795Y-115015369D01*
X137732770Y-114964574D01*
X137800591Y-114947779D01*
X137866725Y-114970316D01*
X137905765Y-115015370D01*
X137953140Y-115108349D01*
X138073417Y-115273894D01*
X138073417Y-115273895D01*
X138218104Y-115418582D01*
X138383650Y-115538859D01*
X138565968Y-115631754D01*
X138760578Y-115694988D01*
X138815000Y-115703607D01*
X138815000Y-114860012D01*
X138872007Y-114892925D01*
X138999174Y-114927000D01*
X139130826Y-114927000D01*
X139257993Y-114892925D01*
X139315000Y-114860012D01*
X139315000Y-115703606D01*
X139369421Y-115694988D01*
X139564031Y-115631754D01*
X139746349Y-115538859D01*
X139911894Y-115418582D01*
X139911895Y-115418582D01*
X140056582Y-115273895D01*
X140056582Y-115273894D01*
X140176859Y-115108349D01*
X140224515Y-115014820D01*
X140272489Y-114964024D01*
X140340310Y-114947229D01*
X140406445Y-114969766D01*
X140445485Y-115014820D01*
X140493140Y-115108349D01*
X140613417Y-115273894D01*
X140613417Y-115273895D01*
X140758104Y-115418582D01*
X140923650Y-115538859D01*
X141105968Y-115631754D01*
X141300578Y-115694988D01*
X141355000Y-115703607D01*
X141355000Y-114860012D01*
X141412007Y-114892925D01*
X141539174Y-114927000D01*
X141670826Y-114927000D01*
X141797993Y-114892925D01*
X141855000Y-114860012D01*
X141855000Y-115703606D01*
X141909421Y-115694988D01*
X142104031Y-115631754D01*
X142286349Y-115538859D01*
X142451894Y-115418582D01*
X142451895Y-115418582D01*
X142596582Y-115273895D01*
X142596582Y-115273894D01*
X142716861Y-115108347D01*
X142764234Y-115015371D01*
X142812208Y-114964575D01*
X142880028Y-114947779D01*
X142946164Y-114970316D01*
X142985203Y-115015369D01*
X143032713Y-115108611D01*
X143153028Y-115274213D01*
X143297786Y-115418971D01*
X143452749Y-115531556D01*
X143463390Y-115539287D01*
X143552212Y-115584544D01*
X143645776Y-115632218D01*
X143645778Y-115632218D01*
X143645781Y-115632220D01*
X143750137Y-115666127D01*
X143840465Y-115695477D01*
X143941557Y-115711488D01*
X144042648Y-115727500D01*
X144042649Y-115727500D01*
X144247351Y-115727500D01*
X144247352Y-115727500D01*
X144449534Y-115695477D01*
X144644219Y-115632220D01*
X144826610Y-115539287D01*
X144922901Y-115469328D01*
X144992213Y-115418971D01*
X144992215Y-115418968D01*
X144992219Y-115418966D01*
X145136966Y-115274219D01*
X145136968Y-115274215D01*
X145136971Y-115274213D01*
X145197670Y-115190666D01*
X145257287Y-115108610D01*
X145350220Y-114926219D01*
X145413477Y-114731534D01*
X145445500Y-114529352D01*
X145445500Y-114324648D01*
X147924500Y-114324648D01*
X147924500Y-114529351D01*
X147956522Y-114731534D01*
X148019781Y-114926223D01*
X148112715Y-115108613D01*
X148233028Y-115274213D01*
X148377786Y-115418971D01*
X148532749Y-115531556D01*
X148543390Y-115539287D01*
X148632212Y-115584544D01*
X148725776Y-115632218D01*
X148725778Y-115632218D01*
X148725781Y-115632220D01*
X148830137Y-115666127D01*
X148920465Y-115695477D01*
X149021557Y-115711488D01*
X149122648Y-115727500D01*
X149122649Y-115727500D01*
X149327351Y-115727500D01*
X149327352Y-115727500D01*
X149529534Y-115695477D01*
X149724219Y-115632220D01*
X149906610Y-115539287D01*
X150002901Y-115469328D01*
X150072213Y-115418971D01*
X150072215Y-115418968D01*
X150072219Y-115418966D01*
X150216966Y-115274219D01*
X150216968Y-115274215D01*
X150216971Y-115274213D01*
X150337284Y-115108614D01*
X150337286Y-115108611D01*
X150337287Y-115108610D01*
X150384516Y-115015917D01*
X150432489Y-114965123D01*
X150500310Y-114948328D01*
X150566445Y-114970865D01*
X150605485Y-115015919D01*
X150652715Y-115108614D01*
X150773028Y-115274213D01*
X150917786Y-115418971D01*
X151072749Y-115531556D01*
X151083390Y-115539287D01*
X151172212Y-115584544D01*
X151265776Y-115632218D01*
X151265778Y-115632218D01*
X151265781Y-115632220D01*
X151370137Y-115666127D01*
X151460465Y-115695477D01*
X151561557Y-115711488D01*
X151662648Y-115727500D01*
X151662649Y-115727500D01*
X151867351Y-115727500D01*
X151867352Y-115727500D01*
X152069534Y-115695477D01*
X152264219Y-115632220D01*
X152446610Y-115539287D01*
X152542901Y-115469328D01*
X152612213Y-115418971D01*
X152612215Y-115418968D01*
X152612219Y-115418966D01*
X152756966Y-115274219D01*
X152756968Y-115274215D01*
X152756971Y-115274213D01*
X152877284Y-115108614D01*
X152877286Y-115108611D01*
X152877287Y-115108610D01*
X152924516Y-115015917D01*
X152972489Y-114965123D01*
X153040310Y-114948328D01*
X153106445Y-114970865D01*
X153145485Y-115015919D01*
X153192715Y-115108614D01*
X153313028Y-115274213D01*
X153457786Y-115418971D01*
X153612749Y-115531556D01*
X153623390Y-115539287D01*
X153712212Y-115584544D01*
X153805776Y-115632218D01*
X153805778Y-115632218D01*
X153805781Y-115632220D01*
X153910137Y-115666127D01*
X154000465Y-115695477D01*
X154101557Y-115711488D01*
X154202648Y-115727500D01*
X154202649Y-115727500D01*
X154407351Y-115727500D01*
X154407352Y-115727500D01*
X154609534Y-115695477D01*
X154804219Y-115632220D01*
X154986610Y-115539287D01*
X155082901Y-115469328D01*
X155152213Y-115418971D01*
X155152215Y-115418968D01*
X155152219Y-115418966D01*
X155296966Y-115274219D01*
X155296968Y-115274215D01*
X155296971Y-115274213D01*
X155417284Y-115108614D01*
X155417286Y-115108611D01*
X155417287Y-115108610D01*
X155464516Y-115015917D01*
X155512489Y-114965123D01*
X155580310Y-114948328D01*
X155646445Y-114970865D01*
X155685485Y-115015919D01*
X155732715Y-115108614D01*
X155853028Y-115274213D01*
X155997786Y-115418971D01*
X156152749Y-115531556D01*
X156163390Y-115539287D01*
X156252212Y-115584544D01*
X156345776Y-115632218D01*
X156345778Y-115632218D01*
X156345781Y-115632220D01*
X156450137Y-115666127D01*
X156540465Y-115695477D01*
X156641557Y-115711488D01*
X156742648Y-115727500D01*
X156742649Y-115727500D01*
X156947351Y-115727500D01*
X156947352Y-115727500D01*
X157149534Y-115695477D01*
X157344219Y-115632220D01*
X157526610Y-115539287D01*
X157622901Y-115469328D01*
X157692213Y-115418971D01*
X157692215Y-115418968D01*
X157692219Y-115418966D01*
X157836966Y-115274219D01*
X157836968Y-115274215D01*
X157836971Y-115274213D01*
X157957284Y-115108614D01*
X157957286Y-115108611D01*
X157957287Y-115108610D01*
X158004516Y-115015917D01*
X158052489Y-114965123D01*
X158120310Y-114948328D01*
X158186445Y-114970865D01*
X158225485Y-115015919D01*
X158272715Y-115108614D01*
X158393028Y-115274213D01*
X158537786Y-115418971D01*
X158692749Y-115531556D01*
X158703390Y-115539287D01*
X158792212Y-115584544D01*
X158885776Y-115632218D01*
X158885778Y-115632218D01*
X158885781Y-115632220D01*
X158990137Y-115666127D01*
X159080465Y-115695477D01*
X159181557Y-115711488D01*
X159282648Y-115727500D01*
X159282649Y-115727500D01*
X159487351Y-115727500D01*
X159487352Y-115727500D01*
X159689534Y-115695477D01*
X159884219Y-115632220D01*
X160066610Y-115539287D01*
X160162901Y-115469328D01*
X160232213Y-115418971D01*
X160232215Y-115418968D01*
X160232219Y-115418966D01*
X160376966Y-115274219D01*
X160376968Y-115274215D01*
X160376971Y-115274213D01*
X160497284Y-115108614D01*
X160497286Y-115108611D01*
X160497287Y-115108610D01*
X160544516Y-115015917D01*
X160592489Y-114965123D01*
X160660310Y-114948328D01*
X160726445Y-114970865D01*
X160765485Y-115015919D01*
X160812715Y-115108614D01*
X160933028Y-115274213D01*
X161077786Y-115418971D01*
X161232749Y-115531556D01*
X161243390Y-115539287D01*
X161332212Y-115584544D01*
X161425776Y-115632218D01*
X161425778Y-115632218D01*
X161425781Y-115632220D01*
X161530137Y-115666127D01*
X161620465Y-115695477D01*
X161721557Y-115711488D01*
X161822648Y-115727500D01*
X161822649Y-115727500D01*
X162027351Y-115727500D01*
X162027352Y-115727500D01*
X162229534Y-115695477D01*
X162424219Y-115632220D01*
X162606610Y-115539287D01*
X162702901Y-115469328D01*
X162772213Y-115418971D01*
X162772215Y-115418968D01*
X162772219Y-115418966D01*
X162916966Y-115274219D01*
X162916968Y-115274215D01*
X162916971Y-115274213D01*
X162977670Y-115190666D01*
X163037287Y-115108610D01*
X163130220Y-114926219D01*
X163193477Y-114731534D01*
X163225500Y-114529352D01*
X163225500Y-114324648D01*
X163211113Y-114233812D01*
X163193477Y-114122465D01*
X163130218Y-113927776D01*
X163037419Y-113745650D01*
X163037287Y-113745390D01*
X163029556Y-113734749D01*
X162916971Y-113579786D01*
X162772213Y-113435028D01*
X162606613Y-113314715D01*
X162606612Y-113314714D01*
X162606610Y-113314713D01*
X162549653Y-113285691D01*
X162424223Y-113221781D01*
X162229534Y-113158522D01*
X162054995Y-113130878D01*
X162027352Y-113126500D01*
X161822648Y-113126500D01*
X161798329Y-113130351D01*
X161620465Y-113158522D01*
X161425776Y-113221781D01*
X161243386Y-113314715D01*
X161077786Y-113435028D01*
X160933028Y-113579786D01*
X160812715Y-113745386D01*
X160765485Y-113838080D01*
X160717510Y-113888876D01*
X160649689Y-113905671D01*
X160583554Y-113883134D01*
X160544515Y-113838080D01*
X160497419Y-113745650D01*
X160497287Y-113745390D01*
X160489556Y-113734749D01*
X160376971Y-113579786D01*
X160232213Y-113435028D01*
X160066613Y-113314715D01*
X160066612Y-113314714D01*
X160066610Y-113314713D01*
X160009653Y-113285691D01*
X159884223Y-113221781D01*
X159689534Y-113158522D01*
X159514995Y-113130878D01*
X159487352Y-113126500D01*
X159282648Y-113126500D01*
X159258329Y-113130351D01*
X159080465Y-113158522D01*
X158885776Y-113221781D01*
X158703386Y-113314715D01*
X158537786Y-113435028D01*
X158393028Y-113579786D01*
X158272715Y-113745386D01*
X158225485Y-113838080D01*
X158177510Y-113888876D01*
X158109689Y-113905671D01*
X158043554Y-113883134D01*
X158004515Y-113838080D01*
X157957419Y-113745650D01*
X157957287Y-113745390D01*
X157949556Y-113734749D01*
X157836971Y-113579786D01*
X157692213Y-113435028D01*
X157526613Y-113314715D01*
X157526612Y-113314714D01*
X157526610Y-113314713D01*
X157469653Y-113285691D01*
X157344223Y-113221781D01*
X157149534Y-113158522D01*
X156974995Y-113130878D01*
X156947352Y-113126500D01*
X156742648Y-113126500D01*
X156718329Y-113130351D01*
X156540465Y-113158522D01*
X156345776Y-113221781D01*
X156163386Y-113314715D01*
X155997786Y-113435028D01*
X155853028Y-113579786D01*
X155732715Y-113745386D01*
X155685485Y-113838080D01*
X155637510Y-113888876D01*
X155569689Y-113905671D01*
X155503554Y-113883134D01*
X155464515Y-113838080D01*
X155417419Y-113745650D01*
X155417287Y-113745390D01*
X155409556Y-113734749D01*
X155296971Y-113579786D01*
X155152213Y-113435028D01*
X154986613Y-113314715D01*
X154986612Y-113314714D01*
X154986610Y-113314713D01*
X154929653Y-113285691D01*
X154804223Y-113221781D01*
X154609534Y-113158522D01*
X154434995Y-113130878D01*
X154407352Y-113126500D01*
X154202648Y-113126500D01*
X154178329Y-113130351D01*
X154000465Y-113158522D01*
X153805776Y-113221781D01*
X153623386Y-113314715D01*
X153457786Y-113435028D01*
X153313028Y-113579786D01*
X153192715Y-113745386D01*
X153145485Y-113838080D01*
X153097510Y-113888876D01*
X153029689Y-113905671D01*
X152963554Y-113883134D01*
X152924515Y-113838080D01*
X152877419Y-113745650D01*
X152877287Y-113745390D01*
X152869556Y-113734749D01*
X152756971Y-113579786D01*
X152612213Y-113435028D01*
X152446613Y-113314715D01*
X152446612Y-113314714D01*
X152446610Y-113314713D01*
X152389653Y-113285691D01*
X152264223Y-113221781D01*
X152069534Y-113158522D01*
X151894995Y-113130878D01*
X151867352Y-113126500D01*
X151662648Y-113126500D01*
X151638329Y-113130351D01*
X151460465Y-113158522D01*
X151265776Y-113221781D01*
X151083386Y-113314715D01*
X150917786Y-113435028D01*
X150773028Y-113579786D01*
X150652715Y-113745386D01*
X150605485Y-113838080D01*
X150557510Y-113888876D01*
X150489689Y-113905671D01*
X150423554Y-113883134D01*
X150384515Y-113838080D01*
X150337419Y-113745650D01*
X150337287Y-113745390D01*
X150329556Y-113734749D01*
X150216971Y-113579786D01*
X150072213Y-113435028D01*
X149906613Y-113314715D01*
X149906612Y-113314714D01*
X149906610Y-113314713D01*
X149849653Y-113285691D01*
X149724223Y-113221781D01*
X149529534Y-113158522D01*
X149354995Y-113130878D01*
X149327352Y-113126500D01*
X149122648Y-113126500D01*
X149098329Y-113130351D01*
X148920465Y-113158522D01*
X148725776Y-113221781D01*
X148543386Y-113314715D01*
X148377786Y-113435028D01*
X148233028Y-113579786D01*
X148112715Y-113745386D01*
X148019781Y-113927776D01*
X147956522Y-114122465D01*
X147924500Y-114324648D01*
X145445500Y-114324648D01*
X145431113Y-114233812D01*
X145413477Y-114122465D01*
X145350218Y-113927776D01*
X145257419Y-113745650D01*
X145257287Y-113745390D01*
X145249556Y-113734749D01*
X145136971Y-113579786D01*
X144992213Y-113435028D01*
X144826613Y-113314715D01*
X144826612Y-113314714D01*
X144826610Y-113314713D01*
X144769653Y-113285691D01*
X144644223Y-113221781D01*
X144449534Y-113158522D01*
X144274995Y-113130878D01*
X144247352Y-113126500D01*
X144042648Y-113126500D01*
X144018329Y-113130351D01*
X143840465Y-113158522D01*
X143645776Y-113221781D01*
X143463386Y-113314715D01*
X143297786Y-113435028D01*
X143153028Y-113579786D01*
X143032713Y-113745388D01*
X142985203Y-113838630D01*
X142937228Y-113889426D01*
X142869407Y-113906220D01*
X142803272Y-113883682D01*
X142764234Y-113838628D01*
X142716861Y-113745652D01*
X142596582Y-113580105D01*
X142596582Y-113580104D01*
X142451895Y-113435417D01*
X142286349Y-113315140D01*
X142104029Y-113222244D01*
X141909413Y-113159009D01*
X141855000Y-113150390D01*
X141855000Y-113993988D01*
X141797993Y-113961075D01*
X141670826Y-113927000D01*
X141539174Y-113927000D01*
X141412007Y-113961075D01*
X141355000Y-113993988D01*
X141355000Y-113150390D01*
X141300586Y-113159009D01*
X141105970Y-113222244D01*
X140923650Y-113315140D01*
X140758105Y-113435417D01*
X140758104Y-113435417D01*
X140613417Y-113580104D01*
X140613417Y-113580105D01*
X140493140Y-113745650D01*
X140445485Y-113839179D01*
X140397510Y-113889975D01*
X140329689Y-113906770D01*
X140263554Y-113884232D01*
X140224515Y-113839179D01*
X140176859Y-113745650D01*
X140056582Y-113580105D01*
X140056582Y-113580104D01*
X139911895Y-113435417D01*
X139746349Y-113315140D01*
X139564029Y-113222244D01*
X139369413Y-113159009D01*
X139315000Y-113150390D01*
X139315000Y-113993988D01*
X139257993Y-113961075D01*
X139130826Y-113927000D01*
X138999174Y-113927000D01*
X138872007Y-113961075D01*
X138815000Y-113993988D01*
X138815000Y-113150390D01*
X138760586Y-113159009D01*
X138565970Y-113222244D01*
X138383650Y-113315140D01*
X138218105Y-113435417D01*
X138218104Y-113435417D01*
X138073417Y-113580104D01*
X138073417Y-113580105D01*
X137953140Y-113745650D01*
X137905765Y-113838629D01*
X137857790Y-113889425D01*
X137789969Y-113906220D01*
X137723834Y-113883682D01*
X137684795Y-113838629D01*
X137637419Y-113745650D01*
X137637287Y-113745390D01*
X137629556Y-113734749D01*
X137516971Y-113579786D01*
X137372213Y-113435028D01*
X137206613Y-113314715D01*
X137206612Y-113314714D01*
X137206610Y-113314713D01*
X137149653Y-113285691D01*
X137024223Y-113221781D01*
X136829534Y-113158522D01*
X136654995Y-113130878D01*
X136627352Y-113126500D01*
X136422648Y-113126500D01*
X136398329Y-113130351D01*
X136220465Y-113158522D01*
X136025776Y-113221781D01*
X135843386Y-113314715D01*
X135677786Y-113435028D01*
X135533028Y-113579786D01*
X135412715Y-113745386D01*
X135365485Y-113838080D01*
X135317510Y-113888876D01*
X135249689Y-113905671D01*
X135183554Y-113883134D01*
X135144515Y-113838080D01*
X135097419Y-113745650D01*
X135097287Y-113745390D01*
X135089556Y-113734749D01*
X134976971Y-113579786D01*
X134832213Y-113435028D01*
X134666613Y-113314715D01*
X134666612Y-113314714D01*
X134666610Y-113314713D01*
X134609653Y-113285691D01*
X134484223Y-113221781D01*
X134289534Y-113158522D01*
X134114995Y-113130878D01*
X134087352Y-113126500D01*
X133882648Y-113126500D01*
X133858329Y-113130351D01*
X133680465Y-113158522D01*
X133485776Y-113221781D01*
X133303386Y-113314715D01*
X133137786Y-113435028D01*
X132993028Y-113579786D01*
X132872715Y-113745386D01*
X132825485Y-113838080D01*
X132777510Y-113888876D01*
X132709689Y-113905671D01*
X132643554Y-113883134D01*
X132604515Y-113838080D01*
X132557419Y-113745650D01*
X132557287Y-113745390D01*
X132549556Y-113734749D01*
X132436971Y-113579786D01*
X132292213Y-113435028D01*
X132126613Y-113314715D01*
X132126612Y-113314714D01*
X132126610Y-113314713D01*
X132069653Y-113285691D01*
X131944223Y-113221781D01*
X131749534Y-113158522D01*
X131574995Y-113130878D01*
X131547352Y-113126500D01*
X131342648Y-113126500D01*
X131318329Y-113130351D01*
X131140465Y-113158522D01*
X130945776Y-113221781D01*
X130763386Y-113314715D01*
X130597786Y-113435028D01*
X130453028Y-113579786D01*
X130332715Y-113745386D01*
X130285485Y-113838080D01*
X130237510Y-113888876D01*
X130169689Y-113905671D01*
X130103554Y-113883134D01*
X130064515Y-113838080D01*
X130017419Y-113745650D01*
X130017287Y-113745390D01*
X130009556Y-113734749D01*
X129896971Y-113579786D01*
X129752213Y-113435028D01*
X129586613Y-113314715D01*
X129586612Y-113314714D01*
X129586610Y-113314713D01*
X129529653Y-113285691D01*
X129404223Y-113221781D01*
X129209534Y-113158522D01*
X129034995Y-113130878D01*
X129007352Y-113126500D01*
X128802648Y-113126500D01*
X128778329Y-113130351D01*
X128600465Y-113158522D01*
X128405776Y-113221781D01*
X128223386Y-113314715D01*
X128057786Y-113435028D01*
X127913032Y-113579782D01*
X127886668Y-113616070D01*
X127831338Y-113658735D01*
X127761724Y-113664714D01*
X127699929Y-113632108D01*
X127665572Y-113571269D01*
X127663060Y-113556438D01*
X127662640Y-113552533D01*
X127659091Y-113519517D01*
X127608796Y-113384669D01*
X127608795Y-113384668D01*
X127608793Y-113384664D01*
X127522547Y-113269455D01*
X127522544Y-113269452D01*
X127407335Y-113183206D01*
X127407328Y-113183202D01*
X127272482Y-113132908D01*
X127272483Y-113132908D01*
X127212883Y-113126501D01*
X127212881Y-113126500D01*
X127212873Y-113126500D01*
X127212864Y-113126500D01*
X125517129Y-113126500D01*
X125517123Y-113126501D01*
X125457516Y-113132908D01*
X125322671Y-113183202D01*
X125322664Y-113183206D01*
X125207455Y-113269452D01*
X125207452Y-113269455D01*
X125121206Y-113384664D01*
X125121202Y-113384671D01*
X125070908Y-113519517D01*
X125064501Y-113579116D01*
X125064500Y-113579135D01*
X98795500Y-113579135D01*
X98795500Y-91994778D01*
X147669000Y-91994778D01*
X147669000Y-92215221D01*
X147703485Y-92432952D01*
X147771603Y-92642603D01*
X147771604Y-92642606D01*
X147871687Y-92839025D01*
X148001252Y-93017358D01*
X148001256Y-93017363D01*
X148157136Y-93173243D01*
X148157141Y-93173247D01*
X148312692Y-93286260D01*
X148335478Y-93302815D01*
X148463875Y-93368237D01*
X148531893Y-93402895D01*
X148531896Y-93402896D01*
X148636721Y-93436955D01*
X148741549Y-93471015D01*
X148959278Y-93505500D01*
X148959279Y-93505500D01*
X149179721Y-93505500D01*
X149179722Y-93505500D01*
X149397451Y-93471015D01*
X149607106Y-93402895D01*
X149803522Y-93302815D01*
X149981865Y-93173242D01*
X150137742Y-93017365D01*
X150267315Y-92839022D01*
X150367395Y-92642606D01*
X150435515Y-92432951D01*
X150470000Y-92215222D01*
X150470000Y-91994778D01*
X150435515Y-91777049D01*
X150367395Y-91567394D01*
X150367395Y-91567393D01*
X150329671Y-91493358D01*
X150267315Y-91370978D01*
X150226661Y-91315022D01*
X150137747Y-91192641D01*
X150137743Y-91192636D01*
X149981863Y-91036756D01*
X149981858Y-91036752D01*
X149803525Y-90907187D01*
X149803524Y-90907186D01*
X149803522Y-90907185D01*
X149740596Y-90875122D01*
X149607106Y-90807104D01*
X149607103Y-90807103D01*
X149397452Y-90738985D01*
X149288586Y-90721742D01*
X149179722Y-90704500D01*
X148959278Y-90704500D01*
X148886701Y-90715995D01*
X148741547Y-90738985D01*
X148531896Y-90807103D01*
X148531893Y-90807104D01*
X148335474Y-90907187D01*
X148157141Y-91036752D01*
X148157136Y-91036756D01*
X148001256Y-91192636D01*
X148001252Y-91192641D01*
X147871687Y-91370974D01*
X147771604Y-91567393D01*
X147771603Y-91567396D01*
X147703485Y-91777047D01*
X147669000Y-91994778D01*
X98795500Y-91994778D01*
X98795500Y-90470778D01*
X115030000Y-90470778D01*
X115030000Y-90691221D01*
X115064485Y-90908952D01*
X115132603Y-91118603D01*
X115132604Y-91118606D01*
X115232687Y-91315025D01*
X115362252Y-91493358D01*
X115362256Y-91493363D01*
X115518136Y-91649243D01*
X115518141Y-91649247D01*
X115673692Y-91762260D01*
X115696478Y-91778815D01*
X115824875Y-91844237D01*
X115892893Y-91878895D01*
X115892896Y-91878896D01*
X115997721Y-91912955D01*
X116102549Y-91947015D01*
X116320278Y-91981500D01*
X116320279Y-91981500D01*
X116540721Y-91981500D01*
X116540722Y-91981500D01*
X116758451Y-91947015D01*
X116968106Y-91878895D01*
X117164522Y-91778815D01*
X117342865Y-91649242D01*
X117498742Y-91493365D01*
X117628315Y-91315022D01*
X117728395Y-91118606D01*
X117796515Y-90908951D01*
X117831000Y-90691222D01*
X117831000Y-90470778D01*
X129127000Y-90470778D01*
X129127000Y-90691221D01*
X129161485Y-90908952D01*
X129229603Y-91118603D01*
X129229604Y-91118606D01*
X129329687Y-91315025D01*
X129459252Y-91493358D01*
X129459256Y-91493363D01*
X129615136Y-91649243D01*
X129615141Y-91649247D01*
X129770692Y-91762260D01*
X129793478Y-91778815D01*
X129921875Y-91844237D01*
X129989893Y-91878895D01*
X129989896Y-91878896D01*
X130094721Y-91912955D01*
X130199549Y-91947015D01*
X130417278Y-91981500D01*
X130417279Y-91981500D01*
X130637721Y-91981500D01*
X130637722Y-91981500D01*
X130855451Y-91947015D01*
X131065106Y-91878895D01*
X131261522Y-91778815D01*
X131439865Y-91649242D01*
X131595742Y-91493365D01*
X131725315Y-91315022D01*
X131825395Y-91118606D01*
X131893515Y-90908951D01*
X131928000Y-90691222D01*
X131928000Y-90470778D01*
X131893515Y-90253049D01*
X131825395Y-90043394D01*
X131825395Y-90043393D01*
X131790737Y-89975375D01*
X131725315Y-89846978D01*
X131708760Y-89824192D01*
X131595747Y-89668641D01*
X131595743Y-89668636D01*
X131439863Y-89512756D01*
X131439858Y-89512752D01*
X131261525Y-89383187D01*
X131261524Y-89383186D01*
X131261522Y-89383185D01*
X131198596Y-89351122D01*
X131065106Y-89283104D01*
X131065103Y-89283103D01*
X130855452Y-89214985D01*
X130746586Y-89197742D01*
X130637722Y-89180500D01*
X130417278Y-89180500D01*
X130344701Y-89191995D01*
X130199547Y-89214985D01*
X129989896Y-89283103D01*
X129989893Y-89283104D01*
X129793474Y-89383187D01*
X129615141Y-89512752D01*
X129615136Y-89512756D01*
X129459256Y-89668636D01*
X129459252Y-89668641D01*
X129329687Y-89846974D01*
X129229604Y-90043393D01*
X129229603Y-90043396D01*
X129161485Y-90253047D01*
X129127000Y-90470778D01*
X117831000Y-90470778D01*
X117796515Y-90253049D01*
X117728395Y-90043394D01*
X117728395Y-90043393D01*
X117693737Y-89975375D01*
X117628315Y-89846978D01*
X117611760Y-89824192D01*
X117498747Y-89668641D01*
X117498743Y-89668636D01*
X117342863Y-89512756D01*
X117342858Y-89512752D01*
X117164525Y-89383187D01*
X117164524Y-89383186D01*
X117164522Y-89383185D01*
X117101596Y-89351122D01*
X116968106Y-89283104D01*
X116968103Y-89283103D01*
X116758452Y-89214985D01*
X116649586Y-89197742D01*
X116540722Y-89180500D01*
X116320278Y-89180500D01*
X116247701Y-89191995D01*
X116102547Y-89214985D01*
X115892896Y-89283103D01*
X115892893Y-89283104D01*
X115696474Y-89383187D01*
X115518141Y-89512752D01*
X115518136Y-89512756D01*
X115362256Y-89668636D01*
X115362252Y-89668641D01*
X115232687Y-89846974D01*
X115132604Y-90043393D01*
X115132603Y-90043396D01*
X115064485Y-90253047D01*
X115030000Y-90470778D01*
X98795500Y-90470778D01*
X98795500Y-84633135D01*
X111530000Y-84633135D01*
X111530000Y-86528870D01*
X111530001Y-86528876D01*
X111536408Y-86588483D01*
X111586702Y-86723328D01*
X111586706Y-86723335D01*
X111672952Y-86838544D01*
X111672955Y-86838547D01*
X111788164Y-86924793D01*
X111788171Y-86924797D01*
X111923017Y-86975091D01*
X111923016Y-86975091D01*
X111929944Y-86975835D01*
X111982627Y-86981500D01*
X113878372Y-86981499D01*
X113937983Y-86975091D01*
X114072831Y-86924796D01*
X114188046Y-86838546D01*
X114274296Y-86723331D01*
X114301929Y-86649243D01*
X114304827Y-86641474D01*
X114324591Y-86588482D01*
X114326858Y-86567394D01*
X114331000Y-86528873D01*
X114330999Y-85470818D01*
X118530500Y-85470818D01*
X118530500Y-85691181D01*
X118564973Y-85908835D01*
X118633067Y-86118410D01*
X118733111Y-86314756D01*
X118779432Y-86378513D01*
X119365887Y-85792058D01*
X119371389Y-85812591D01*
X119450381Y-85949408D01*
X119562092Y-86061119D01*
X119698909Y-86140111D01*
X119719439Y-86145612D01*
X119132985Y-86732065D01*
X119132985Y-86732066D01*
X119196743Y-86778388D01*
X119393089Y-86878432D01*
X119602664Y-86946526D01*
X119820319Y-86981000D01*
X120040681Y-86981000D01*
X120258335Y-86946526D01*
X120467910Y-86878432D01*
X120664260Y-86778386D01*
X120728013Y-86732066D01*
X120728014Y-86732066D01*
X120141559Y-86145612D01*
X120162091Y-86140111D01*
X120298908Y-86061119D01*
X120410619Y-85949408D01*
X120489611Y-85812591D01*
X120495112Y-85792060D01*
X121081566Y-86378514D01*
X121081566Y-86378513D01*
X121127886Y-86314760D01*
X121227932Y-86118410D01*
X121296026Y-85908835D01*
X121330500Y-85691181D01*
X121330500Y-85470818D01*
X121296026Y-85253164D01*
X121227932Y-85043589D01*
X121127888Y-84847243D01*
X121081566Y-84783485D01*
X121081565Y-84783485D01*
X120495112Y-85369939D01*
X120489611Y-85349409D01*
X120410619Y-85212592D01*
X120298908Y-85100881D01*
X120162091Y-85021889D01*
X120141558Y-85016387D01*
X120524811Y-84633135D01*
X125627000Y-84633135D01*
X125627000Y-86528870D01*
X125627001Y-86528876D01*
X125633408Y-86588483D01*
X125683702Y-86723328D01*
X125683706Y-86723335D01*
X125769952Y-86838544D01*
X125769955Y-86838547D01*
X125885164Y-86924793D01*
X125885171Y-86924797D01*
X126020017Y-86975091D01*
X126020016Y-86975091D01*
X126026944Y-86975835D01*
X126079627Y-86981500D01*
X127975372Y-86981499D01*
X128034983Y-86975091D01*
X128169831Y-86924796D01*
X128285046Y-86838546D01*
X128371296Y-86723331D01*
X128421591Y-86588483D01*
X128428000Y-86528873D01*
X128427999Y-85470778D01*
X132627000Y-85470778D01*
X132627000Y-85691221D01*
X132661485Y-85908952D01*
X132729603Y-86118603D01*
X132729604Y-86118606D01*
X132767328Y-86192641D01*
X132829549Y-86314756D01*
X132829687Y-86315025D01*
X132959252Y-86493358D01*
X132959256Y-86493363D01*
X133115136Y-86649243D01*
X133115141Y-86649247D01*
X133217106Y-86723328D01*
X133293478Y-86778815D01*
X133421875Y-86844237D01*
X133489893Y-86878895D01*
X133489896Y-86878896D01*
X133594721Y-86912955D01*
X133699549Y-86947015D01*
X133917278Y-86981500D01*
X133917279Y-86981500D01*
X134137721Y-86981500D01*
X134137722Y-86981500D01*
X134355451Y-86947015D01*
X134565106Y-86878895D01*
X134761522Y-86778815D01*
X134939865Y-86649242D01*
X135095742Y-86493365D01*
X135225315Y-86315022D01*
X135305763Y-86157135D01*
X144169000Y-86157135D01*
X144169000Y-88052870D01*
X144169001Y-88052876D01*
X144175408Y-88112483D01*
X144225702Y-88247328D01*
X144225706Y-88247335D01*
X144311952Y-88362544D01*
X144311955Y-88362547D01*
X144427164Y-88448793D01*
X144427171Y-88448797D01*
X144562017Y-88499091D01*
X144562016Y-88499091D01*
X144568944Y-88499835D01*
X144621627Y-88505500D01*
X146517372Y-88505499D01*
X146576983Y-88499091D01*
X146711831Y-88448796D01*
X146827046Y-88362546D01*
X146913296Y-88247331D01*
X146963591Y-88112483D01*
X146970000Y-88052873D01*
X146969999Y-86994778D01*
X151169000Y-86994778D01*
X151169000Y-87215221D01*
X151203485Y-87432952D01*
X151271603Y-87642603D01*
X151271604Y-87642606D01*
X151371687Y-87839025D01*
X151501252Y-88017358D01*
X151501256Y-88017363D01*
X151657136Y-88173243D01*
X151657141Y-88173247D01*
X151759106Y-88247328D01*
X151835478Y-88302815D01*
X151963875Y-88368237D01*
X152031893Y-88402895D01*
X152031896Y-88402896D01*
X152136721Y-88436955D01*
X152241549Y-88471015D01*
X152459278Y-88505500D01*
X152459279Y-88505500D01*
X152679721Y-88505500D01*
X152679722Y-88505500D01*
X152897451Y-88471015D01*
X153107106Y-88402895D01*
X153303522Y-88302815D01*
X153481865Y-88173242D01*
X153637742Y-88017365D01*
X153767315Y-87839022D01*
X153867395Y-87642606D01*
X153935515Y-87432951D01*
X153970000Y-87215222D01*
X153970000Y-86994778D01*
X153935515Y-86777049D01*
X153867395Y-86567394D01*
X153867395Y-86567393D01*
X153829671Y-86493358D01*
X153767315Y-86370978D01*
X153726661Y-86315022D01*
X153637747Y-86192641D01*
X153637743Y-86192636D01*
X153481863Y-86036756D01*
X153481858Y-86036752D01*
X153303525Y-85907187D01*
X153303524Y-85907186D01*
X153303522Y-85907185D01*
X153186291Y-85847452D01*
X153107106Y-85807104D01*
X153107103Y-85807103D01*
X152897452Y-85738985D01*
X152788586Y-85721742D01*
X152679722Y-85704500D01*
X152459278Y-85704500D01*
X152386701Y-85715995D01*
X152241547Y-85738985D01*
X152031896Y-85807103D01*
X152031893Y-85807104D01*
X151835474Y-85907187D01*
X151657141Y-86036752D01*
X151657136Y-86036756D01*
X151501256Y-86192636D01*
X151501252Y-86192641D01*
X151371687Y-86370974D01*
X151271604Y-86567393D01*
X151271603Y-86567396D01*
X151203485Y-86777047D01*
X151169000Y-86994778D01*
X146969999Y-86994778D01*
X146969999Y-86157128D01*
X146963591Y-86097517D01*
X146950015Y-86061119D01*
X146913297Y-85962671D01*
X146913293Y-85962664D01*
X146827047Y-85847455D01*
X146827044Y-85847452D01*
X146711835Y-85761206D01*
X146711828Y-85761202D01*
X146576982Y-85710908D01*
X146576983Y-85710908D01*
X146517383Y-85704501D01*
X146517381Y-85704500D01*
X146517373Y-85704500D01*
X146517364Y-85704500D01*
X144621629Y-85704500D01*
X144621623Y-85704501D01*
X144562016Y-85710908D01*
X144427171Y-85761202D01*
X144427164Y-85761206D01*
X144311955Y-85847452D01*
X144311952Y-85847455D01*
X144225706Y-85962664D01*
X144225702Y-85962671D01*
X144175408Y-86097517D01*
X144170829Y-86140111D01*
X144169001Y-86157123D01*
X144169000Y-86157135D01*
X135305763Y-86157135D01*
X135325395Y-86118606D01*
X135393515Y-85908951D01*
X135428000Y-85691222D01*
X135428000Y-85470778D01*
X135393515Y-85253049D01*
X135359455Y-85148221D01*
X135325396Y-85043396D01*
X135325395Y-85043393D01*
X135290737Y-84975375D01*
X135225315Y-84846978D01*
X135179185Y-84783485D01*
X135095747Y-84668641D01*
X135095743Y-84668636D01*
X134939863Y-84512756D01*
X134939858Y-84512752D01*
X134761525Y-84383187D01*
X134761524Y-84383186D01*
X134761522Y-84383185D01*
X134644291Y-84323452D01*
X134565106Y-84283104D01*
X134565103Y-84283103D01*
X134355452Y-84214985D01*
X134246586Y-84197742D01*
X134137722Y-84180500D01*
X133917278Y-84180500D01*
X133844701Y-84191995D01*
X133699547Y-84214985D01*
X133489896Y-84283103D01*
X133489893Y-84283104D01*
X133293474Y-84383187D01*
X133115141Y-84512752D01*
X133115136Y-84512756D01*
X132959256Y-84668636D01*
X132959252Y-84668641D01*
X132829687Y-84846974D01*
X132729604Y-85043393D01*
X132729603Y-85043396D01*
X132661485Y-85253047D01*
X132627000Y-85470778D01*
X128427999Y-85470778D01*
X128427999Y-84633128D01*
X128421591Y-84573517D01*
X128398929Y-84512758D01*
X128371297Y-84438671D01*
X128371293Y-84438664D01*
X128285047Y-84323455D01*
X128285044Y-84323452D01*
X128169835Y-84237206D01*
X128169828Y-84237202D01*
X128034982Y-84186908D01*
X128034983Y-84186908D01*
X127975383Y-84180501D01*
X127975381Y-84180500D01*
X127975373Y-84180500D01*
X127975364Y-84180500D01*
X126079629Y-84180500D01*
X126079623Y-84180501D01*
X126020016Y-84186908D01*
X125885171Y-84237202D01*
X125885164Y-84237206D01*
X125769955Y-84323452D01*
X125769952Y-84323455D01*
X125683706Y-84438664D01*
X125683702Y-84438671D01*
X125633408Y-84573517D01*
X125627001Y-84633116D01*
X125627001Y-84633123D01*
X125627000Y-84633135D01*
X120524811Y-84633135D01*
X120615821Y-84542125D01*
X120728013Y-84429932D01*
X120664256Y-84383611D01*
X120467910Y-84283567D01*
X120258335Y-84215473D01*
X120040681Y-84181000D01*
X119820319Y-84181000D01*
X119602664Y-84215473D01*
X119393089Y-84283567D01*
X119196733Y-84383616D01*
X119132985Y-84429931D01*
X119132985Y-84429932D01*
X119719440Y-85016387D01*
X119698909Y-85021889D01*
X119562092Y-85100881D01*
X119450381Y-85212592D01*
X119371389Y-85349409D01*
X119365887Y-85369940D01*
X118779432Y-84783485D01*
X118779431Y-84783485D01*
X118733116Y-84847233D01*
X118633067Y-85043589D01*
X118564973Y-85253164D01*
X118530500Y-85470818D01*
X114330999Y-85470818D01*
X114330999Y-84633128D01*
X114324591Y-84573517D01*
X114274296Y-84438669D01*
X114274295Y-84438668D01*
X114274293Y-84438664D01*
X114188047Y-84323455D01*
X114188044Y-84323452D01*
X114072835Y-84237206D01*
X114072828Y-84237202D01*
X113937982Y-84186908D01*
X113937983Y-84186908D01*
X113878383Y-84180501D01*
X113878381Y-84180500D01*
X113878373Y-84180500D01*
X113878364Y-84180500D01*
X111982629Y-84180500D01*
X111982623Y-84180501D01*
X111923016Y-84186908D01*
X111788171Y-84237202D01*
X111788164Y-84237206D01*
X111672955Y-84323452D01*
X111672952Y-84323455D01*
X111586706Y-84438664D01*
X111586702Y-84438671D01*
X111536408Y-84573517D01*
X111530001Y-84633116D01*
X111530001Y-84633123D01*
X111530000Y-84633135D01*
X98795500Y-84633135D01*
X98795500Y-74992844D01*
X130595000Y-74992844D01*
X130601401Y-75052372D01*
X130601403Y-75052379D01*
X130651645Y-75187086D01*
X130651649Y-75187093D01*
X130737809Y-75302187D01*
X130737812Y-75302190D01*
X130852906Y-75388350D01*
X130852913Y-75388354D01*
X130987620Y-75438596D01*
X130987627Y-75438598D01*
X131047155Y-75444999D01*
X131047172Y-75445000D01*
X132495000Y-75445000D01*
X132495000Y-74898554D01*
X132494998Y-74898553D01*
X132995000Y-74898553D01*
X132995000Y-75445000D01*
X134442828Y-75445000D01*
X134442844Y-75444999D01*
X134502372Y-75438598D01*
X134502379Y-75438596D01*
X134637086Y-75388354D01*
X134637093Y-75388350D01*
X134752187Y-75302190D01*
X134752190Y-75302187D01*
X134838350Y-75187093D01*
X134838354Y-75187086D01*
X134888596Y-75052379D01*
X134888598Y-75052372D01*
X134894999Y-74992844D01*
X134895000Y-74992827D01*
X134895000Y-73895000D01*
X134798553Y-73895000D01*
X133641242Y-75052312D01*
X133579919Y-75085797D01*
X133510227Y-75080813D01*
X133465880Y-75052312D01*
X133395000Y-74981432D01*
X133324120Y-75052312D01*
X133262797Y-75085796D01*
X133193105Y-75080812D01*
X133148758Y-75052311D01*
X132995000Y-74898553D01*
X132494998Y-74898553D01*
X132341241Y-75052311D01*
X132279918Y-75085796D01*
X132210226Y-75080812D01*
X132165879Y-75052311D01*
X132095000Y-74981432D01*
X132024120Y-75052312D01*
X131962797Y-75085797D01*
X131893105Y-75080813D01*
X131848758Y-75052312D01*
X131058625Y-74262179D01*
X131280000Y-74262179D01*
X131280000Y-74327821D01*
X131305119Y-74388465D01*
X131351535Y-74434881D01*
X131412179Y-74460000D01*
X131477821Y-74460000D01*
X131538465Y-74434881D01*
X131584881Y-74388465D01*
X131610000Y-74327821D01*
X131610000Y-74295000D01*
X131798554Y-74295000D01*
X132095000Y-74591446D01*
X132391446Y-74295000D01*
X132358625Y-74262179D01*
X132580000Y-74262179D01*
X132580000Y-74327821D01*
X132605119Y-74388465D01*
X132651535Y-74434881D01*
X132712179Y-74460000D01*
X132777821Y-74460000D01*
X132838465Y-74434881D01*
X132884881Y-74388465D01*
X132910000Y-74327821D01*
X132910000Y-74295000D01*
X133098554Y-74295000D01*
X133395000Y-74591446D01*
X133691446Y-74295000D01*
X133658625Y-74262179D01*
X133880000Y-74262179D01*
X133880000Y-74327821D01*
X133905119Y-74388465D01*
X133951535Y-74434881D01*
X134012179Y-74460000D01*
X134077821Y-74460000D01*
X134138465Y-74434881D01*
X134184881Y-74388465D01*
X134210000Y-74327821D01*
X134210000Y-74262179D01*
X134184881Y-74201535D01*
X134138465Y-74155119D01*
X134077821Y-74130000D01*
X134012179Y-74130000D01*
X133951535Y-74155119D01*
X133905119Y-74201535D01*
X133880000Y-74262179D01*
X133658625Y-74262179D01*
X133395000Y-73998554D01*
X133098554Y-74295000D01*
X132910000Y-74295000D01*
X132910000Y-74262179D01*
X132884881Y-74201535D01*
X132838465Y-74155119D01*
X132777821Y-74130000D01*
X132712179Y-74130000D01*
X132651535Y-74155119D01*
X132605119Y-74201535D01*
X132580000Y-74262179D01*
X132358625Y-74262179D01*
X132095000Y-73998554D01*
X131798554Y-74295000D01*
X131610000Y-74295000D01*
X131610000Y-74262179D01*
X131584881Y-74201535D01*
X131538465Y-74155119D01*
X131477821Y-74130000D01*
X131412179Y-74130000D01*
X131351535Y-74155119D01*
X131305119Y-74201535D01*
X131280000Y-74262179D01*
X131058625Y-74262179D01*
X130691446Y-73895000D01*
X131398554Y-73895000D01*
X131445000Y-73941445D01*
X131491446Y-73895000D01*
X133998554Y-73895000D01*
X134045000Y-73941445D01*
X134091446Y-73895000D01*
X133998554Y-73895000D01*
X131491446Y-73895000D01*
X131398554Y-73895000D01*
X130691446Y-73895000D01*
X130595000Y-73895000D01*
X130595000Y-74992844D01*
X98795500Y-74992844D01*
X98795500Y-72297155D01*
X130595000Y-72297155D01*
X130595000Y-73395000D01*
X130691446Y-73395000D01*
X131398554Y-73395000D01*
X131491445Y-73395000D01*
X133998554Y-73395000D01*
X134091445Y-73395000D01*
X134045000Y-73348554D01*
X133998554Y-73395000D01*
X131491445Y-73395000D01*
X131445000Y-73348554D01*
X131398554Y-73395000D01*
X130691446Y-73395000D01*
X130691446Y-73394999D01*
X130808222Y-73278224D01*
X131124267Y-72962179D01*
X131280000Y-72962179D01*
X131280000Y-73027821D01*
X131305119Y-73088465D01*
X131351535Y-73134881D01*
X131412179Y-73160000D01*
X131477821Y-73160000D01*
X131538465Y-73134881D01*
X131584881Y-73088465D01*
X131610000Y-73027821D01*
X131610000Y-72995000D01*
X131798554Y-72995000D01*
X132095000Y-73291446D01*
X132391446Y-72995000D01*
X132358625Y-72962179D01*
X132580000Y-72962179D01*
X132580000Y-73027821D01*
X132605119Y-73088465D01*
X132651535Y-73134881D01*
X132712179Y-73160000D01*
X132777821Y-73160000D01*
X132838465Y-73134881D01*
X132884881Y-73088465D01*
X132910000Y-73027821D01*
X132910000Y-72995000D01*
X133098554Y-72995000D01*
X133395000Y-73291446D01*
X133691446Y-72995000D01*
X133658625Y-72962179D01*
X133880000Y-72962179D01*
X133880000Y-73027821D01*
X133905119Y-73088465D01*
X133951535Y-73134881D01*
X134012179Y-73160000D01*
X134077821Y-73160000D01*
X134138465Y-73134881D01*
X134184881Y-73088465D01*
X134210000Y-73027821D01*
X134210000Y-72962179D01*
X134184881Y-72901535D01*
X134138465Y-72855119D01*
X134077821Y-72830000D01*
X134012179Y-72830000D01*
X133951535Y-72855119D01*
X133905119Y-72901535D01*
X133880000Y-72962179D01*
X133658625Y-72962179D01*
X133395000Y-72698554D01*
X133098554Y-72995000D01*
X132910000Y-72995000D01*
X132910000Y-72962179D01*
X132884881Y-72901535D01*
X132838465Y-72855119D01*
X132777821Y-72830000D01*
X132712179Y-72830000D01*
X132651535Y-72855119D01*
X132605119Y-72901535D01*
X132580000Y-72962179D01*
X132358625Y-72962179D01*
X132095000Y-72698554D01*
X131798554Y-72995000D01*
X131610000Y-72995000D01*
X131610000Y-72962179D01*
X131584881Y-72901535D01*
X131538465Y-72855119D01*
X131477821Y-72830000D01*
X131412179Y-72830000D01*
X131351535Y-72855119D01*
X131305119Y-72901535D01*
X131280000Y-72962179D01*
X131124267Y-72962179D01*
X131848758Y-72237688D01*
X131910081Y-72204203D01*
X131979773Y-72209187D01*
X132024120Y-72237688D01*
X132094999Y-72308567D01*
X132165878Y-72237688D01*
X132227201Y-72204203D01*
X132296893Y-72209187D01*
X132341241Y-72237688D01*
X132494999Y-72391446D01*
X132995000Y-72391446D01*
X133148758Y-72237688D01*
X133210081Y-72204203D01*
X133279772Y-72209187D01*
X133324120Y-72237688D01*
X133395000Y-72308568D01*
X133465880Y-72237688D01*
X133527203Y-72204203D01*
X133596895Y-72209187D01*
X133641242Y-72237688D01*
X134798554Y-73395000D01*
X134895000Y-73395000D01*
X134895000Y-72297172D01*
X134894999Y-72297155D01*
X134888598Y-72237627D01*
X134888596Y-72237620D01*
X134838354Y-72102913D01*
X134838350Y-72102906D01*
X134752190Y-71987812D01*
X134752187Y-71987809D01*
X134637093Y-71901649D01*
X134637086Y-71901645D01*
X134502379Y-71851403D01*
X134502372Y-71851401D01*
X134442844Y-71845000D01*
X132995000Y-71845000D01*
X132995000Y-72391446D01*
X132494999Y-72391446D01*
X132495000Y-72391445D01*
X132495000Y-71845000D01*
X131047155Y-71845000D01*
X130987627Y-71851401D01*
X130987620Y-71851403D01*
X130852913Y-71901645D01*
X130852906Y-71901649D01*
X130737812Y-71987809D01*
X130737809Y-71987812D01*
X130651649Y-72102906D01*
X130651645Y-72102913D01*
X130601403Y-72237620D01*
X130601401Y-72237627D01*
X130595000Y-72297155D01*
X98795500Y-72297155D01*
X98795500Y-66064648D01*
X115924500Y-66064648D01*
X115924500Y-66269351D01*
X115956522Y-66471534D01*
X116019781Y-66666223D01*
X116112715Y-66848613D01*
X116233028Y-67014213D01*
X116377786Y-67158971D01*
X116532749Y-67271556D01*
X116543390Y-67279287D01*
X116659607Y-67338503D01*
X116725776Y-67372218D01*
X116725778Y-67372218D01*
X116725781Y-67372220D01*
X116830137Y-67406127D01*
X116920465Y-67435477D01*
X117021557Y-67451488D01*
X117122648Y-67467500D01*
X117122649Y-67467500D01*
X117327351Y-67467500D01*
X117327352Y-67467500D01*
X117529534Y-67435477D01*
X117724219Y-67372220D01*
X117906610Y-67279287D01*
X117999590Y-67211732D01*
X118072213Y-67158971D01*
X118072215Y-67158968D01*
X118072219Y-67158966D01*
X118216966Y-67014219D01*
X118216968Y-67014215D01*
X118216971Y-67014213D01*
X118337284Y-66848614D01*
X118337286Y-66848611D01*
X118337287Y-66848610D01*
X118384516Y-66755917D01*
X118432489Y-66705123D01*
X118500310Y-66688328D01*
X118566445Y-66710865D01*
X118605485Y-66755919D01*
X118652715Y-66848614D01*
X118773028Y-67014213D01*
X118917786Y-67158971D01*
X119072749Y-67271556D01*
X119083390Y-67279287D01*
X119199607Y-67338503D01*
X119265776Y-67372218D01*
X119265778Y-67372218D01*
X119265781Y-67372220D01*
X119370137Y-67406127D01*
X119460465Y-67435477D01*
X119561557Y-67451488D01*
X119662648Y-67467500D01*
X119662649Y-67467500D01*
X119867351Y-67467500D01*
X119867352Y-67467500D01*
X120069534Y-67435477D01*
X120264219Y-67372220D01*
X120446610Y-67279287D01*
X120539590Y-67211732D01*
X120612213Y-67158971D01*
X120612215Y-67158968D01*
X120612219Y-67158966D01*
X120756966Y-67014219D01*
X120756968Y-67014215D01*
X120756971Y-67014213D01*
X120877284Y-66848614D01*
X120877286Y-66848611D01*
X120877287Y-66848610D01*
X120924516Y-66755917D01*
X120972489Y-66705123D01*
X121040310Y-66688328D01*
X121106445Y-66710865D01*
X121145485Y-66755919D01*
X121192715Y-66848614D01*
X121313028Y-67014213D01*
X121457786Y-67158971D01*
X121612749Y-67271556D01*
X121623390Y-67279287D01*
X121739607Y-67338503D01*
X121805776Y-67372218D01*
X121805778Y-67372218D01*
X121805781Y-67372220D01*
X121910137Y-67406127D01*
X122000465Y-67435477D01*
X122101557Y-67451488D01*
X122202648Y-67467500D01*
X122202649Y-67467500D01*
X122407351Y-67467500D01*
X122407352Y-67467500D01*
X122609534Y-67435477D01*
X122804219Y-67372220D01*
X122986610Y-67279287D01*
X123079590Y-67211732D01*
X123152213Y-67158971D01*
X123152215Y-67158968D01*
X123152219Y-67158966D01*
X123296966Y-67014219D01*
X123296968Y-67014215D01*
X123296971Y-67014213D01*
X123417284Y-66848614D01*
X123417286Y-66848611D01*
X123417287Y-66848610D01*
X123464795Y-66755369D01*
X123512770Y-66704574D01*
X123580591Y-66687779D01*
X123646725Y-66710316D01*
X123685765Y-66755370D01*
X123733140Y-66848349D01*
X123853417Y-67013894D01*
X123853417Y-67013895D01*
X123998104Y-67158582D01*
X124163650Y-67278859D01*
X124345968Y-67371754D01*
X124540578Y-67434988D01*
X124595000Y-67443607D01*
X124595000Y-66600012D01*
X124652007Y-66632925D01*
X124779174Y-66667000D01*
X124910826Y-66667000D01*
X125037993Y-66632925D01*
X125095000Y-66600012D01*
X125095000Y-67443606D01*
X125149421Y-67434988D01*
X125344031Y-67371754D01*
X125526349Y-67278859D01*
X125691894Y-67158582D01*
X125691895Y-67158582D01*
X125836582Y-67013895D01*
X125836582Y-67013894D01*
X125956861Y-66848347D01*
X126004234Y-66755371D01*
X126052208Y-66704575D01*
X126120028Y-66687779D01*
X126186164Y-66710316D01*
X126225203Y-66755369D01*
X126272713Y-66848611D01*
X126393028Y-67014213D01*
X126537786Y-67158971D01*
X126692749Y-67271556D01*
X126703390Y-67279287D01*
X126819607Y-67338503D01*
X126885776Y-67372218D01*
X126885778Y-67372218D01*
X126885781Y-67372220D01*
X126990137Y-67406127D01*
X127080465Y-67435477D01*
X127181557Y-67451488D01*
X127282648Y-67467500D01*
X127282649Y-67467500D01*
X127487351Y-67467500D01*
X127487352Y-67467500D01*
X127689534Y-67435477D01*
X127884219Y-67372220D01*
X128066610Y-67279287D01*
X128159590Y-67211732D01*
X128232213Y-67158971D01*
X128232215Y-67158968D01*
X128232219Y-67158966D01*
X128376966Y-67014219D01*
X128376968Y-67014215D01*
X128376971Y-67014213D01*
X128497284Y-66848614D01*
X128497286Y-66848611D01*
X128497287Y-66848610D01*
X128544516Y-66755917D01*
X128592489Y-66705123D01*
X128660310Y-66688328D01*
X128726445Y-66710865D01*
X128765485Y-66755919D01*
X128812715Y-66848614D01*
X128933028Y-67014213D01*
X129077786Y-67158971D01*
X129232749Y-67271556D01*
X129243390Y-67279287D01*
X129359607Y-67338503D01*
X129425776Y-67372218D01*
X129425778Y-67372218D01*
X129425781Y-67372220D01*
X129530137Y-67406127D01*
X129620465Y-67435477D01*
X129721557Y-67451488D01*
X129822648Y-67467500D01*
X129822649Y-67467500D01*
X130027351Y-67467500D01*
X130027352Y-67467500D01*
X130229534Y-67435477D01*
X130424219Y-67372220D01*
X130606610Y-67279287D01*
X130699590Y-67211732D01*
X130772213Y-67158971D01*
X130772215Y-67158968D01*
X130772219Y-67158966D01*
X130916966Y-67014219D01*
X130916968Y-67014215D01*
X130916971Y-67014213D01*
X131037284Y-66848614D01*
X131037286Y-66848611D01*
X131037287Y-66848610D01*
X131084516Y-66755917D01*
X131132489Y-66705123D01*
X131200310Y-66688328D01*
X131266445Y-66710865D01*
X131305485Y-66755919D01*
X131352715Y-66848614D01*
X131473028Y-67014213D01*
X131617786Y-67158971D01*
X131772749Y-67271556D01*
X131783390Y-67279287D01*
X131899607Y-67338503D01*
X131965776Y-67372218D01*
X131965778Y-67372218D01*
X131965781Y-67372220D01*
X132070137Y-67406127D01*
X132160465Y-67435477D01*
X132261557Y-67451488D01*
X132362648Y-67467500D01*
X132362649Y-67467500D01*
X132567351Y-67467500D01*
X132567352Y-67467500D01*
X132769534Y-67435477D01*
X132964219Y-67372220D01*
X133146610Y-67279287D01*
X133239590Y-67211732D01*
X133312213Y-67158971D01*
X133312215Y-67158968D01*
X133312219Y-67158966D01*
X133456966Y-67014219D01*
X133456968Y-67014215D01*
X133456971Y-67014213D01*
X133577284Y-66848614D01*
X133577286Y-66848611D01*
X133577287Y-66848610D01*
X133624516Y-66755917D01*
X133672489Y-66705123D01*
X133740310Y-66688328D01*
X133806445Y-66710865D01*
X133845485Y-66755919D01*
X133892715Y-66848614D01*
X134013028Y-67014213D01*
X134157786Y-67158971D01*
X134312749Y-67271556D01*
X134323390Y-67279287D01*
X134439607Y-67338503D01*
X134505776Y-67372218D01*
X134505778Y-67372218D01*
X134505781Y-67372220D01*
X134610137Y-67406127D01*
X134700465Y-67435477D01*
X134801557Y-67451488D01*
X134902648Y-67467500D01*
X134902649Y-67467500D01*
X135107351Y-67467500D01*
X135107352Y-67467500D01*
X135309534Y-67435477D01*
X135504219Y-67372220D01*
X135686610Y-67279287D01*
X135779590Y-67211732D01*
X135852213Y-67158971D01*
X135852215Y-67158968D01*
X135852219Y-67158966D01*
X135996966Y-67014219D01*
X135996968Y-67014215D01*
X135996971Y-67014213D01*
X136117284Y-66848614D01*
X136117286Y-66848611D01*
X136117287Y-66848610D01*
X136164516Y-66755917D01*
X136212489Y-66705123D01*
X136280310Y-66688328D01*
X136346445Y-66710865D01*
X136385485Y-66755919D01*
X136432715Y-66848614D01*
X136553028Y-67014213D01*
X136697786Y-67158971D01*
X136852749Y-67271556D01*
X136863390Y-67279287D01*
X136979607Y-67338503D01*
X137045776Y-67372218D01*
X137045778Y-67372218D01*
X137045781Y-67372220D01*
X137150137Y-67406127D01*
X137240465Y-67435477D01*
X137341557Y-67451488D01*
X137442648Y-67467500D01*
X137442649Y-67467500D01*
X137647351Y-67467500D01*
X137647352Y-67467500D01*
X137849534Y-67435477D01*
X138044219Y-67372220D01*
X138226610Y-67279287D01*
X138319590Y-67211732D01*
X138392213Y-67158971D01*
X138392215Y-67158968D01*
X138392219Y-67158966D01*
X138536966Y-67014219D01*
X138536968Y-67014215D01*
X138536971Y-67014213D01*
X138657284Y-66848614D01*
X138657286Y-66848611D01*
X138657287Y-66848610D01*
X138704516Y-66755917D01*
X138752489Y-66705123D01*
X138820310Y-66688328D01*
X138886445Y-66710865D01*
X138925485Y-66755919D01*
X138972715Y-66848614D01*
X139093028Y-67014213D01*
X139237786Y-67158971D01*
X139392749Y-67271556D01*
X139403390Y-67279287D01*
X139519607Y-67338503D01*
X139585776Y-67372218D01*
X139585778Y-67372218D01*
X139585781Y-67372220D01*
X139690137Y-67406127D01*
X139780465Y-67435477D01*
X139881557Y-67451488D01*
X139982648Y-67467500D01*
X139982649Y-67467500D01*
X140187351Y-67467500D01*
X140187352Y-67467500D01*
X140389534Y-67435477D01*
X140584219Y-67372220D01*
X140766610Y-67279287D01*
X140859590Y-67211732D01*
X140932213Y-67158971D01*
X140932215Y-67158968D01*
X140932219Y-67158966D01*
X141076966Y-67014219D01*
X141076968Y-67014215D01*
X141076971Y-67014213D01*
X141129732Y-66941590D01*
X141197287Y-66848610D01*
X141290220Y-66666219D01*
X141353477Y-66471534D01*
X141385500Y-66269352D01*
X141385500Y-66064648D01*
X142844500Y-66064648D01*
X142844500Y-66269351D01*
X142876522Y-66471534D01*
X142939781Y-66666223D01*
X143032715Y-66848613D01*
X143153028Y-67014213D01*
X143297786Y-67158971D01*
X143452749Y-67271556D01*
X143463390Y-67279287D01*
X143579607Y-67338503D01*
X143645776Y-67372218D01*
X143645778Y-67372218D01*
X143645781Y-67372220D01*
X143750137Y-67406127D01*
X143840465Y-67435477D01*
X143941557Y-67451488D01*
X144042648Y-67467500D01*
X144042649Y-67467500D01*
X144247351Y-67467500D01*
X144247352Y-67467500D01*
X144449534Y-67435477D01*
X144644219Y-67372220D01*
X144826610Y-67279287D01*
X144919590Y-67211732D01*
X144992213Y-67158971D01*
X144992215Y-67158968D01*
X144992219Y-67158966D01*
X145136966Y-67014219D01*
X145136968Y-67014215D01*
X145136971Y-67014213D01*
X145257284Y-66848614D01*
X145257286Y-66848611D01*
X145257287Y-66848610D01*
X145304516Y-66755917D01*
X145352489Y-66705123D01*
X145420310Y-66688328D01*
X145486445Y-66710865D01*
X145525485Y-66755919D01*
X145572715Y-66848614D01*
X145693028Y-67014213D01*
X145837786Y-67158971D01*
X145992749Y-67271556D01*
X146003390Y-67279287D01*
X146119607Y-67338503D01*
X146185776Y-67372218D01*
X146185778Y-67372218D01*
X146185781Y-67372220D01*
X146290137Y-67406127D01*
X146380465Y-67435477D01*
X146481557Y-67451488D01*
X146582648Y-67467500D01*
X146582649Y-67467500D01*
X146787351Y-67467500D01*
X146787352Y-67467500D01*
X146989534Y-67435477D01*
X147184219Y-67372220D01*
X147366610Y-67279287D01*
X147459590Y-67211732D01*
X147532213Y-67158971D01*
X147532215Y-67158968D01*
X147532219Y-67158966D01*
X147676966Y-67014219D01*
X147676968Y-67014215D01*
X147676971Y-67014213D01*
X147797284Y-66848614D01*
X147797286Y-66848611D01*
X147797287Y-66848610D01*
X147844516Y-66755917D01*
X147892489Y-66705123D01*
X147960310Y-66688328D01*
X148026445Y-66710865D01*
X148065485Y-66755919D01*
X148112715Y-66848614D01*
X148233028Y-67014213D01*
X148377786Y-67158971D01*
X148532749Y-67271556D01*
X148543390Y-67279287D01*
X148659607Y-67338503D01*
X148725776Y-67372218D01*
X148725778Y-67372218D01*
X148725781Y-67372220D01*
X148830137Y-67406127D01*
X148920465Y-67435477D01*
X149021557Y-67451488D01*
X149122648Y-67467500D01*
X149122649Y-67467500D01*
X149327351Y-67467500D01*
X149327352Y-67467500D01*
X149529534Y-67435477D01*
X149724219Y-67372220D01*
X149906610Y-67279287D01*
X149999590Y-67211732D01*
X150072213Y-67158971D01*
X150072215Y-67158968D01*
X150072219Y-67158966D01*
X150216966Y-67014219D01*
X150216968Y-67014215D01*
X150216971Y-67014213D01*
X150337284Y-66848614D01*
X150337286Y-66848611D01*
X150337287Y-66848610D01*
X150384516Y-66755917D01*
X150432489Y-66705123D01*
X150500310Y-66688328D01*
X150566445Y-66710865D01*
X150605485Y-66755919D01*
X150652715Y-66848614D01*
X150773028Y-67014213D01*
X150917786Y-67158971D01*
X151072749Y-67271556D01*
X151083390Y-67279287D01*
X151199607Y-67338503D01*
X151265776Y-67372218D01*
X151265778Y-67372218D01*
X151265781Y-67372220D01*
X151370137Y-67406127D01*
X151460465Y-67435477D01*
X151561557Y-67451488D01*
X151662648Y-67467500D01*
X151662649Y-67467500D01*
X151867351Y-67467500D01*
X151867352Y-67467500D01*
X152069534Y-67435477D01*
X152264219Y-67372220D01*
X152446610Y-67279287D01*
X152539590Y-67211732D01*
X152612213Y-67158971D01*
X152612215Y-67158968D01*
X152612219Y-67158966D01*
X152756966Y-67014219D01*
X152756968Y-67014215D01*
X152756971Y-67014213D01*
X152877284Y-66848614D01*
X152877286Y-66848611D01*
X152877287Y-66848610D01*
X152924516Y-66755917D01*
X152972489Y-66705123D01*
X153040310Y-66688328D01*
X153106445Y-66710865D01*
X153145485Y-66755919D01*
X153192715Y-66848614D01*
X153313028Y-67014213D01*
X153457786Y-67158971D01*
X153612749Y-67271556D01*
X153623390Y-67279287D01*
X153739607Y-67338503D01*
X153805776Y-67372218D01*
X153805778Y-67372218D01*
X153805781Y-67372220D01*
X153910137Y-67406127D01*
X154000465Y-67435477D01*
X154101557Y-67451488D01*
X154202648Y-67467500D01*
X154202649Y-67467500D01*
X154407351Y-67467500D01*
X154407352Y-67467500D01*
X154609534Y-67435477D01*
X154804219Y-67372220D01*
X154986610Y-67279287D01*
X155079590Y-67211732D01*
X155152213Y-67158971D01*
X155152215Y-67158968D01*
X155152219Y-67158966D01*
X155296966Y-67014219D01*
X155296968Y-67014215D01*
X155296971Y-67014213D01*
X155417284Y-66848614D01*
X155417286Y-66848611D01*
X155417287Y-66848610D01*
X155464516Y-66755917D01*
X155512489Y-66705123D01*
X155580310Y-66688328D01*
X155646445Y-66710865D01*
X155685485Y-66755919D01*
X155732715Y-66848614D01*
X155853028Y-67014213D01*
X155997786Y-67158971D01*
X156152749Y-67271556D01*
X156163390Y-67279287D01*
X156279607Y-67338503D01*
X156345776Y-67372218D01*
X156345778Y-67372218D01*
X156345781Y-67372220D01*
X156450137Y-67406127D01*
X156540465Y-67435477D01*
X156641557Y-67451488D01*
X156742648Y-67467500D01*
X156742649Y-67467500D01*
X156947351Y-67467500D01*
X156947352Y-67467500D01*
X157149534Y-67435477D01*
X157344219Y-67372220D01*
X157526610Y-67279287D01*
X157619590Y-67211732D01*
X157692213Y-67158971D01*
X157692215Y-67158968D01*
X157692219Y-67158966D01*
X157836966Y-67014219D01*
X157836968Y-67014215D01*
X157836971Y-67014213D01*
X157957284Y-66848614D01*
X157957286Y-66848611D01*
X157957287Y-66848610D01*
X158004516Y-66755917D01*
X158052489Y-66705123D01*
X158120310Y-66688328D01*
X158186445Y-66710865D01*
X158225485Y-66755919D01*
X158272715Y-66848614D01*
X158393028Y-67014213D01*
X158537786Y-67158971D01*
X158692749Y-67271556D01*
X158703390Y-67279287D01*
X158819607Y-67338503D01*
X158885776Y-67372218D01*
X158885778Y-67372218D01*
X158885781Y-67372220D01*
X158990137Y-67406127D01*
X159080465Y-67435477D01*
X159181557Y-67451488D01*
X159282648Y-67467500D01*
X159282649Y-67467500D01*
X159487351Y-67467500D01*
X159487352Y-67467500D01*
X159689534Y-67435477D01*
X159884219Y-67372220D01*
X160066610Y-67279287D01*
X160159590Y-67211732D01*
X160232213Y-67158971D01*
X160232215Y-67158968D01*
X160232219Y-67158966D01*
X160376966Y-67014219D01*
X160376968Y-67014215D01*
X160376971Y-67014213D01*
X160497284Y-66848614D01*
X160497286Y-66848611D01*
X160497287Y-66848610D01*
X160544516Y-66755917D01*
X160592489Y-66705123D01*
X160660310Y-66688328D01*
X160726445Y-66710865D01*
X160765485Y-66755919D01*
X160812715Y-66848614D01*
X160933028Y-67014213D01*
X161077786Y-67158971D01*
X161232749Y-67271556D01*
X161243390Y-67279287D01*
X161359607Y-67338503D01*
X161425776Y-67372218D01*
X161425778Y-67372218D01*
X161425781Y-67372220D01*
X161530137Y-67406127D01*
X161620465Y-67435477D01*
X161721557Y-67451488D01*
X161822648Y-67467500D01*
X161822649Y-67467500D01*
X162027351Y-67467500D01*
X162027352Y-67467500D01*
X162229534Y-67435477D01*
X162424219Y-67372220D01*
X162606610Y-67279287D01*
X162699590Y-67211732D01*
X162772213Y-67158971D01*
X162772215Y-67158968D01*
X162772219Y-67158966D01*
X162916966Y-67014219D01*
X162916968Y-67014215D01*
X162916971Y-67014213D01*
X162969732Y-66941590D01*
X163037287Y-66848610D01*
X163130220Y-66666219D01*
X163193477Y-66471534D01*
X163225500Y-66269352D01*
X163225500Y-66064648D01*
X163193477Y-65862466D01*
X163192673Y-65859993D01*
X163130218Y-65667776D01*
X163037419Y-65485650D01*
X163037287Y-65485390D01*
X162979372Y-65405676D01*
X162916971Y-65319786D01*
X162772213Y-65175028D01*
X162606613Y-65054715D01*
X162606612Y-65054714D01*
X162606610Y-65054713D01*
X162549653Y-65025691D01*
X162424223Y-64961781D01*
X162229534Y-64898522D01*
X162054995Y-64870878D01*
X162027352Y-64866500D01*
X161822648Y-64866500D01*
X161798329Y-64870351D01*
X161620465Y-64898522D01*
X161425776Y-64961781D01*
X161243386Y-65054715D01*
X161077786Y-65175028D01*
X160933028Y-65319786D01*
X160812715Y-65485386D01*
X160765485Y-65578080D01*
X160717510Y-65628876D01*
X160649689Y-65645671D01*
X160583554Y-65623134D01*
X160544515Y-65578080D01*
X160497419Y-65485650D01*
X160497287Y-65485390D01*
X160439372Y-65405676D01*
X160376971Y-65319786D01*
X160232213Y-65175028D01*
X160066613Y-65054715D01*
X160066612Y-65054714D01*
X160066610Y-65054713D01*
X160009653Y-65025691D01*
X159884223Y-64961781D01*
X159689534Y-64898522D01*
X159514995Y-64870878D01*
X159487352Y-64866500D01*
X159282648Y-64866500D01*
X159258329Y-64870351D01*
X159080465Y-64898522D01*
X158885776Y-64961781D01*
X158703386Y-65054715D01*
X158537786Y-65175028D01*
X158393028Y-65319786D01*
X158272715Y-65485386D01*
X158225485Y-65578080D01*
X158177510Y-65628876D01*
X158109689Y-65645671D01*
X158043554Y-65623134D01*
X158004515Y-65578080D01*
X157957419Y-65485650D01*
X157957287Y-65485390D01*
X157899372Y-65405676D01*
X157836971Y-65319786D01*
X157692213Y-65175028D01*
X157526613Y-65054715D01*
X157526612Y-65054714D01*
X157526610Y-65054713D01*
X157469653Y-65025691D01*
X157344223Y-64961781D01*
X157149534Y-64898522D01*
X156974995Y-64870878D01*
X156947352Y-64866500D01*
X156742648Y-64866500D01*
X156718329Y-64870351D01*
X156540465Y-64898522D01*
X156345776Y-64961781D01*
X156163386Y-65054715D01*
X155997786Y-65175028D01*
X155853028Y-65319786D01*
X155732715Y-65485386D01*
X155685485Y-65578080D01*
X155637510Y-65628876D01*
X155569689Y-65645671D01*
X155503554Y-65623134D01*
X155464515Y-65578080D01*
X155417419Y-65485650D01*
X155417287Y-65485390D01*
X155359372Y-65405676D01*
X155296971Y-65319786D01*
X155152213Y-65175028D01*
X154986613Y-65054715D01*
X154986612Y-65054714D01*
X154986610Y-65054713D01*
X154929653Y-65025691D01*
X154804223Y-64961781D01*
X154609534Y-64898522D01*
X154434995Y-64870878D01*
X154407352Y-64866500D01*
X154202648Y-64866500D01*
X154178329Y-64870351D01*
X154000465Y-64898522D01*
X153805776Y-64961781D01*
X153623386Y-65054715D01*
X153457786Y-65175028D01*
X153313028Y-65319786D01*
X153192715Y-65485386D01*
X153145485Y-65578080D01*
X153097510Y-65628876D01*
X153029689Y-65645671D01*
X152963554Y-65623134D01*
X152924515Y-65578080D01*
X152877419Y-65485650D01*
X152877287Y-65485390D01*
X152819372Y-65405676D01*
X152756971Y-65319786D01*
X152612213Y-65175028D01*
X152446613Y-65054715D01*
X152446612Y-65054714D01*
X152446610Y-65054713D01*
X152389653Y-65025691D01*
X152264223Y-64961781D01*
X152069534Y-64898522D01*
X151894995Y-64870878D01*
X151867352Y-64866500D01*
X151662648Y-64866500D01*
X151638329Y-64870351D01*
X151460465Y-64898522D01*
X151265776Y-64961781D01*
X151083386Y-65054715D01*
X150917786Y-65175028D01*
X150773028Y-65319786D01*
X150652715Y-65485386D01*
X150605485Y-65578080D01*
X150557510Y-65628876D01*
X150489689Y-65645671D01*
X150423554Y-65623134D01*
X150384515Y-65578080D01*
X150337419Y-65485650D01*
X150337287Y-65485390D01*
X150279372Y-65405676D01*
X150216971Y-65319786D01*
X150072213Y-65175028D01*
X149906613Y-65054715D01*
X149906612Y-65054714D01*
X149906610Y-65054713D01*
X149849653Y-65025691D01*
X149724223Y-64961781D01*
X149529534Y-64898522D01*
X149354995Y-64870878D01*
X149327352Y-64866500D01*
X149122648Y-64866500D01*
X149098329Y-64870351D01*
X148920465Y-64898522D01*
X148725776Y-64961781D01*
X148543386Y-65054715D01*
X148377786Y-65175028D01*
X148233028Y-65319786D01*
X148112715Y-65485386D01*
X148065485Y-65578080D01*
X148017510Y-65628876D01*
X147949689Y-65645671D01*
X147883554Y-65623134D01*
X147844515Y-65578080D01*
X147797419Y-65485650D01*
X147797287Y-65485390D01*
X147739372Y-65405676D01*
X147676971Y-65319786D01*
X147532213Y-65175028D01*
X147366613Y-65054715D01*
X147366612Y-65054714D01*
X147366610Y-65054713D01*
X147309653Y-65025691D01*
X147184223Y-64961781D01*
X146989534Y-64898522D01*
X146814995Y-64870878D01*
X146787352Y-64866500D01*
X146582648Y-64866500D01*
X146558329Y-64870351D01*
X146380465Y-64898522D01*
X146185776Y-64961781D01*
X146003386Y-65054715D01*
X145837786Y-65175028D01*
X145693028Y-65319786D01*
X145572715Y-65485386D01*
X145525485Y-65578080D01*
X145477510Y-65628876D01*
X145409689Y-65645671D01*
X145343554Y-65623134D01*
X145304515Y-65578080D01*
X145257419Y-65485650D01*
X145257287Y-65485390D01*
X145199372Y-65405676D01*
X145136971Y-65319786D01*
X144992213Y-65175028D01*
X144826613Y-65054715D01*
X144826612Y-65054714D01*
X144826610Y-65054713D01*
X144769653Y-65025691D01*
X144644223Y-64961781D01*
X144449534Y-64898522D01*
X144274995Y-64870878D01*
X144247352Y-64866500D01*
X144042648Y-64866500D01*
X144018329Y-64870351D01*
X143840465Y-64898522D01*
X143645776Y-64961781D01*
X143463386Y-65054715D01*
X143297786Y-65175028D01*
X143153028Y-65319786D01*
X143032715Y-65485386D01*
X142939781Y-65667776D01*
X142876522Y-65862465D01*
X142844500Y-66064648D01*
X141385500Y-66064648D01*
X141353477Y-65862466D01*
X141352673Y-65859993D01*
X141290218Y-65667776D01*
X141197419Y-65485650D01*
X141197287Y-65485390D01*
X141139372Y-65405676D01*
X141076971Y-65319786D01*
X140932213Y-65175028D01*
X140766613Y-65054715D01*
X140766612Y-65054714D01*
X140766610Y-65054713D01*
X140709653Y-65025691D01*
X140584223Y-64961781D01*
X140389534Y-64898522D01*
X140214995Y-64870878D01*
X140187352Y-64866500D01*
X139982648Y-64866500D01*
X139958329Y-64870351D01*
X139780465Y-64898522D01*
X139585776Y-64961781D01*
X139403386Y-65054715D01*
X139237786Y-65175028D01*
X139093028Y-65319786D01*
X138972715Y-65485386D01*
X138925485Y-65578080D01*
X138877510Y-65628876D01*
X138809689Y-65645671D01*
X138743554Y-65623134D01*
X138704515Y-65578080D01*
X138657419Y-65485650D01*
X138657287Y-65485390D01*
X138599372Y-65405676D01*
X138536971Y-65319786D01*
X138392213Y-65175028D01*
X138226613Y-65054715D01*
X138226612Y-65054714D01*
X138226610Y-65054713D01*
X138169653Y-65025691D01*
X138044223Y-64961781D01*
X137849534Y-64898522D01*
X137674995Y-64870878D01*
X137647352Y-64866500D01*
X137442648Y-64866500D01*
X137418329Y-64870351D01*
X137240465Y-64898522D01*
X137045776Y-64961781D01*
X136863386Y-65054715D01*
X136697786Y-65175028D01*
X136553028Y-65319786D01*
X136432715Y-65485386D01*
X136385485Y-65578080D01*
X136337510Y-65628876D01*
X136269689Y-65645671D01*
X136203554Y-65623134D01*
X136164515Y-65578080D01*
X136117419Y-65485650D01*
X136117287Y-65485390D01*
X136059372Y-65405676D01*
X135996971Y-65319786D01*
X135852213Y-65175028D01*
X135686613Y-65054715D01*
X135686612Y-65054714D01*
X135686610Y-65054713D01*
X135629653Y-65025691D01*
X135504223Y-64961781D01*
X135309534Y-64898522D01*
X135134995Y-64870878D01*
X135107352Y-64866500D01*
X134902648Y-64866500D01*
X134878329Y-64870351D01*
X134700465Y-64898522D01*
X134505776Y-64961781D01*
X134323386Y-65054715D01*
X134157786Y-65175028D01*
X134013028Y-65319786D01*
X133892715Y-65485386D01*
X133845485Y-65578080D01*
X133797510Y-65628876D01*
X133729689Y-65645671D01*
X133663554Y-65623134D01*
X133624515Y-65578080D01*
X133577419Y-65485650D01*
X133577287Y-65485390D01*
X133519372Y-65405676D01*
X133456971Y-65319786D01*
X133312213Y-65175028D01*
X133146613Y-65054715D01*
X133146612Y-65054714D01*
X133146610Y-65054713D01*
X133089653Y-65025691D01*
X132964223Y-64961781D01*
X132769534Y-64898522D01*
X132594995Y-64870878D01*
X132567352Y-64866500D01*
X132362648Y-64866500D01*
X132338329Y-64870351D01*
X132160465Y-64898522D01*
X131965776Y-64961781D01*
X131783386Y-65054715D01*
X131617786Y-65175028D01*
X131473028Y-65319786D01*
X131352715Y-65485386D01*
X131305485Y-65578080D01*
X131257510Y-65628876D01*
X131189689Y-65645671D01*
X131123554Y-65623134D01*
X131084515Y-65578080D01*
X131037419Y-65485650D01*
X131037287Y-65485390D01*
X130979372Y-65405676D01*
X130916971Y-65319786D01*
X130772213Y-65175028D01*
X130606613Y-65054715D01*
X130606612Y-65054714D01*
X130606610Y-65054713D01*
X130549653Y-65025691D01*
X130424223Y-64961781D01*
X130229534Y-64898522D01*
X130054995Y-64870878D01*
X130027352Y-64866500D01*
X129822648Y-64866500D01*
X129798329Y-64870351D01*
X129620465Y-64898522D01*
X129425776Y-64961781D01*
X129243386Y-65054715D01*
X129077786Y-65175028D01*
X128933028Y-65319786D01*
X128812715Y-65485386D01*
X128765485Y-65578080D01*
X128717510Y-65628876D01*
X128649689Y-65645671D01*
X128583554Y-65623134D01*
X128544515Y-65578080D01*
X128497419Y-65485650D01*
X128497287Y-65485390D01*
X128439372Y-65405676D01*
X128376971Y-65319786D01*
X128232213Y-65175028D01*
X128066613Y-65054715D01*
X128066612Y-65054714D01*
X128066610Y-65054713D01*
X128009653Y-65025691D01*
X127884223Y-64961781D01*
X127689534Y-64898522D01*
X127514995Y-64870878D01*
X127487352Y-64866500D01*
X127282648Y-64866500D01*
X127258329Y-64870351D01*
X127080465Y-64898522D01*
X126885776Y-64961781D01*
X126703386Y-65054715D01*
X126537786Y-65175028D01*
X126393028Y-65319786D01*
X126272713Y-65485388D01*
X126225203Y-65578630D01*
X126177228Y-65629426D01*
X126109407Y-65646220D01*
X126043272Y-65623682D01*
X126004234Y-65578628D01*
X125956861Y-65485652D01*
X125836582Y-65320105D01*
X125836582Y-65320104D01*
X125691895Y-65175417D01*
X125526349Y-65055140D01*
X125344029Y-64962244D01*
X125149413Y-64899009D01*
X125095000Y-64890390D01*
X125095000Y-65733988D01*
X125037993Y-65701075D01*
X124910826Y-65667000D01*
X124779174Y-65667000D01*
X124652007Y-65701075D01*
X124595000Y-65733988D01*
X124595000Y-64890390D01*
X124540586Y-64899009D01*
X124345970Y-64962244D01*
X124163650Y-65055140D01*
X123998105Y-65175417D01*
X123998104Y-65175417D01*
X123853417Y-65320104D01*
X123853417Y-65320105D01*
X123733140Y-65485650D01*
X123685765Y-65578629D01*
X123637790Y-65629425D01*
X123569969Y-65646220D01*
X123503834Y-65623682D01*
X123464795Y-65578629D01*
X123417419Y-65485650D01*
X123417287Y-65485390D01*
X123359372Y-65405676D01*
X123296971Y-65319786D01*
X123152213Y-65175028D01*
X122986613Y-65054715D01*
X122986612Y-65054714D01*
X122986610Y-65054713D01*
X122929653Y-65025691D01*
X122804223Y-64961781D01*
X122609534Y-64898522D01*
X122434995Y-64870878D01*
X122407352Y-64866500D01*
X122202648Y-64866500D01*
X122178329Y-64870351D01*
X122000465Y-64898522D01*
X121805776Y-64961781D01*
X121623386Y-65054715D01*
X121457786Y-65175028D01*
X121313028Y-65319786D01*
X121192715Y-65485386D01*
X121145485Y-65578080D01*
X121097510Y-65628876D01*
X121029689Y-65645671D01*
X120963554Y-65623134D01*
X120924515Y-65578080D01*
X120877419Y-65485650D01*
X120877287Y-65485390D01*
X120819372Y-65405676D01*
X120756971Y-65319786D01*
X120612213Y-65175028D01*
X120446613Y-65054715D01*
X120446612Y-65054714D01*
X120446610Y-65054713D01*
X120389653Y-65025691D01*
X120264223Y-64961781D01*
X120069534Y-64898522D01*
X119894995Y-64870878D01*
X119867352Y-64866500D01*
X119662648Y-64866500D01*
X119638329Y-64870351D01*
X119460465Y-64898522D01*
X119265776Y-64961781D01*
X119083386Y-65054715D01*
X118917786Y-65175028D01*
X118773028Y-65319786D01*
X118652715Y-65485386D01*
X118605485Y-65578080D01*
X118557510Y-65628876D01*
X118489689Y-65645671D01*
X118423554Y-65623134D01*
X118384515Y-65578080D01*
X118337419Y-65485650D01*
X118337287Y-65485390D01*
X118279372Y-65405676D01*
X118216971Y-65319786D01*
X118072213Y-65175028D01*
X117906613Y-65054715D01*
X117906612Y-65054714D01*
X117906610Y-65054713D01*
X117849653Y-65025691D01*
X117724223Y-64961781D01*
X117529534Y-64898522D01*
X117354995Y-64870878D01*
X117327352Y-64866500D01*
X117122648Y-64866500D01*
X117098329Y-64870351D01*
X116920465Y-64898522D01*
X116725776Y-64961781D01*
X116543386Y-65054715D01*
X116377786Y-65175028D01*
X116233028Y-65319786D01*
X116112715Y-65485386D01*
X116019781Y-65667776D01*
X115956522Y-65862465D01*
X115924500Y-66064648D01*
X98795500Y-66064648D01*
X98795500Y-64121500D01*
X98815185Y-64054461D01*
X98867989Y-64008706D01*
X98919500Y-63997500D01*
X162686324Y-63997500D01*
X162753363Y-64017185D01*
G37*
%TD.AperFunction*%
%TD*%
M02*
