%TF.GenerationSoftware,KiCad,Pcbnew,9.0.2*%
%TF.CreationDate,2025-12-29T08:51:12-08:00*%
%TF.ProjectId,motor_temperature,6d6f746f-725f-4746-956d-706572617475,A*%
%TF.SameCoordinates,Original*%
%TF.FileFunction,Soldermask,Top*%
%TF.FilePolarity,Negative*%
%FSLAX46Y46*%
G04 Gerber Fmt 4.6, Leading zero omitted, Abs format (unit mm)*
G04 Created by KiCad (PCBNEW 9.0.2) date 2025-12-29 08:51:12*
%MOMM*%
%LPD*%
G01*
G04 APERTURE LIST*
G04 Aperture macros list*
%AMRoundRect*
0 Rectangle with rounded corners*
0 $1 Rounding radius*
0 $2 $3 $4 $5 $6 $7 $8 $9 X,Y pos of 4 corners*
0 Add a 4 corners polygon primitive as box body*
4,1,4,$2,$3,$4,$5,$6,$7,$8,$9,$2,$3,0*
0 Add four circle primitives for the rounded corners*
1,1,$1+$1,$2,$3*
1,1,$1+$1,$4,$5*
1,1,$1+$1,$6,$7*
1,1,$1+$1,$8,$9*
0 Add four rect primitives between the rounded corners*
20,1,$1+$1,$2,$3,$4,$5,0*
20,1,$1+$1,$4,$5,$6,$7,0*
20,1,$1+$1,$6,$7,$8,$9,0*
20,1,$1+$1,$8,$9,$2,$3,0*%
G04 Aperture macros list end*
%ADD10RoundRect,0.237500X-0.237500X0.250000X-0.237500X-0.250000X0.237500X-0.250000X0.237500X0.250000X0*%
%ADD11RoundRect,0.237500X-0.300000X-0.237500X0.300000X-0.237500X0.300000X0.237500X-0.300000X0.237500X0*%
%ADD12RoundRect,0.102000X-0.900000X-0.900000X0.900000X-0.900000X0.900000X0.900000X-0.900000X0.900000X0*%
%ADD13C,2.004000*%
%ADD14RoundRect,0.102000X0.525000X0.860000X-0.525000X0.860000X-0.525000X-0.860000X0.525000X-0.860000X0*%
%ADD15RoundRect,0.250000X-0.412500X-1.100000X0.412500X-1.100000X0.412500X1.100000X-0.412500X1.100000X0*%
%ADD16RoundRect,0.250000X1.100000X-0.412500X1.100000X0.412500X-1.100000X0.412500X-1.100000X-0.412500X0*%
%ADD17RoundRect,0.102000X-0.525000X-0.860000X0.525000X-0.860000X0.525000X0.860000X-0.525000X0.860000X0*%
%ADD18RoundRect,0.102000X0.290000X-0.775000X0.290000X0.775000X-0.290000X0.775000X-0.290000X-0.775000X0*%
%ADD19C,0.230000*%
%ADD20R,0.558800X1.981200*%
%ADD21RoundRect,0.102000X0.860000X-0.525000X0.860000X0.525000X-0.860000X0.525000X-0.860000X-0.525000X0*%
%ADD22R,3.100000X2.400000*%
%ADD23RoundRect,0.070000X-0.250000X1.100000X-0.250000X-1.100000X0.250000X-1.100000X0.250000X1.100000X0*%
%ADD24C,0.770000*%
%ADD25RoundRect,0.237500X0.237500X-0.300000X0.237500X0.300000X-0.237500X0.300000X-0.237500X-0.300000X0*%
%ADD26R,1.600000X1.600000*%
%ADD27O,1.600000X1.600000*%
G04 APERTURE END LIST*
D10*
%TO.C,R1*%
X133350000Y-78716500D03*
X133350000Y-80541500D03*
%TD*%
D11*
%TO.C,C2*%
X149759500Y-78105000D03*
X151484500Y-78105000D03*
%TD*%
D12*
%TO.C,J3*%
X112930500Y-85581000D03*
D13*
X116430500Y-90581000D03*
X119930500Y-85581000D03*
%TD*%
D14*
%TO.C,R2*%
X157162000Y-108966000D03*
X154242000Y-108966000D03*
%TD*%
D15*
%TO.C,C1*%
X149440500Y-80899000D03*
X152565500Y-80899000D03*
%TD*%
D16*
%TO.C,C3*%
X126365000Y-76492500D03*
X126365000Y-73367500D03*
%TD*%
D17*
%TO.C,R3*%
X160211000Y-108966000D03*
X163131000Y-108966000D03*
%TD*%
D18*
%TO.C,U2*%
X147193000Y-75832000D03*
X148463000Y-75832000D03*
X149733000Y-75832000D03*
X151003000Y-75832000D03*
X151003000Y-70472000D03*
X149733000Y-70472000D03*
X148463000Y-70472000D03*
X147193000Y-70472000D03*
%TD*%
D12*
%TO.C,J1*%
X127027500Y-85581000D03*
D13*
X130527500Y-90581000D03*
X134027500Y-85581000D03*
%TD*%
D11*
%TO.C,C5*%
X157379500Y-98552000D03*
X159104500Y-98552000D03*
%TD*%
D19*
%TO.C,U3*%
X160655000Y-68580000D03*
X160255000Y-68580000D03*
X160655000Y-68179998D03*
X160255000Y-68179998D03*
%TD*%
D20*
%TO.C,U4*%
X157353000Y-105714800D03*
X158623000Y-105714800D03*
X159893000Y-105714800D03*
X161163000Y-105714800D03*
X161163000Y-100787200D03*
X159893000Y-100787200D03*
X158623000Y-100787200D03*
X157353000Y-100787200D03*
%TD*%
D12*
%TO.C,J2*%
X145569500Y-87105000D03*
D13*
X149069500Y-92105000D03*
X152569500Y-87105000D03*
%TD*%
D21*
%TO.C,R5*%
X156845000Y-73977000D03*
X156845000Y-71057000D03*
%TD*%
D22*
%TO.C,U1*%
X132745000Y-73645000D03*
D23*
X134650000Y-70770000D03*
X133380000Y-70770000D03*
X132110000Y-70770000D03*
X130840000Y-70770000D03*
X130840000Y-76520000D03*
X132110000Y-76520000D03*
X133380000Y-76520000D03*
X134650000Y-76520000D03*
D24*
X134045000Y-72995000D03*
X132745000Y-72995000D03*
X131445000Y-72995000D03*
X134045000Y-74295000D03*
X132745000Y-74295000D03*
X131445000Y-74295000D03*
%TD*%
D14*
%TO.C,R4*%
X155003000Y-103378000D03*
X152083000Y-103378000D03*
%TD*%
D21*
%TO.C,R6*%
X139573000Y-77660000D03*
X139573000Y-74740000D03*
%TD*%
D25*
%TO.C,C4*%
X129032000Y-76554500D03*
X129032000Y-74829500D03*
%TD*%
D15*
%TO.C,C6*%
X157441500Y-95504000D03*
X160566500Y-95504000D03*
%TD*%
D26*
%TO.C,A1*%
X126365000Y-114427000D03*
D27*
X128905000Y-114427000D03*
X131445000Y-114427000D03*
X133985000Y-114427000D03*
X136525000Y-114427000D03*
X139065000Y-114427000D03*
X141605000Y-114427000D03*
X144145000Y-114427000D03*
X149225000Y-114427000D03*
X151765000Y-114427000D03*
X154305000Y-114427000D03*
X156845000Y-114427000D03*
X159385000Y-114427000D03*
X161925000Y-114427000D03*
X161925000Y-66167000D03*
X159385000Y-66167000D03*
X156845000Y-66167000D03*
X154305000Y-66167000D03*
X151765000Y-66167000D03*
X149225000Y-66167000D03*
X146685000Y-66167000D03*
X144145000Y-66167000D03*
X140085000Y-66167000D03*
X137545000Y-66167000D03*
X135005000Y-66167000D03*
X132465000Y-66167000D03*
X129925000Y-66167000D03*
X127385000Y-66167000D03*
X124845000Y-66167000D03*
X122305000Y-66167000D03*
X119765000Y-66167000D03*
X117225000Y-66167000D03*
%TD*%
M02*
