M48
; DRILL file {KiCad 9.0.2} date 2025-11-24T10:30:30-0800
; FORMAT={-:-/ absolute / metric / decimal}
; #@! TF.CreationDate,2025-11-24T10:30:30-08:00
; #@! TF.GenerationSoftware,Kicad,Pcbnew,9.0.2
; #@! TF.FileFunction,MixedPlating,1,2
FMAT,2
METRIC
; #@! TA.AperFunction,Plated,PTH,ViaDrill
T1C0.254
; #@! TA.AperFunction,Plated,PTH,ComponentDrill
T2C0.330
; #@! TA.AperFunction,Plated,PTH,ComponentDrill
T3C1.000
; #@! TA.AperFunction,Plated,PTH,ComponentDrill
T4C1.200
%
G90
G05
T1
X132.461Y-99.314
X135.064Y-99.377
X143.256Y-102.87
X144.653Y-107.442
X154.178Y-103.632
X159.639Y-116.332
T2
X131.796Y-107.173
X131.796Y-108.473
X133.096Y-107.173
X133.096Y-108.473
X134.396Y-107.173
X134.396Y-108.473
T3
X117.105Y-114.63
X119.645Y-114.63
X122.185Y-114.63
X124.725Y-114.63
X126.245Y-66.37
X127.265Y-114.63
X128.785Y-66.37
X129.805Y-114.63
X131.325Y-66.37
X132.345Y-114.63
X133.865Y-66.37
X134.885Y-114.63
X136.405Y-66.37
X137.425Y-114.63
X138.945Y-66.37
X139.965Y-114.63
X141.485Y-66.37
X144.025Y-66.37
X144.025Y-114.63
X146.565Y-114.63
X149.105Y-66.37
X149.105Y-114.63
X151.645Y-66.37
X151.645Y-114.63
X154.185Y-66.37
X154.185Y-114.63
X156.725Y-66.37
X156.725Y-114.63
X159.265Y-66.37
X159.265Y-114.63
X161.805Y-66.37
X161.805Y-114.63
T4
X117.502Y-96.376
X117.629Y-72.119
X121.002Y-101.376
X121.129Y-77.119
X124.502Y-96.376
X124.629Y-72.119
X146.585Y-87.74
X150.085Y-92.74
X153.585Y-87.74
M30
