%TF.GenerationSoftware,KiCad,Pcbnew,9.0.2*%
%TF.CreationDate,2025-11-24T10:29:42-08:00*%
%TF.ProjectId,motor_temperature,6d6f746f-725f-4746-956d-706572617475,A*%
%TF.SameCoordinates,Original*%
%TF.FileFunction,Soldermask,Top*%
%TF.FilePolarity,Negative*%
%FSLAX46Y46*%
G04 Gerber Fmt 4.6, Leading zero omitted, Abs format (unit mm)*
G04 Created by KiCad (PCBNEW 9.0.2) date 2025-11-24 10:29:42*
%MOMM*%
%LPD*%
G01*
G04 APERTURE LIST*
G04 Aperture macros list*
%AMRoundRect*
0 Rectangle with rounded corners*
0 $1 Rounding radius*
0 $2 $3 $4 $5 $6 $7 $8 $9 X,Y pos of 4 corners*
0 Add a 4 corners polygon primitive as box body*
4,1,4,$2,$3,$4,$5,$6,$7,$8,$9,$2,$3,0*
0 Add four circle primitives for the rounded corners*
1,1,$1+$1,$2,$3*
1,1,$1+$1,$4,$5*
1,1,$1+$1,$6,$7*
1,1,$1+$1,$8,$9*
0 Add four rect primitives between the rounded corners*
20,1,$1+$1,$2,$3,$4,$5,0*
20,1,$1+$1,$4,$5,$6,$7,0*
20,1,$1+$1,$6,$7,$8,$9,0*
20,1,$1+$1,$8,$9,$2,$3,0*%
G04 Aperture macros list end*
%ADD10R,1.600000X1.600000*%
%ADD11O,1.600000X1.600000*%
%ADD12RoundRect,0.237500X0.237500X-0.250000X0.237500X0.250000X-0.237500X0.250000X-0.237500X-0.250000X0*%
%ADD13RoundRect,0.237500X-0.300000X-0.237500X0.300000X-0.237500X0.300000X0.237500X-0.300000X0.237500X0*%
%ADD14RoundRect,0.102000X-0.900000X-0.900000X0.900000X-0.900000X0.900000X0.900000X-0.900000X0.900000X0*%
%ADD15C,2.004000*%
%ADD16RoundRect,0.250000X-0.412500X-1.100000X0.412500X-1.100000X0.412500X1.100000X-0.412500X1.100000X0*%
%ADD17RoundRect,0.250000X1.100000X-0.412500X1.100000X0.412500X-1.100000X0.412500X-1.100000X-0.412500X0*%
%ADD18RoundRect,0.102000X0.775000X0.290000X-0.775000X0.290000X-0.775000X-0.290000X0.775000X-0.290000X0*%
%ADD19C,0.230000*%
%ADD20R,3.100000X2.400000*%
%ADD21RoundRect,0.070000X0.250000X-1.100000X0.250000X1.100000X-0.250000X1.100000X-0.250000X-1.100000X0*%
%ADD22C,0.770000*%
%ADD23RoundRect,0.237500X0.237500X-0.300000X0.237500X0.300000X-0.237500X0.300000X-0.237500X-0.300000X0*%
G04 APERTURE END LIST*
D10*
%TO.C,A1*%
X126245000Y-66370000D03*
D11*
X128785000Y-66370000D03*
X131325000Y-66370000D03*
X133865000Y-66370000D03*
X136405000Y-66370000D03*
X138945000Y-66370000D03*
X141485000Y-66370000D03*
X144025000Y-66370000D03*
X149105000Y-66370000D03*
X151645000Y-66370000D03*
X154185000Y-66370000D03*
X156725000Y-66370000D03*
X159265000Y-66370000D03*
X161805000Y-66370000D03*
X161805000Y-114630000D03*
X159265000Y-114630000D03*
X156725000Y-114630000D03*
X154185000Y-114630000D03*
X151645000Y-114630000D03*
X149105000Y-114630000D03*
X146565000Y-114630000D03*
X144025000Y-114630000D03*
X139965000Y-114630000D03*
X137425000Y-114630000D03*
X134885000Y-114630000D03*
X132345000Y-114630000D03*
X129805000Y-114630000D03*
X127265000Y-114630000D03*
X124725000Y-114630000D03*
X122185000Y-114630000D03*
X119645000Y-114630000D03*
X117105000Y-114630000D03*
%TD*%
D12*
%TO.C,R1*%
X132461000Y-102512500D03*
X132461000Y-100687500D03*
%TD*%
D13*
%TO.C,C2*%
X152299500Y-104775000D03*
X154024500Y-104775000D03*
%TD*%
D14*
%TO.C,J3*%
X117629500Y-72119000D03*
D15*
X121129500Y-77119000D03*
X124629500Y-72119000D03*
%TD*%
D16*
%TO.C,C1*%
X152742500Y-101981000D03*
X155867500Y-101981000D03*
%TD*%
D17*
%TO.C,C3*%
X137922000Y-102400500D03*
X137922000Y-99275500D03*
%TD*%
D18*
%TO.C,U2*%
X150000000Y-106680000D03*
X150000000Y-105410000D03*
X150000000Y-104140000D03*
X150000000Y-102870000D03*
X144640000Y-102870000D03*
X144640000Y-104140000D03*
X144640000Y-105410000D03*
X144640000Y-106680000D03*
%TD*%
D14*
%TO.C,J1*%
X117502500Y-96376000D03*
D15*
X121002500Y-101376000D03*
X124502500Y-96376000D03*
%TD*%
D19*
%TO.C,U3*%
X160782000Y-116151000D03*
X160382000Y-116151000D03*
X160782000Y-115750998D03*
X160382000Y-115750998D03*
%TD*%
D14*
%TO.C,J2*%
X146585500Y-87740000D03*
D15*
X150085500Y-92740000D03*
X153585500Y-87740000D03*
%TD*%
D20*
%TO.C,U1*%
X133096000Y-107823000D03*
D21*
X131191000Y-110698000D03*
X132461000Y-110698000D03*
X133731000Y-110698000D03*
X135001000Y-110698000D03*
X135001000Y-104948000D03*
X133731000Y-104948000D03*
X132461000Y-104948000D03*
X131191000Y-104948000D03*
D22*
X131796000Y-108473000D03*
X133096000Y-108473000D03*
X134396000Y-108473000D03*
X131796000Y-107173000D03*
X133096000Y-107173000D03*
X134396000Y-107173000D03*
%TD*%
D23*
%TO.C,C4*%
X135001000Y-102616000D03*
X135001000Y-100891000D03*
%TD*%
M02*
