M48
; DRILL file {KiCad 9.0.2} date 2025-12-29T08:52:44-0800
; FORMAT={-:-/ absolute / metric / decimal}
; #@! TF.CreationDate,2025-12-29T08:52:44-08:00
; #@! TF.GenerationSoftware,Kicad,Pcbnew,9.0.2
; #@! TF.FileFunction,MixedPlating,1,2
FMAT,2
METRIC
; #@! TA.AperFunction,Plated,PTH,ViaDrill
T1C0.254
; #@! TA.AperFunction,Plated,PTH,ViaDrill
T2C0.300
; #@! TA.AperFunction,Plated,PTH,ComponentDrill
T3C0.330
; #@! TA.AperFunction,Plated,PTH,ComponentDrill
T4C1.000
; #@! TA.AperFunction,Plated,PTH,ComponentDrill
T5C1.200
%
G90
G05
T1
X159.512Y-68.761
T2
X129.032Y-73.533
X132.103Y-80.541
X134.65Y-69.245
X147.193Y-69.215
X151.003Y-69.215
X152.781Y-78.105
X160.147Y-98.552
X162.433Y-105.664
T3
X131.445Y-72.995
X131.445Y-74.295
X132.745Y-72.995
X132.745Y-74.295
X134.045Y-72.995
X134.045Y-74.295
T4
X117.225Y-66.167
X119.765Y-66.167
X122.305Y-66.167
X124.845Y-66.167
X126.365Y-114.427
X127.385Y-66.167
X128.905Y-114.427
X129.925Y-66.167
X131.445Y-114.427
X132.465Y-66.167
X133.985Y-114.427
X135.005Y-66.167
X136.525Y-114.427
X137.545Y-66.167
X139.065Y-114.427
X140.085Y-66.167
X141.605Y-114.427
X144.145Y-66.167
X144.145Y-114.427
X146.685Y-66.167
X149.225Y-66.167
X149.225Y-114.427
X151.765Y-66.167
X151.765Y-114.427
X154.305Y-66.167
X154.305Y-114.427
X156.845Y-66.167
X156.845Y-114.427
X159.385Y-66.167
X159.385Y-114.427
X161.925Y-66.167
X161.925Y-114.427
T5
X112.93Y-85.581
X116.43Y-90.581
X119.93Y-85.581
X127.027Y-85.581
X130.528Y-90.581
X134.028Y-85.581
X145.57Y-87.105
X149.07Y-92.105
X152.57Y-87.105
M30
