%TF.GenerationSoftware,KiCad,Pcbnew,9.0.2*%
%TF.CreationDate,2025-12-29T08:51:12-08:00*%
%TF.ProjectId,motor_temperature,6d6f746f-725f-4746-956d-706572617475,A*%
%TF.SameCoordinates,Original*%
%TF.FileFunction,Soldermask,Bot*%
%TF.FilePolarity,Negative*%
%FSLAX46Y46*%
G04 Gerber Fmt 4.6, Leading zero omitted, Abs format (unit mm)*
G04 Created by KiCad (PCBNEW 9.0.2) date 2025-12-29 08:51:12*
%MOMM*%
%LPD*%
G01*
G04 APERTURE LIST*
G04 Aperture macros list*
%AMRoundRect*
0 Rectangle with rounded corners*
0 $1 Rounding radius*
0 $2 $3 $4 $5 $6 $7 $8 $9 X,Y pos of 4 corners*
0 Add a 4 corners polygon primitive as box body*
4,1,4,$2,$3,$4,$5,$6,$7,$8,$9,$2,$3,0*
0 Add four circle primitives for the rounded corners*
1,1,$1+$1,$2,$3*
1,1,$1+$1,$4,$5*
1,1,$1+$1,$6,$7*
1,1,$1+$1,$8,$9*
0 Add four rect primitives between the rounded corners*
20,1,$1+$1,$2,$3,$4,$5,0*
20,1,$1+$1,$4,$5,$6,$7,0*
20,1,$1+$1,$6,$7,$8,$9,0*
20,1,$1+$1,$8,$9,$2,$3,0*%
G04 Aperture macros list end*
%ADD10RoundRect,0.102000X-0.900000X-0.900000X0.900000X-0.900000X0.900000X0.900000X-0.900000X0.900000X0*%
%ADD11C,2.004000*%
%ADD12C,0.770000*%
%ADD13R,1.600000X1.600000*%
%ADD14O,1.600000X1.600000*%
G04 APERTURE END LIST*
D10*
%TO.C,J3*%
X112930500Y-85581000D03*
D11*
X116430500Y-90581000D03*
X119930500Y-85581000D03*
%TD*%
D10*
%TO.C,J1*%
X127027500Y-85581000D03*
D11*
X130527500Y-90581000D03*
X134027500Y-85581000D03*
%TD*%
D10*
%TO.C,J2*%
X145569500Y-87105000D03*
D11*
X149069500Y-92105000D03*
X152569500Y-87105000D03*
%TD*%
D12*
%TO.C,U1*%
X134045000Y-72995000D03*
X132745000Y-72995000D03*
X131445000Y-72995000D03*
X134045000Y-74295000D03*
X132745000Y-74295000D03*
X131445000Y-74295000D03*
%TD*%
D13*
%TO.C,A1*%
X126365000Y-114427000D03*
D14*
X128905000Y-114427000D03*
X131445000Y-114427000D03*
X133985000Y-114427000D03*
X136525000Y-114427000D03*
X139065000Y-114427000D03*
X141605000Y-114427000D03*
X144145000Y-114427000D03*
X149225000Y-114427000D03*
X151765000Y-114427000D03*
X154305000Y-114427000D03*
X156845000Y-114427000D03*
X159385000Y-114427000D03*
X161925000Y-114427000D03*
X161925000Y-66167000D03*
X159385000Y-66167000D03*
X156845000Y-66167000D03*
X154305000Y-66167000D03*
X151765000Y-66167000D03*
X149225000Y-66167000D03*
X146685000Y-66167000D03*
X144145000Y-66167000D03*
X140085000Y-66167000D03*
X137545000Y-66167000D03*
X135005000Y-66167000D03*
X132465000Y-66167000D03*
X129925000Y-66167000D03*
X127385000Y-66167000D03*
X124845000Y-66167000D03*
X122305000Y-66167000D03*
X119765000Y-66167000D03*
X117225000Y-66167000D03*
%TD*%
M02*
